<svg width="1920" height="800" viewBox="0 0 1920 800" fill="none" xmlns="http://www.w3.org/2000/svg">
<g clip-path="url(#clip0_10_892)">
<path d="M-175.19 61C174.463 61 523.232 75.9167 871.398 110.666C1116.24 135.104 1357.69 161.849 1603.92 163.714C1673.41 164.241 1742.18 166.81 1811.04 176.818C1878.99 186.693 1946.07 201.688 2014.15 210.845C2114.95 224.402 2218.79 222.891 2320.39 222.891C2405.71 222.891 2491.35 218.693 2576.33 211.267C2653.83 204.496 2725.4 182.39 2800.99 165.405C2848.23 154.791 2896.23 148.515 2943.86 140.044C3005.74 129.038 3066.06 116.996 3129.21 115.527C3198.93 113.906 3269.57 117.253 3338.87 125.249C3338.92 125.256 3366.1 127.367 3356.2 136.028C3323.99 164.21 3245.63 168.813 3209.1 174.493C3054.61 198.515 2898.4 202.391 2742.66 212.324C2652.31 218.086 2564.66 231.423 2475.52 246.562C2372.48 264.062 2271.92 274.187 2167.37 275.517C2018.02 277.417 1868.67 275.217 1719.32 278.476C1543.67 282.308 1368.81 287.253 1193.07 285.45C1044.9 283.93 896.077 279.286 747.971 286.295C685.628 289.246 623.616 294.198 561.141 294.538C478.691 294.986 396.569 291.538 314.077 294.538C180.368 299.4 47.334 315.829 -86.4244 318.843C-224.881 321.962 -363.849 320.912 -502.354 319.477C-575.953 318.714 -649.435 312.08 -723 312.08" stroke="white" stroke-width="54" stroke-linecap="round"/>
</g>
<defs>
<clipPath id="clip0_10_892">
<rect width="1920" height="800" fill="white"/>
</clipPath>
</defs>
</svg>
