<svg width="1920" height="1080" viewBox="0 0 1920 1080" fill="none" xmlns="http://www.w3.org/2000/svg">
<g clip-path="url(#clip0_6_193)">
<rect width="1920" height="1080" fill="#525765"/>
<g filter="url(#filter0_f_6_193)">
<circle cx="273" cy="216" r="434" fill="#B8BBC3"/>
</g>
<g filter="url(#filter1_f_6_193)">
<ellipse cx="1471.8" cy="137.684" rx="662.5" ry="284.5" transform="rotate(12.2592 1471.8 137.684)" fill="#B8BBC3"/>
</g>
<path fill-rule="evenodd" clip-rule="evenodd" d="M67.407 552.536C61.6036 558.474 55.85 564.462 49.985 570.336C45.0665 575.269 40.0864 580.139 35.0139 584.913C30.4672 589.198 29.1617 589.499 24.0346 586.318C16.3374 581.545 8.82105 576.47 1.31064 571.395C-2.46241 568.845 -2.96877 565.282 -1.93726 560.941C0.742408 549.611 4.89844 538.748 8.14158 527.599C8.72383 525.619 9.30256 523.637 10.0304 521.116C-0.322357 529.161 -10.2112 536.853 -20.1155 544.529C-21.3992 545.517 -22.7834 546.384 -24.0954 547.337C-27.3715 549.742 -30.723 549.409 -33.8381 547.248C-41.0894 542.209 -48.3357 537.147 -55.3851 531.836C-60.8097 527.742 -60.9078 526.661 -58.2135 519.969C-53.6196 508.545 -48.5454 497.325 -43.2228 486.218C-42.0587 483.782 -40.9926 481.304 -39.2455 477.445C-45.3905 481.477 -49.536 485.506 -53.8275 489.32C-61.2891 495.958 -68.604 502.764 -76.0549 509.409C-80.8236 513.672 -81.7128 513.934 -87.0247 510.647C-96.7192 504.665 -106.334 498.527 -115.756 492.133C-121.304 488.364 -121.204 485.732 -116.773 480.874C-92.9798 454.794 -67.9511 429.847 -45.0478 402.951C-40.2373 397.303 -34.7948 392.189 -29.6162 386.863C-24.8399 381.953 -24.9205 381.871 -28.935 376.681C-41.3817 360.549 -48.7039 341.984 -53.493 322.449C-58.5178 301.964 -60.0027 281.216 -56.5835 260.185C-53.8058 243.095 -46.8731 227.777 -38.0848 213.14C-16.7208 177.558 13.0626 151.391 51.1103 135.009C71.9551 126.038 93.9049 120.885 116.736 120.057C123.235 119.824 129.734 119.218 136.239 119.169C162.181 118.986 186.83 125.322 211.032 134.099C234.931 142.773 256.405 155.697 275.842 171.793C292.718 185.771 307.176 202.25 319.41 220.475C342.698 255.161 354.515 293.589 355.739 335.263C356.449 359.52 351.578 382.748 343.043 405.424C335.075 426.587 323.465 445.37 309 462.631C295.247 479.038 278.517 491.103 258.646 498.877C230.756 509.785 201.914 512.789 172.276 508.957C167.403 508.321 162.733 506.993 158.089 505.427C152.911 503.682 152.414 503.824 150.142 508.762C145.874 518.05 141.723 527.398 136.803 536.365C124.377 558.984 114.057 582.645 102.532 605.711C99.2161 612.359 95.6496 618.867 92.6961 625.706C90.4596 630.905 87.5657 631.812 82.739 628.454C73.0096 621.681 63.4728 614.62 54.0397 607.446C49.7584 604.189 49.6268 603.095 51.5959 597.849C55.1995 588.288 59.0206 578.808 62.6434 569.25C64.6742 563.883 66.4755 558.438 68.3928 553.03C68.0563 552.862 67.734 552.703 67.407 552.536Z" fill="#110F0D"/>
<path fill-rule="evenodd" clip-rule="evenodd" d="M-97.9043 471.607C-87.2554 459.738 -76.654 447.831 -65.948 436.017C-52.7554 421.465 -39.4725 406.996 -26.2323 392.481C-21.1288 387.152 -16.9603 381.039 -12.4009 375.283C-8.66695 370.553 -8.89308 364.453 -10.1154 358.546C-12.1355 348.828 -17.9845 341.288 -24.2543 334.1C-38.3547 317.943 -47.0752 299.396 -50.0547 278.17C-50.1622 263.269 -46.555 249.19 -40.4823 235.707C-24.5458 200.302 0.203652 172.46 33.3889 152.568C58.7337 137.377 86.6157 129.542 116.276 128.389C122.555 128.146 128.835 127.572 135.109 127.651C167.969 128.087 199.033 135.835 228.502 150.493C260.223 166.266 286.268 188.637 307.054 217.124C319.729 234.498 329.312 253.491 336.251 273.995C342.358 292.019 346.357 310.251 347.636 329.178C349.208 352.523 345.316 374.984 337.73 396.993C328.047 425.057 312.112 449.057 290.726 469.397C274.654 484.662 255.248 493.769 233.52 498.01C216.48 499.665 200.482 494.882 184.523 489.937C181.65 489.046 178.82 488.016 175.932 487.147C166.445 484.282 158.657 486.385 152.653 494.58C149.266 499.197 145.134 503.296 143.063 508.801C127.955 538.946 112.85 569.093 97.716 599.231C96.8894 600.886 95.8837 602.434 94.9532 604.034C90.8468 611.552 89.9705 611.686 83.0096 607.366C75.5594 602.747 72.0194 597.172 74.2382 587.758C77.8883 572.254 79.8673 556.4 80.6483 540.443C78.924 534.018 77.0496 533.214 72.0309 536.856C70.2115 538.171 68.4972 539.632 66.7297 541.025C57.8322 548.436 48.5047 555.247 38.8802 561.686C35.028 564.259 31.1954 566.719 26.853 563.331C21.8174 559.42 15.3925 556.052 16.8459 548.021C19.0463 535.898 19.7116 523.604 21.2477 511.414C21.3403 510.321 21.4209 509.231 21.499 508.144C18.8791 504.31 15.9556 504.888 12.6576 507.305C4.80185 513.077 -3.96943 517.485 -11.7992 523.296C-16.9879 527.148 -21.9286 527.344 -27.0415 523.269C-28.6712 521.97 -30.4264 520.801 -32.202 519.708C-37.5561 516.413 -39.0859 512.019 -36.8813 506.044C-32.5481 494.288 -30.0857 481.999 -26.945 469.902C-26.9003 469.439 -26.8702 468.981 -26.8196 468.517C-26.0671 462.096 -26.7155 461.461 -33.3977 462.084C-43.7361 466.834 -53.4669 472.669 -63.1626 478.576C-64.9465 479.663 -66.7185 480.763 -68.5353 481.791C-79.7114 488.121 -89.7288 486.059 -97.6046 475.776C-98.5767 474.509 -99.7385 473.127 -97.9043 471.607Z" fill="#F0F0EF"/>
<path fill-rule="evenodd" clip-rule="evenodd" d="M-50.6624 278.379C-49.0927 282.96 -47.3835 287.5 -45.9848 292.137C-43.2709 301.102 -38.6378 309.215 -34.7516 317.652C-32.1832 323.23 -27.832 327.515 -23.9306 332.139C-18.3759 338.725 -12.7801 345.314 -9.79472 353.59C-8.20256 358.008 -6.93563 362.544 -7.47805 367.218C-8.22193 373.633 -10.501 379.362 -16.4309 382.931C-18.6603 384.281 -20.1433 386.386 -21.6692 388.445C-23.0147 390.265 -23.8953 392.625 -26.546 393.101C-24.6858 390.455 -23.1038 387.528 -20.8861 385.217C-18.2246 382.452 -18.6987 379.883 -20.3749 377.083C-21.4502 375.296 -22.6982 373.606 -23.8573 371.856C-41.9213 344.756 -51.1295 314.991 -51.1099 282.475C-51.1098 281.111 -50.816 279.743 -50.6624 278.379Z" fill="#B9B8B7"/>
<path fill-rule="evenodd" clip-rule="evenodd" d="M-26.7758 469.83C-26.3835 482.117 -30.6832 493.465 -34.2326 504.958C-34.4317 505.618 -34.8464 506.214 -35.08 506.871C-37.3357 513.356 -37.3132 513.746 -31.5776 517.575C-27.7974 520.098 -24.4932 524.447 -20.0027 524.509C-15.4942 524.568 -12.1803 520.023 -8.26809 517.62C-1.55832 513.478 5.052 509.194 11.779 505.079C16.3231 502.293 17.9368 502.805 20.9125 507.571C18.6448 505.006 16.5822 505.071 13.8828 507.453C6.18747 514.215 -1.83924 520.591 -9.52859 527.352C-14.9552 532.133 -20.6435 536.555 -26.2683 541.074C-28.1426 542.571 -29.6853 543.073 -31.6867 541.366C-36.7821 537.042 -42.6913 533.911 -48.2678 530.281C-52.8169 527.314 -52.911 527.202 -50.5715 521.962C-45.1533 509.832 -39.6076 497.758 -34.095 485.671C-31.6746 480.381 -29.2164 475.112 -26.7758 469.83Z" fill="#B9B8B7"/>
<path fill-rule="evenodd" clip-rule="evenodd" d="M21.6372 511.279C23.5186 523.428 21.3654 535.378 19.0735 547.249C18.3247 551.128 18.1382 554.059 21.8565 556.201C22.609 556.633 23.056 557.586 23.7155 558.23C30.0546 564.437 31.1658 564.438 38.2875 559.369C46.6472 553.424 55.1331 547.646 63.559 541.81C64.5157 541.154 65.5164 540.519 66.7561 540.629C65.0616 544.091 61.8444 546.206 59.2693 548.867C50.0462 558.432 40.6969 567.884 31.3399 577.31C26.6704 581.994 26.598 581.955 21.1085 577.893C16.3029 574.332 11.7757 570.343 6.45343 567.55C3.6528 566.086 3.33277 564.31 4.16942 561.359C7.61942 549.247 12.5672 537.645 16.5112 525.702C18.108 520.855 19.9274 516.086 21.6372 511.279Z" fill="#B9B8B7"/>
<path fill-rule="evenodd" clip-rule="evenodd" d="M142.003 508.891C144.579 501.648 148.251 495.045 153.445 489.34C158.961 483.267 165.889 482.413 173.394 484.359C177.696 485.479 181.889 487.038 186.136 488.386C199.368 492.6 212.758 495.985 226.692 496.825C228.973 496.959 231.417 496.818 233.514 498.143C219.467 502.567 204.995 503.373 190.407 502.562C179.388 501.958 168.415 500.828 157.658 497.895C150.931 496.059 150.177 496.628 146.366 502.525C144.967 504.678 143.464 506.765 142.003 508.891Z" fill="#B9B8B7"/>
<path fill-rule="evenodd" clip-rule="evenodd" d="M80.3331 540.141C82.5545 546.273 81.5168 552.539 80.9563 558.707C79.8984 570.029 77.7973 581.216 75.3022 592.295C74.4623 596.039 75.3989 598.666 77.986 600.971C79.8972 602.674 82.0195 604.132 84.1124 605.617C90.0809 609.844 90.0932 609.826 94.9075 604.118C93.3874 610.042 89.1617 614.546 87.046 620.859C77.3171 614.449 68.35 608.548 59.3806 602.634C57.5585 601.435 58.1191 600.015 58.8078 598.394C60.95 593.234 62.8557 587.97 65.0533 582.838C71.0146 568.917 75.9087 554.617 80.3331 540.141Z" fill="#B8B7B6"/>
<path fill-rule="evenodd" clip-rule="evenodd" d="M127.035 295.905C121.731 303.949 114.593 312.887 104.273 318.515C90.6501 325.932 75.7484 330.755 60.5245 327.874C36.1331 323.244 10.1316 305.149 12.4123 271.872C14.4598 241.991 27.2194 217.818 50.2088 198.91C71.1626 181.675 102.212 181.354 124.549 197.554C144.147 211.772 150.827 231.976 147.167 255.562C145.982 263.217 140.927 269.554 138.167 276.729C135.72 283.101 131.59 288.538 127.035 295.905Z" fill="#100F0D"/>
<path fill-rule="evenodd" clip-rule="evenodd" d="M282.364 396.031C272.479 411.257 258.445 421.46 242.388 429.164C222.867 438.531 204.975 435.517 187.993 422.587C172.982 411.165 166.193 396.156 164.672 377.603C163.249 360.312 168.326 345.514 177.847 331.524C185.66 320.012 195.316 310.158 205.143 300.543C212.571 293.27 222.635 290.796 232.693 289.523C252.971 286.945 269.776 293.753 283.217 309.087C302.276 330.834 304.338 358.84 288.255 386.481C286.375 389.709 284.332 392.852 282.364 396.031Z" fill="#100F0D"/>
<path fill-rule="evenodd" clip-rule="evenodd" d="M102.216 450.48C101.761 451.28 101.289 452.058 100.84 452.857C96.5315 460.578 92.7352 462.198 84.4816 459.861C77.4056 457.855 74.1302 453.338 74.3959 445.398C74.5494 440.818 75.354 436.259 75.4861 431.664C75.6545 426.101 74.086 425.081 68.8433 427.288C65.0316 428.892 61.4457 430.984 57.6726 432.676C47.8029 437.087 40.5766 433.994 36.6753 423.972C35.1903 420.175 35.4157 416.726 38.071 413.662C40.9222 410.374 43.9486 407.242 46.8993 404.038C60.2397 390.151 76.6583 380.313 92.5881 369.874C99.3622 365.438 106.19 366.431 112.684 370.965C118.943 375.343 122.172 381.201 120.562 388.832C116.578 407.732 112.768 426.69 106.087 444.892C105.262 447.138 103.069 448.315 102.216 450.48Z" fill="#110F0E"/>
<path fill-rule="evenodd" clip-rule="evenodd" d="M102.345 450.564C110.296 430.681 113.974 409.645 119.307 389.058C121.205 381.752 118.426 376.066 111.997 372.003C105.262 367.744 99.8568 367.249 93.4414 371.862C78.7643 382.407 63.2938 391.823 49.4149 403.489C48.908 403.924 48.2115 404.114 47.6046 404.423C53.2921 396.507 59.8345 389.32 67.249 383.064C74.489 376.956 81.3094 370.302 89.4263 365.254C93.6299 362.65 97.8898 360.638 102.811 359.88C112.369 358.404 120.595 362.746 124.82 371.334C130.357 382.606 128.219 394.013 124.723 405.128C120.282 419.244 114.113 432.73 107.336 445.915C106.223 448.064 104.563 449.611 102.345 450.564Z" fill="#B9B8B7"/>
<path fill-rule="evenodd" clip-rule="evenodd" d="M122.634 287.827C119.08 292.977 116.01 298.495 111.492 302.929C97.9189 316.25 81.5845 321.781 62.8544 320.662C55.4292 320.223 49.4636 315.988 42.9471 313.194C42.0245 312.796 41.2928 311.589 40.8195 310.591C35.3293 298.909 34.537 286.695 39.5155 274.866C49.698 250.674 66.5586 233.115 91.8168 224.184C100 221.285 108.19 219.41 116.792 218.833C121.743 218.497 126.426 219.659 131.147 220.668C134.147 221.309 135.554 223.485 136.507 226.384C142.433 244.485 140.253 261.496 129.734 277.477C127.43 280.967 125.004 284.378 122.634 287.827Z" fill="#3F3E40"/>
<path fill-rule="evenodd" clip-rule="evenodd" d="M29.4544 300.7C24.1496 295.907 21.4717 289.851 20.6033 283.017C18.4927 266.421 21.8929 250.774 29.7441 236.244C35.7816 225.082 43.5971 215.167 53.3035 206.815C75.3883 187.817 108.414 191.163 127.479 210.529C128.13 211.183 128.609 212.009 129.702 213.48C120.128 211.468 111.247 211.827 102.485 213.854C73.9047 220.466 51.4413 235.104 37.7298 261.908C31.4635 274.146 28.2532 286.685 29.4544 300.7Z" fill="#F57732"/>
<path fill-rule="evenodd" clip-rule="evenodd" d="M186.49 330.999C191.934 322.601 197.858 314.574 205.664 308.203C215.828 299.911 227.91 297.14 240.652 296.566C243.516 296.443 245.147 298.419 246.715 300.579C253.495 309.929 255.924 320.689 256.83 331.904C257.546 340.745 256.622 349.548 255.053 358.212C253.481 366.911 251.042 375.377 245.723 382.716C242.182 387.603 239.038 392.805 235.234 397.479C225.174 409.842 212.52 417.018 196.091 416.172C194.201 416.077 192.401 416.117 190.856 414.825C179.573 405.366 172.506 393.854 171.4 378.68C170.598 367.536 171.599 356.942 176.354 346.799C179.029 341.096 182.956 336.159 186.49 330.999Z" fill="#3F3E40"/>
<path fill-rule="evenodd" clip-rule="evenodd" d="M208.497 423.276C208.771 422.953 209.008 422.389 209.327 422.334C235.597 417.87 262.42 379.054 263.62 353.362C264.294 338.844 264.706 324.694 260.023 310.801C258.677 306.814 256.469 303.385 254.156 299.024C263.067 301.9 270.035 306.445 275.614 312.975C292.086 332.242 294.238 353.387 282.932 376.283C274.154 394.045 262.242 408.899 244.548 418.423C234.342 423.916 223.767 427.796 211.965 425.053C211.072 424.839 210.169 424.614 209.337 424.258C208.979 424.113 208.772 423.618 208.497 423.276Z" fill="#F57732"/>
<path fill-rule="evenodd" clip-rule="evenodd" d="M94.9729 449.502C93.505 452.736 91.0604 454.115 87.6409 452.939C84.3748 451.816 81.7952 449.955 82.0257 445.944C82.2164 442.713 82.2748 439.458 82.6373 436.245C83.0174 432.961 82.7785 429.748 81.9063 426.599C80.5919 421.883 76.2669 418.849 71.4214 419.28C68.1758 419.57 65.0749 420.477 62.1381 422.006C59.2761 423.502 56.2466 424.704 53.3104 426.07C49.6874 427.761 47.004 426.143 44.7238 423.508C42.3582 420.767 42.8609 418.148 45.0103 415.388C47.0219 412.805 49.2562 410.527 51.848 408.557C63.6231 399.604 75.4908 390.761 87.9507 382.744C91.2465 380.624 94.2681 378.06 97.6182 376.03C101.548 373.639 105.499 373.834 109.257 376.834C113.146 379.935 114.502 383.087 113.026 387.829C107.731 404.828 104.962 422.509 99.3244 439.408C98.1529 442.924 97.3337 446.556 94.9729 449.502Z" fill="#3F3E40"/>
<path fill-rule="evenodd" clip-rule="evenodd" d="M1759.57 195.75C1756.49 201.43 1753.41 207.17 1750.27 212.867C1748.02 216.938 1745.72 220.977 1743.34 224.971C1741.78 227.58 1740.92 227.75 1738.34 226.319C1737.89 226.066 1737.47 225.754 1737.06 225.438C1725.1 216.32 1713.87 206.414 1704.14 194.887C1703.48 194.098 1702.93 193.209 1702.36 192.352C1699.31 187.851 1699.38 187.199 1703.63 184.003C1710.24 179.038 1716.88 174.113 1723.5 169.172C1724.87 168.154 1726.34 167.239 1727.55 165.338C1722.96 162.42 1718.35 159.588 1713.84 156.601C1710.4 154.315 1707.01 151.931 1703.73 149.418C1699.37 146.075 1698.99 144.838 1701.49 139.818C1704.49 133.8 1708.06 128.11 1712.32 122.878C1718.3 115.545 1725.9 110.21 1733.8 105.239C1734.81 104.602 1735.96 104.161 1737.07 103.699C1739.57 102.649 1741.6 103.043 1743.47 105.251C1748.49 111.181 1753.23 117.308 1757.58 123.744C1758.83 125.6 1760.06 127.459 1761.48 129.577C1765.01 126.696 1766.82 122.728 1769.25 119.29C1772.73 114.373 1775.89 109.223 1779.26 104.234C1781.87 100.359 1782.82 100.078 1786.8 102.63C1794.97 107.873 1802.23 114.273 1808.84 121.325C1813.32 126.096 1818.2 130.518 1822.1 135.829C1825.05 139.834 1824.97 140.141 1820.71 142.958C1812.81 148.172 1804.88 153.348 1796.57 157.922C1795.53 158.489 1794.61 159.265 1793.62 159.956C1794.75 162.204 1796.85 163.205 1798.5 164.683C1806.22 171.577 1814.66 177.595 1822.6 184.204C1824.77 186.014 1825.81 185.604 1827.57 183.832C1840.32 170.957 1853.98 159.112 1868.42 148.157C1874.36 143.652 1880.68 139.933 1887.87 137.664C1901.27 133.434 1913.09 135.984 1923.28 145.581C1930.95 152.795 1938.08 160.541 1944.76 168.684C1957.76 184.553 1970.7 200.467 1983.55 216.454C1998.56 235.125 2013.19 254.12 2028.51 272.531C2036.56 282.212 2044.52 291.911 2051.66 302.281C2052.34 303.275 2053.28 304.087 2053.96 305.079C2055.04 306.651 2056.31 306.768 2057.95 306.029C2070.45 300.382 2082.34 293.935 2090.94 282.761C2092.28 281.023 2093.67 279.156 2096.4 278.871C2096.35 279.415 2096.47 280.007 2096.24 280.379C2090.13 290.346 2082.67 299.009 2072.12 304.504C2067.38 306.972 2062.58 309.337 2057.66 311.385C2049.12 314.943 2043.05 320.846 2039.05 329.137C2036.73 333.939 2034.1 338.602 2031.41 343.211C2026.46 351.68 2019.56 358.346 2011.81 364.265C1996.76 375.755 1984.05 389.458 1973.46 405.179C1967.4 414.179 1959.56 421.332 1950.19 426.833C1945.44 429.624 1940.77 432.554 1936.15 435.544C1931.69 438.43 1928.49 442.442 1926.39 447.308C1923.81 453.32 1921.35 459.388 1918.74 465.392C1914.81 474.429 1908.88 481.901 1900.79 487.563C1898.62 489.084 1897.07 491.643 1893.99 492.106C1894.07 489.286 1895.86 487.768 1897.55 486.389C1904.37 480.818 1909.01 473.57 1913.11 465.986C1915.39 461.765 1916.94 457.144 1918.93 452.747C1919.85 450.699 1919.63 449.219 1917.63 447.959C1915.44 446.581 1913.51 444.776 1911.26 443.547C1901.05 437.989 1892.33 430.368 1883 423.582C1863.34 409.294 1843.44 395.342 1823.77 381.06C1801.32 364.751 1778.39 349.076 1757.38 330.86C1754.65 328.491 1751.9 326.085 1749.51 323.39C1741.47 314.324 1739.19 303.808 1741.95 292.07C1743.76 284.396 1747.26 277.549 1751.66 271.09C1761.87 256.118 1773 241.86 1785.18 228.446C1786.79 226.671 1787.39 225.611 1785.4 223.466C1777.67 215.129 1770.21 206.54 1762.63 198.065C1761.84 197.178 1761.05 196.222 1759.57 195.75Z" fill="#100F0D"/>
<path fill-rule="evenodd" clip-rule="evenodd" d="M1787.73 159.155C1787.52 161.319 1788.83 162.719 1790.29 163.959C1800 172.22 1809.53 180.7 1819.72 188.383C1824.17 191.745 1825.38 191.903 1829.67 188.329C1835.91 183.132 1842.15 177.907 1848.05 172.33C1857.87 163.029 1868.7 155.01 1879.71 147.266C1891.2 139.192 1903.31 138.779 1915.14 146.296C1920.66 149.794 1924.97 154.931 1929.42 159.741C1943.95 175.428 1957.26 192.152 1970.83 208.653C1982.86 223.288 1994.49 238.256 2006.25 253.11C2015.99 265.399 2025.81 277.622 2036.42 289.18C2038.17 291.099 2039.81 293.071 2041.24 295.238C2044.19 299.679 2047.04 304.197 2050.88 307.958C2050.2 310.023 2048.29 310.366 2046.98 311.31C2041.55 315.19 2037.05 319.871 2033.92 325.802C2031.5 330.379 2028.99 334.913 2026.62 339.52C2022.55 347.415 2016.33 353.338 2009.26 358.449C1993.11 370.125 1979.57 384.266 1968.85 401.073C1963.05 410.166 1955.4 417.125 1945.93 422.315C1938.68 426.299 1931.43 430.393 1926.3 437.29C1924.46 439.771 1923.12 442.573 1921.17 445.344C1913.03 438.87 1903.75 434.537 1896.08 427.835C1883.99 417.264 1870.46 408.615 1857.51 399.186C1845.95 390.767 1834.21 382.607 1822.68 374.147C1807.13 362.733 1791.59 351.286 1776.27 339.565C1768.33 333.489 1760.32 327.337 1753.76 319.771C1746.42 311.312 1743.91 301.38 1747.61 290.334C1749.45 284.844 1752.89 280.273 1755.84 275.408C1763.5 262.802 1773.18 251.72 1782.2 240.14C1784.96 236.594 1787.8 233.098 1790.34 229.403C1792.89 225.717 1792.78 224.528 1789.88 221.146C1783.61 213.814 1777.21 206.583 1770.46 199.687C1768.29 197.47 1766.17 195.203 1764.03 192.96C1762.47 191.32 1760.9 189.692 1758.35 189.859C1753.73 192.242 1752.26 197.163 1749.54 201.024C1746.36 205.537 1743.89 210.53 1740.84 215.158C1739.73 216.85 1738.85 218.889 1736.45 219.231C1731.13 216.28 1726.74 212.081 1722.17 208.188C1716.53 203.388 1711.26 198.138 1706.46 192.45C1703.5 188.943 1703.43 188.592 1707.28 185.711C1713.92 180.746 1720.58 175.826 1727.24 170.891C1727.79 170.475 1728.41 170.151 1728.94 169.713C1733.58 165.898 1733.35 164.356 1728.38 160.874C1721.17 155.832 1713.46 151.589 1706.07 146.841C1704.13 145.589 1703.61 144.479 1704.67 142.238C1710.12 130.552 1718.01 120.887 1728.45 113.345C1731.24 111.332 1734.39 109.813 1737.27 107.929C1739.36 106.571 1740.59 107.181 1741.95 109.061C1747.07 116.199 1751.6 123.752 1757.13 130.599C1757.56 131.131 1757.83 131.795 1758.28 132.316C1760.59 135.03 1762.27 135.205 1764.55 132.273C1767.93 127.914 1770.96 123.279 1774.07 118.722C1776.79 114.724 1779.41 110.66 1782.07 106.63C1783.08 105.116 1784.25 104.479 1785.91 105.795C1797.04 114.593 1807.37 124.185 1815.78 135.686C1815.43 138.525 1812.94 139.403 1811.02 140.748C1804.41 145.377 1797.68 149.864 1791.43 154.989C1789.97 156.181 1788.39 157.241 1787.73 159.155Z" fill="#646668"/>
<path fill-rule="evenodd" clip-rule="evenodd" d="M1735.97 219.179C1741.77 210.166 1747.22 200.945 1753.74 192.386C1754.97 190.768 1756.5 189.775 1758.47 189.617C1753.72 195.287 1750.98 202.077 1747.06 208.223C1744.3 212.577 1742.71 217.546 1739.64 221.677C1737.77 221.447 1737 220.145 1735.97 219.179Z" fill="#3E3D3F"/>
<path fill-rule="evenodd" clip-rule="evenodd" d="M1787.28 159.053C1788.39 154.748 1791.85 152.253 1794.98 149.837C1801.43 144.862 1808.07 140.066 1815.26 136.083C1816.52 137.138 1817.79 138.175 1818.62 139.966C1813.99 143.286 1808.59 145.171 1803.92 148.206C1798.37 151.8 1792.04 154.305 1787.28 159.053Z" fill="#3E3D3F"/>
<path fill-rule="evenodd" clip-rule="evenodd" d="M1944.68 308.153C1953.13 306.529 1961.58 304.882 1970.05 303.287C1972.37 302.848 1974.16 301.949 1975.21 299.597C1976.58 296.559 1979.06 294.33 1981.49 292.149C1983.53 290.31 1985.87 289.316 1988.59 290.605C1991.45 291.948 1991.57 294.662 1991.57 297.259C1991.57 299.343 1990.92 301.359 1989.88 303.163C1989.04 304.589 1989.39 305.604 1990.3 306.891C1995.24 313.902 1995.02 315.291 1988.44 320.992C1986.72 322.129 1984.78 322.397 1982.99 321.533C1978.43 319.354 1973.91 320.174 1969.27 321.102C1959.26 323.118 1949.35 325.615 1939.35 327.671C1936.34 328.291 1935.01 329.919 1934.56 332.871C1932.81 344.161 1930.58 355.371 1929.05 366.699C1928.61 369.973 1929.53 372.791 1930.58 375.765C1932.62 381.6 1931.11 384.824 1925.52 387.309C1922.46 387.96 1919.67 387.568 1917.35 385.239C1915.63 383.497 1913.93 383.444 1911.84 384.864C1909.83 386.227 1907.48 386.783 1904.93 386.433C1899.87 385.748 1897.85 381.77 1900.66 377.467C1902.56 374.572 1904.89 371.847 1907.96 370.235C1910.86 368.709 1911.55 366.439 1911.92 363.541C1912.92 355.829 1914.14 348.146 1915.26 340.449C1913.61 334.314 1913.57 334.121 1907.52 335.162C1889.44 338.263 1871.23 340.636 1853.29 344.501C1851.02 344.989 1849.68 346.345 1848.33 347.953C1846.53 350.118 1844.57 352.073 1841.39 351.829C1840.19 351.97 1838.98 352.275 1837.79 352.228C1833.87 352.064 1830.97 348.824 1831.42 344.945C1831.61 343.253 1832.31 341.622 1832.83 339.975C1833.33 338.367 1835.74 337.309 1834.89 335.528C1834.21 334.098 1832.41 333.221 1831.18 332.027C1829.93 330.832 1828.59 329.716 1827.77 328.132C1825.53 323.729 1827.78 319.944 1832.72 320.12C1837.18 320.277 1841.11 322.078 1844.63 324.757C1845.6 325.485 1846.51 326.306 1847.35 327.181C1848.83 328.726 1850.4 328.901 1852.51 328.435C1867.88 325.059 1883.4 322.386 1898.71 318.703C1904.27 317.365 1909.96 316.802 1915.63 316.098C1920.47 315.492 1921.53 314.398 1921.84 309.458C1923.19 288.16 1928.25 267.411 1930.83 246.3C1931.15 243.728 1930.82 241.985 1928.91 240.368C1925.35 237.352 1923.19 233.433 1921.95 229.009C1920.87 225.128 1921.57 222.328 1923.94 221.134C1926.83 219.686 1929.34 220.805 1931.54 222.766C1933.46 224.488 1934.99 227.136 1937.2 227.899C1939.38 228.646 1941.06 225.523 1943.4 224.73C1949.9 222.527 1953.59 225.033 1953.87 232.187C1954.55 235.212 1953.5 237.87 1951.22 239.569C1947.42 242.383 1947.32 246.348 1946.52 250.447C1943.22 267.41 1942.81 284.721 1940.25 301.76C1939.67 305.64 1940.83 307.653 1944.68 308.153Z" fill="#100F0D"/>
<path fill-rule="evenodd" clip-rule="evenodd" d="M1894.51 310.612C1891.73 311.566 1889.5 310.633 1887.6 308.573C1885.63 306.433 1883.43 304.455 1881.78 302.091C1880.35 300.035 1878.9 299.868 1876.59 300.118C1862.9 301.596 1850.63 298.469 1841.55 287.422C1833.57 277.718 1831.54 266.546 1835.62 254.667C1842.25 235.387 1864.12 223.791 1885.32 234.669C1894.72 239.498 1900.38 247.921 1902.65 258.353C1903.63 262.877 1904.37 267.476 1903.6 272.098C1903.23 274.321 1904 275.482 1905.81 276.696C1908.35 278.4 1910.63 280.514 1912.95 282.537C1915.27 284.557 1916.11 286.959 1914.42 289.824C1910.41 297.168 1903.86 302.352 1898.48 308.526C1897.43 309.722 1895.97 310.186 1894.51 310.612Z" fill="#110F0E"/>
<path fill-rule="evenodd" clip-rule="evenodd" d="M1925.78 387.139C1931.64 381.515 1931.7 381.151 1928.05 373.226C1927.31 371.609 1926.96 370.07 1927.26 368.205C1929.28 355.737 1931.27 343.26 1932.95 330.731C1933.38 327.535 1934.8 326.558 1937.68 326.002C1949.92 323.629 1962.13 321.112 1974.3 318.449C1976.53 317.963 1978.41 318.357 1980.34 319.21C1982.93 320.357 1985.58 321.159 1988.41 321.12C1987.32 327.298 1984.12 329.49 1978.06 326.995C1974.08 325.364 1970.7 325.835 1966.95 326.681C1958.85 328.509 1950.72 330.226 1942.53 331.69C1940.4 332.073 1939.51 332.962 1939.14 334.835C1938.16 339.934 1937.22 345.044 1936.2 350.132C1935.04 355.897 1933.91 361.678 1932.55 367.391C1931.98 369.755 1932.14 371.933 1933.36 373.948C1934.52 375.884 1934.85 377.876 1934.65 379.983C1934.05 386.138 1932.3 387.523 1925.78 387.139Z" fill="#3F3E40"/>
<path fill-rule="evenodd" clip-rule="evenodd" d="M1842.17 351.862C1845 350.218 1847.57 348.225 1849.21 345.391C1850.12 343.828 1851.25 343.262 1852.91 343.288C1856.35 343.337 1859.67 342.515 1862.94 341.604C1874.28 338.452 1886.06 337.894 1897.57 335.726C1903.39 334.629 1909.19 333.306 1915.49 333.231C1915.85 335.86 1915.28 338.268 1914.85 340.68C1913.41 339.277 1911.73 339.68 1910.05 340.026C1893.1 343.545 1875.89 345.428 1858.79 348.005C1855.03 348.57 1851.63 348.722 1848.8 351.892C1847.22 353.659 1844.4 353.317 1842.17 351.862Z" fill="#3F3E40"/>
<path fill-rule="evenodd" clip-rule="evenodd" d="M1944.32 308.206C1942.51 308.62 1940.7 309.029 1938.46 309.534C1937.68 305.329 1938.5 301.447 1939 297.684C1940.32 288.021 1941.39 278.347 1942.12 268.637C1942.32 265.886 1942.77 263.223 1943.34 260.538C1944.04 257.188 1945.13 253.791 1945.06 250.444C1944.94 245.439 1946.55 241.702 1950.56 238.785C1952.46 237.401 1952.76 234.975 1953.7 232.985C1957.17 238.399 1957.11 239.268 1952.41 243.61C1951.54 244.419 1951.27 245.242 1951.24 246.284C1951.01 255.21 1949.01 263.895 1947.63 272.66C1946.25 281.435 1945 290.231 1943.92 299.042C1943.55 302.067 1943.43 305.191 1944.32 308.206Z" fill="#3F3E40"/>
<path fill-rule="evenodd" clip-rule="evenodd" d="M1894.82 310.844C1896.54 308.99 1898.69 307.471 1899.54 304.923C1899.89 303.872 1900.7 303.317 1901.66 302.887C1903.1 302.24 1904.26 301.136 1905.07 299.889C1907.68 295.885 1911.47 293.085 1914.88 289.901C1914.94 291.407 1913.67 292.712 1914.29 294.349C1914.58 295.138 1914.26 296.012 1913.74 296.744C1910.22 301.688 1906.3 306.305 1902 310.589C1899.79 312.807 1897.24 311.439 1894.82 310.844Z" fill="#3F3E40"/>
<path fill-rule="evenodd" clip-rule="evenodd" d="M1845.33 343.812C1843.4 345.426 1842.17 347.428 1839.91 348.186C1837.13 349.127 1835.44 347.841 1835.8 344.97C1836.09 342.623 1837.57 340.911 1838.98 339.138C1841.9 335.449 1841.75 334.52 1837.95 331.671C1836.03 330.225 1833.75 329.249 1832.2 327.32C1831.8 326.821 1831.14 326.374 1831.46 325.562C1831.89 324.514 1832.82 324.561 1833.64 324.716C1837.06 325.386 1840.64 326.146 1842.95 328.831C1847.31 333.885 1852.29 333.867 1858.34 332.482C1877.04 328.197 1895.86 324.495 1914.61 320.424C1925.25 318.111 1924.35 319.019 1926.09 308.398C1929.33 288.614 1932.27 268.782 1935.62 249.022C1936.4 244.479 1935.87 240.939 1932.26 237.932C1929.7 235.798 1927.93 233.019 1926.99 229.793C1926.53 228.246 1925.03 226.172 1926.95 225.199C1928.66 224.335 1929.77 226.623 1930.88 227.802C1932.05 229.047 1932.88 230.611 1934.03 231.884C1936.59 234.722 1937.49 234.729 1940.49 232.266C1941.82 231.175 1943.05 229.882 1944.55 229.09C1946.19 228.221 1948.25 227.367 1949.72 229.263C1950.93 230.83 1950.19 232.626 1949.12 234.054C1947.99 235.576 1946.81 237.152 1945.34 238.315C1942.81 240.308 1941.66 242.759 1941.73 245.923C1941.76 247.122 1941.67 248.376 1941.36 249.525C1937.11 265.352 1938.01 281.803 1935.27 297.809C1934.6 301.723 1934.5 305.731 1934.89 309.701C1935.29 313.695 1936.46 314.601 1940.27 313.668C1950.68 311.131 1961.16 308.921 1971.72 307.143C1974.93 306.604 1976.89 305.173 1978.11 301.986C1979.35 298.758 1981.55 295.963 1984.81 294.337C1986.47 293.511 1987.58 294.253 1987.29 296.059C1986.95 298.309 1985.78 300.249 1984.73 302.245C1982.63 306.225 1982.79 306.676 1986.33 309.401C1987.14 310.025 1987.99 310.699 1988.56 311.526C1990.09 313.756 1988.91 316.131 1986.18 316.285C1984.06 316.405 1982.14 315.467 1980.21 314.761C1978.4 314.105 1976.65 313.759 1974.67 314.157C1961.28 316.827 1947.86 319.25 1934.65 322.74C1931.83 323.484 1930.16 324.518 1929.53 327.612C1926.72 341.334 1924.89 355.202 1922.86 369.042C1922.53 371.248 1923.45 373.065 1924.23 374.981C1926.15 379.776 1926.14 382.135 1924.02 382.872C1920.76 384.006 1919.53 381.351 1918.03 379.265C1916.45 377.081 1914.44 377.564 1912.52 378.698C1910.44 379.93 1908.43 381.279 1906.11 382.059C1905.25 382.344 1904.31 382.4 1903.69 381.763C1902.98 381.041 1903.45 380.164 1903.85 379.38C1905.48 376.136 1908.15 373.847 1911.35 372.492C1914.38 371.209 1915.4 369.077 1915.76 366.121C1917.03 355.485 1918.66 344.901 1920.67 334.372C1921.41 330.477 1920.48 329.33 1916.52 329.137C1912.02 328.917 1907.55 329.485 1903.13 330.351C1894.64 332.019 1886.14 333.479 1877.51 334.13C1872.66 334.503 1867.99 335.806 1863.3 337.025C1860.29 337.806 1857.27 338.747 1854.21 339.036C1850.35 339.394 1847.11 340.43 1845.33 343.812Z" fill="#EFEFEE"/>
<path fill-rule="evenodd" clip-rule="evenodd" d="M1887.33 302.849C1884.4 297.061 1879.44 295.31 1872.51 296.1C1866.14 296.823 1859.68 295.63 1853.87 292.484C1840.68 285.329 1835.04 270.959 1839.7 256.024C1843.6 243.515 1854.37 235.097 1868.5 234.889C1881.79 234.689 1891.78 240.888 1896.9 253.593C1899.12 259.131 1899.89 265.009 1899.52 270.965C1899.27 275.023 1900.44 277.979 1903.98 280.147C1906.16 281.494 1908 283.403 1909.97 285.078C1910.86 285.839 1912.13 286.577 1911 288.002C1910.03 289.22 1908.95 290.599 1907.1 289.713C1905.7 289.048 1904.38 288.195 1903.04 287.416C1902.06 286.84 1901.01 286.7 1900.22 287.608C1899.43 288.508 1899.67 289.547 1900.42 290.412C1900.88 290.931 1901.41 291.379 1901.87 291.893C1904.1 294.384 1903.34 297.437 1900.22 298.724C1899.29 299.112 1898.54 298.875 1897.85 298.267C1897.08 297.582 1896.32 296.871 1895.54 296.181C1894.55 295.29 1893.4 294.869 1892.34 295.911C1891.49 296.743 1891.74 297.804 1892.38 298.75C1893.15 299.894 1893.89 301.056 1894.65 302.219C1895.93 304.209 1894.64 305.499 1893.27 306.643C1891.87 307.811 1891.14 306.46 1890.3 305.673C1889.42 304.843 1888.55 304.01 1887.33 302.849Z" fill="#F0F0EF"/>
<path fill-rule="evenodd" clip-rule="evenodd" d="M1881.88 248.904C1884.57 251.883 1886.19 254.85 1886.3 258.472C1886.45 263.162 1882.91 266.465 1878.21 265.945C1872.52 265.309 1867.45 259.261 1867.92 253.581C1868.21 250.036 1870.01 247.581 1873.38 246.394C1876.94 245.149 1879.66 246.831 1881.88 248.904Z" fill="#12100F"/>
<path fill-rule="evenodd" clip-rule="evenodd" d="M1851.77 267.722C1854.78 264.505 1859.29 264.258 1864.11 266.974C1868.28 269.318 1870.8 274.366 1869.64 278.236C1869.35 279.176 1868.82 280.089 1868.21 280.855C1865.8 283.854 1861.05 284.186 1856.49 281.763C1851.31 279.01 1848.91 275.148 1849.93 271.145C1850.27 269.82 1850.81 268.583 1851.77 267.722Z" fill="#12100F"/>
<path fill-rule="evenodd" clip-rule="evenodd" d="M1887.59 283.713C1883.7 287.739 1882.26 287.662 1879.56 283.102C1878.39 281.115 1877.36 279.025 1876.39 276.919C1875.81 275.649 1875.83 274.287 1876.97 273.117C1878.12 271.944 1879.49 271.91 1880.76 272.447C1883.2 273.475 1885.67 274.501 1887.95 275.806C1891.45 277.818 1891.53 279.332 1888.66 282.571C1888.32 282.96 1887.94 283.33 1887.59 283.713Z" fill="#131110"/>
<path fill-rule="evenodd" clip-rule="evenodd" d="M1879.82 252.566C1880.02 252.918 1880.92 254.182 1881.48 255.58C1882.22 257.42 1882.25 259.294 1880.43 260.666C1878.81 261.878 1877.15 261.254 1875.6 260.538C1873.75 259.688 1873.02 257.849 1872.28 256.159C1871.41 254.146 1871.29 252.127 1873.6 250.834C1875.64 249.688 1877.52 249.828 1879.82 252.566Z" fill="#3C3B3D"/>
<path fill-rule="evenodd" clip-rule="evenodd" d="M1863.15 271.111C1865.15 272.986 1865.8 275.71 1864.69 277.259C1863.25 279.276 1861.28 279.099 1859.23 278.349C1859.07 278.29 1858.93 278.201 1858.77 278.131C1856.63 277.086 1854.24 276.142 1854.05 273.362C1853.93 271.676 1854.47 269.889 1856.36 269.253C1859.12 268.325 1861.22 270.001 1863.15 271.111Z" fill="#3C3B3D"/>
<path fill-rule="evenodd" clip-rule="evenodd" d="M487.74 763.325C484.534 754.936 481.12 747.189 479.168 738.923C474.946 721.027 476.037 703.175 480.45 685.532C485.773 664.247 496.12 645.404 509.533 628.134C523.947 609.581 541.848 595.145 561.653 582.866C566.707 579.733 570.904 575.756 573.803 570.2C569.842 567.937 565.752 566.621 561.807 564.984C555.697 562.449 554.358 560.345 555.724 553.811C557.397 545.809 560.894 538.458 564.466 531.152C566.725 526.528 570.26 525.246 575.101 526.356C587.509 529.202 600.084 531.398 612.112 535.698C636.436 544.388 661.174 551.867 685.279 561.229C709.216 570.526 732.564 581.178 756.227 591.094C766.05 595.212 775.172 600.887 784.349 606.32C789.667 609.467 790.433 611.41 788.791 617.484C786.713 625.159 784.441 632.795 780.308 639.704C777.052 645.14 774.686 646.058 768.768 643.934C764.73 642.489 760.748 640.894 756.343 639.213C754.248 645.575 754.888 651.302 756.538 656.865C760.724 670.976 763.806 685.3 765.022 699.988C766.93 722.974 764.482 745.428 757.309 767.479C751.584 785.07 742.548 800.527 730.378 814.306C720.806 825.149 708.906 832.652 696.055 838.843C694.969 839.37 693.849 839.822 692.759 840.347C691.884 840.769 691.633 841.373 691.914 842.4C694.496 851.817 690.017 859.227 684.743 866.218C681.717 870.225 678.88 874.339 676.102 878.506C673.91 881.793 673.106 885.476 673.365 889.374C673.695 894.421 676.138 898.157 680.485 900.691C683.486 902.437 686.242 904.444 688.033 907.558C688.901 909.072 689.655 910.604 690.026 912.312C691.795 920.442 686.819 926.473 678.514 926.052C672.753 925.764 667.304 924.056 662.292 921.268C658.695 919.26 655.258 916.932 651.925 914.501C640.747 906.377 637.972 896.594 642.975 883.611C644.467 879.736 646.135 875.914 647.331 871.953C649.321 865.354 649.338 858.688 647.355 852.036C646.7 849.841 645.926 848.683 643.188 848.59C615.761 847.619 589.981 839.966 565.043 829.012C548.429 821.709 532.644 813.002 518.803 801.127C516.703 799.322 515.336 799.728 513.41 800.903C506.346 805.221 501.671 811.495 498.533 819.011C497.197 822.204 496.184 825.524 494.887 828.729C490.051 840.68 481.731 845.756 468.887 844.526C459.755 843.655 450.803 842.18 442.924 836.886C438.783 834.11 435.605 830.625 436.296 825.492C437.068 819.776 441.149 816.613 446.578 815.082C449.49 814.259 452.35 814.495 455.271 814.927C465.523 816.43 472.283 811.651 474.254 801.459C475.174 796.71 475.791 791.915 475.989 787.063C476.207 781.657 477.345 776.44 479.81 771.577C481.559 768.125 483.869 765.144 487.74 763.325Z" fill="#100F0D"/>
<path fill-rule="evenodd" clip-rule="evenodd" d="M685.522 550.55C678.291 547.75 675.049 540.597 677.729 533.342C680.501 525.824 688.678 521.799 695.665 524.509C702.523 527.171 706.024 535.721 702.863 543.176C699.884 550.211 692.683 554.028 685.522 550.55Z" fill="#F57732"/>
<path fill-rule="evenodd" clip-rule="evenodd" d="M732.085 538.464C737.845 539.959 738.801 546.398 737.524 550.502C735.941 555.587 729.238 558.67 724.187 556.801C719.364 555.022 717.354 550.25 719.261 545.114C721.489 539.108 726.625 536.446 732.085 538.464Z" fill="#F57733"/>
<path fill-rule="evenodd" clip-rule="evenodd" d="M658.914 510.485C664.857 512.657 667.449 518.557 665.055 524.472C663.229 528.981 657.951 531.399 653.434 529.796C647.785 527.798 644.778 521.744 646.751 516.352C648.612 511.271 653.978 508.681 658.914 510.485Z" fill="#F57733"/>
<path fill-rule="evenodd" clip-rule="evenodd" d="M619.281 507.13C617.118 506.382 615.551 503.338 616.186 501.116C616.855 498.774 620.149 496.983 622.512 497.674C624.949 498.391 626.64 501.654 625.777 503.992C624.927 506.31 621.582 507.928 619.281 507.13Z" fill="#F57A36"/>
<path fill-rule="evenodd" clip-rule="evenodd" d="M770.312 559.951C769.216 562.329 766.39 563.431 764.066 562.379C761.582 561.262 760.233 558.056 761.25 555.696C762.349 553.142 765.512 551.965 767.954 553.193C770.498 554.47 771.507 557.363 770.312 559.951Z" fill="#F57935"/>
<path fill-rule="evenodd" clip-rule="evenodd" d="M684.495 507.176C683.885 509.154 681.494 510.378 679.456 509.754C677.562 509.173 676.312 506.662 676.911 504.656C677.506 502.666 679.896 501.482 681.951 502.155C683.991 502.819 685.14 505.086 684.495 507.176Z" fill="#F57A37"/>
<path fill-rule="evenodd" clip-rule="evenodd" d="M722.75 521.942C721.916 523.964 719.492 525.064 717.542 524.295C715.614 523.539 714.56 521.057 715.305 519.018C716.105 516.826 718.166 515.957 720.462 516.847C722.739 517.737 723.647 519.755 722.75 521.942Z" fill="#F57A38"/>
<path fill-rule="evenodd" clip-rule="evenodd" d="M641.477 535.751C640.809 537.921 638.501 539.23 636.852 538.449C635.072 537.614 634.305 536.084 634.653 534.144C634.981 532.327 637.307 531.17 639.223 531.869C641.174 532.578 641.835 534.036 641.477 535.751Z" fill="#F57E3C"/>
<path fill-rule="evenodd" clip-rule="evenodd" d="M732.954 567.64C734.692 568.48 735.343 569.983 734.704 571.94C734.045 573.96 732.453 574.631 730.392 574.127C728.354 573.632 727.346 571.287 728.201 569.38C729.023 567.539 730.826 566.803 732.954 567.64Z" fill="#F57D3B"/>
<path fill-rule="evenodd" clip-rule="evenodd" d="M754.233 666.004C761.51 693.623 764.171 721.435 757.938 749.653C755.853 759.085 753.317 768.386 749.309 777.146C744.884 786.818 739.898 796.245 732.556 804.156C724.404 810.708 714.246 811.881 704.629 814.428C675.26 822.195 645.909 820.647 617.057 812.365C583.688 802.791 552.949 787.765 526.98 764.153C512.399 750.888 498.053 737.385 486.843 720.972C484.681 717.802 482.856 714.531 482.046 710.751C482.629 691.665 487.97 673.909 496.646 656.978C509 632.861 526.773 613.605 548.673 597.944C553.694 594.349 558.281 590.096 564.136 587.779C566.798 586.953 569.246 587.815 571.684 588.746C591.363 596.236 611.251 603.237 630.649 611.404C654.49 621.439 678.624 630.763 702.384 640.977C716.791 647.171 731.133 653.536 745.59 659.625C748.994 661.058 751.967 663.05 754.233 666.004Z" fill="#3F3E40"/>
<path fill-rule="evenodd" clip-rule="evenodd" d="M681.042 565.054C691.031 568.866 701.114 572.453 710.985 576.542C725.93 582.734 740.917 588.891 755.527 595.817C764.65 600.143 774.064 604.095 782.394 609.987C786.031 612.559 786.28 613.105 784.885 617.185C783.569 621.037 782.143 624.847 781.313 628.861C780.574 632.418 778.31 635.305 776.583 638.407C775.416 640.501 773.629 640.901 771.323 639.943C759.075 634.865 746.285 631.117 734.5 624.89C733.136 624.173 731.649 623.673 730.199 623.119C716.823 618.032 703.537 612.673 690.02 607.982C683.525 605.727 676.986 603.568 670.51 601.225C654.138 595.312 638.348 587.957 622.087 581.748C604.21 574.922 585.743 569.79 568.088 562.374C566.179 561.578 564.239 560.854 562.3 560.138C560.394 559.431 559.593 558.139 559.96 556.156C561.559 547.548 564.823 539.576 569.154 532.011C570.171 530.229 571.639 530.165 573.547 530.405C581.268 531.365 588.633 533.792 596.085 535.815C611.874 540.112 627.189 545.895 642.71 551.018C655.653 555.293 668.25 560.433 681.042 565.054Z" fill="#3F3E40"/>
<path fill-rule="evenodd" clip-rule="evenodd" d="M481.678 710.492C484.475 713.386 485.862 717.188 488.129 720.438C497.459 733.822 508.896 745.267 520.702 756.378C529.989 765.118 539.681 773.365 550.416 780.325C557.476 784.904 564.735 789.063 572.178 793.002C578.477 796.333 585.436 798.041 591.528 801.5C599.29 805.906 607.939 807.608 616.167 810.366C627.034 814.006 638.574 815.361 650.033 816.613C665.409 818.298 680.558 817.288 695.723 814.166C708.065 811.623 720.13 808.348 731.863 803.771C728.385 809.875 723.331 814.617 717.965 818.898C704.58 829.581 689.556 837.192 672.699 840.485C655.859 843.771 638.826 844.389 621.857 841.479C605.866 838.736 590.699 833.203 575.508 827.577C561.373 822.338 548.141 815.524 535.53 807.493C529.195 803.456 523.095 798.868 517.865 793.316C513.5 788.68 508.819 784.303 504.813 779.373C497.518 770.38 491.914 760.468 487.839 749.452C483.266 737.081 481.324 724.515 481.391 711.482C481.392 711.152 481.579 710.823 481.678 710.492Z" fill="#2D2C2C"/>
<path fill-rule="evenodd" clip-rule="evenodd" d="M753.617 665.435C745.476 660.197 735.649 658.612 727.516 653.353C727.09 653.073 726.591 652.896 726.104 652.731C712.223 648.09 699.136 641.507 685.656 635.906C670.417 629.576 654.793 624.149 639.79 617.352C615.772 606.469 590.724 598.323 566.355 588.401C565.56 588.073 564.777 587.716 563.988 587.37C568.306 582.721 573.692 579.005 576.424 572.967C576.933 571.835 577.972 571.896 579.079 572.001C581.854 572.259 584.454 573.089 587.035 574.074C633.196 591.687 679.362 609.278 725.522 626.884C731.477 629.153 737.419 631.445 743.353 633.761C744.789 634.32 746.236 634.914 747.572 635.679C751.952 638.186 751.753 638.204 751.188 643.473C750.712 647.927 750.519 652.43 751.673 656.863C752.409 659.696 752.975 662.579 753.617 665.435Z" fill="#2D2C2C"/>
<path fill-rule="evenodd" clip-rule="evenodd" d="M688.559 841.832C689.034 849.048 686.88 854.727 683.118 859.747C678.879 865.392 674.711 871.059 671.197 877.197C667.649 883.377 666.582 893.269 672.265 900C674.073 902.136 676.335 903.606 678.729 904.911C681.87 906.623 684.061 909.092 685.208 912.521C686.722 917.059 684.686 920.163 679.936 920.158C675.437 920.149 671.042 919.108 667.216 916.801C662.411 913.907 657.809 910.642 653.28 907.32C647.646 903.183 644.516 896.345 647.983 888.137C649.456 884.643 650.687 881.042 652.192 877.561C655.82 869.153 656.344 860.517 654.014 851.798C652.943 847.794 653.958 847.848 656.853 847.758C667.472 847.413 677.829 845.477 688.559 841.832Z" fill="#3E3D3F"/>
<path fill-rule="evenodd" clip-rule="evenodd" d="M470.744 837.792C465.259 837.78 459.88 836.806 454.542 835.721C450.293 834.861 446.603 832.633 443.311 829.839C440.529 827.485 440.442 824.619 443.031 821.954C444.764 820.173 446.974 819.31 449.462 819.228C451.691 819.154 453.857 819.559 456.046 820.013C467.601 822.379 475.425 814.6 477.875 805.635C479.675 799.053 480.781 792.394 480.794 785.569C480.799 783.14 481.321 780.863 482.302 778.669C485.18 778.193 486.076 780.61 487.33 782.278C497.224 795.428 496.473 791.948 491.101 806.284C489.524 810.492 488.994 814.834 488.419 819.212C486.937 830.496 481.926 835.73 470.744 837.792Z" fill="#3F3E40"/>
<path fill-rule="evenodd" clip-rule="evenodd" d="M470.858 837.955C472.59 836.463 474.791 835.888 476.784 834.91C482.444 832.129 486.139 827.596 486.646 821.392C487.325 813.032 489.502 805.172 492.934 797.636C494.35 794.526 493.912 792.383 491.692 789.803C488.493 786.096 486.081 781.726 482.676 778.143C482.047 773.695 484.939 770.788 487.423 767.814C488.651 766.34 490.209 766.739 491.223 768.393C492.295 770.148 493.227 771.991 494.345 773.716C498.095 779.489 502.399 784.802 507.413 789.533C508.895 790.925 510.171 792.541 511.772 794.306C509.082 796.309 506.431 797.887 504.261 799.975C499.249 804.784 495.221 810.299 493.062 817.071C491.806 821.009 490.232 824.85 488.708 828.7C485.737 836.192 479.037 839.637 470.858 837.955Z" fill="#2D2C2C"/>
<path fill-rule="evenodd" clip-rule="evenodd" d="M611.733 745.057C607.851 743.576 603.948 742.151 600.099 740.593C596.201 739.02 595.802 738.191 597.177 734.368C598.634 730.315 600.101 726.252 601.863 722.33C603.119 719.533 602.723 717.551 600.397 715.516C589.557 706.021 586.122 693.82 588.243 680.058C589.852 669.607 593.162 659.722 600.248 651.409C611.317 638.42 625.316 633.079 642.199 635.047C663.553 637.54 683.035 656.281 682.769 681.312C682.603 697.16 676.45 710.544 664.883 721.056C657.933 727.37 649.566 731.53 639.481 730.538C635.849 730.183 634.572 731.196 633.818 735.071C633.085 738.837 631.759 742.356 630.357 745.866C628.559 750.37 627.352 750.912 622.894 749.303C619.151 747.947 615.451 746.476 611.733 745.057Z" fill="#100F0D"/>
<path fill-rule="evenodd" clip-rule="evenodd" d="M596.031 668.884C602.737 650.947 619.762 640.19 638.652 640.666C657.828 641.142 676.067 659.592 676.47 680.276C676.723 693.113 672.603 704.244 664.633 713.94C658.357 721.578 649.886 725.683 639.841 725.905C634.929 726.003 631.589 727.433 630.097 732.42C629.07 735.855 627.405 739.094 626.097 742.448C625.434 744.151 624.979 745.516 622.466 744.625C619.787 743.674 620.128 742.263 620.86 740.272C622.039 737.056 623.079 733.78 624.095 730.509C624.388 729.571 624.791 728.351 623.553 727.789C622.051 727.106 621.408 728.256 620.933 729.409C619.504 732.901 618.038 736.38 616.697 739.903C615.803 742.253 614.305 741.719 612.527 741.099C610.616 740.431 610.234 739.441 610.953 737.599C612.204 734.41 613.273 731.146 614.372 727.9C614.798 726.643 615.702 724.943 614.084 724.257C612.157 723.443 611.513 725.376 610.936 726.759C609.676 729.763 608.449 732.782 607.334 735.845C606.689 737.623 605.827 738.296 603.876 737.49C602.065 736.737 600.828 736.067 601.757 733.754C603.289 729.934 604.338 725.91 606.072 722.198C607.954 718.177 606.703 715.173 603.682 712.597C600.589 709.967 598.339 706.845 596.463 703.263C592.261 695.245 591.304 686.981 593.387 678.277C594.145 675.106 594.867 671.934 596.031 668.884Z" fill="#F0F0EF"/>
<path fill-rule="evenodd" clip-rule="evenodd" d="M639.976 682.745C642.654 675.655 650.848 672.226 658.294 675.081C665.462 677.833 668.956 685.743 666.11 692.789C663.357 699.609 655.254 702.857 647.995 700.05C641.196 697.418 637.466 689.378 639.976 682.745Z" fill="#11100E"/>
<path fill-rule="evenodd" clip-rule="evenodd" d="M606.495 669.51C609.226 662.55 616.566 659.186 623.399 661.764C630.594 664.476 634.358 672.643 631.575 679.509C628.879 686.165 620.996 689.733 614.46 687.252C607.134 684.479 603.659 676.739 606.495 669.51Z" fill="#11100E"/>
<path fill-rule="evenodd" clip-rule="evenodd" d="M623.768 714.352C614.629 710.23 615.249 708.116 619.963 701.891C621.513 699.845 623.166 697.865 625.32 696.447C629.136 693.935 632.579 695.328 633.58 699.904C634.427 703.78 634.215 707.721 633.168 711.577C632.224 715.053 631.168 715.696 627.686 715.182C626.212 714.962 624.764 714.567 623.768 714.352Z" fill="#12100F"/>
<path fill-rule="evenodd" clip-rule="evenodd" d="M650.133 695.514C645.018 693.582 642.942 689.211 644.766 684.22C646.516 679.417 650.744 677.584 655.739 679.458C661.027 681.446 663.326 685.79 661.61 690.559C659.857 695.427 655.207 697.434 650.133 695.514Z" fill="#3F3E40"/>
<path fill-rule="evenodd" clip-rule="evenodd" d="M615.809 682.334C611.001 680.529 608.468 675.114 610.342 670.658C611.941 666.86 617.385 664.88 621.774 666.496C626.604 668.281 628.566 672.491 627.139 677.091C625.961 680.88 619.426 684.576 615.809 682.334Z" fill="#3F3E40"/>
<path fill-rule="evenodd" clip-rule="evenodd" d="M630.217 711.119C626.513 710.045 623.594 709.22 620.933 707.4C622.128 704.641 624.273 702.965 626.202 701.124C626.947 700.414 627.795 699.715 628.92 700.274C629.996 700.81 630.046 701.919 630.077 702.925C630.154 705.423 630.169 707.923 630.217 711.119Z" fill="#3C3B3D"/>
<path fill-rule="evenodd" clip-rule="evenodd" d="M689.799 116.822C685.014 110.31 681.404 103.644 678.539 96.5373C672.002 80.339 670.368 63.8252 674.771 46.8173C675.582 43.6955 676.769 40.7463 678.292 37.931C678.957 36.7019 679.294 35.8418 678.003 34.6366C669.539 26.7055 666.132 16.2092 663.908 5.33193C662.602 -1.04861 661.201 -7.46785 661.005 -14.0627C660.885 -18.0773 661.002 -22.0532 661.637 -25.9994C662.176 -29.3742 663.643 -30.6419 666.937 -29.6956C680.847 -25.7256 694.193 -20.9283 704.284 -9.50043C711.347 -1.5069 716.385 7.30798 719.187 17.4502C719.84 19.8221 720.785 20.0096 722.881 19.5542C731.588 17.6526 740.344 17.6674 749.052 19.5036C751.312 19.9798 752.343 19.8697 753.082 17.2449C754.859 10.9506 757.28 4.90041 760.938 -0.661731C769.052 -13.0032 780.005 -21.5532 794.025 -26.2077C797.665 -27.4159 801.171 -29.0438 804.984 -29.6985C808.722 -30.3413 809.944 -29.4545 810.615 -25.7851C811.661 -20.0563 811.477 -14.2859 810.701 -8.59575C809.297 1.69227 807.377 11.9059 803.377 21.5719C801.338 26.5121 798.038 30.6487 794.365 34.458C793.31 35.5532 793.083 36.2704 793.757 37.7167C800.944 53.1413 801.555 69.0689 797.298 85.3803C794.365 96.6296 789.625 107.004 782.461 116.688C784.098 116.771 785.001 115.878 785.928 115.277C802.008 104.933 819.528 97.4569 837.031 89.9931C848.594 85.0648 860.677 82.1781 873.439 82.7585C881.002 83.1007 887.757 85.8505 894.387 89.0616C896.42 90.0437 897.929 91.7847 899.348 93.5316C910.074 106.671 916.543 121.616 920.165 138.219C926.33 166.471 926.756 194.926 925.305 223.57C924.905 231.386 924.386 239.165 922.902 246.861C922.651 248.152 922.627 249.488 921.113 249.911C919.384 250.39 918.388 249.318 917.73 247.944C915.932 244.2 914.045 240.489 912.462 236.662C908.887 228.026 903.826 220.285 898.546 212.652C896.513 209.717 893.952 207.324 891.093 205.253C887.802 202.858 885.322 203.089 882.675 206.126C879.482 209.764 877.103 213.902 875.588 218.532C872.762 227.181 869.909 235.82 867.03 244.454C866.523 245.956 865.992 247.519 865.137 248.828C863.804 250.864 861.947 250.864 860.438 248.962C859.75 248.093 859.267 247.058 858.742 246.072C855.484 240.016 852.658 233.761 850.055 227.397C848.41 223.389 846.359 219.598 843.285 216.46C837.403 210.476 828.269 210.994 823.174 217.708C820.163 221.687 818.002 226.145 816.553 230.928C816.187 232.151 815.918 233.41 815.477 234.602C814.207 238.04 812.338 238.54 809.944 235.856C807.267 232.859 804.525 230.011 801.215 227.689C796.478 224.362 791.563 224.493 786.742 227.061C781.17 230.032 776.571 234.242 772.954 239.457C770.394 243.141 768.307 247.084 766.363 251.125C759.074 266.282 753.682 282.138 748.617 298.134C745.874 306.803 743.161 315.502 739.551 323.873C739.301 324.457 739.083 325.065 738.865 325.666C738.379 327.013 737.423 327.793 735.989 327.755C734.534 327.713 733.723 326.766 733.225 325.466C732.426 323.38 731.487 321.345 730.775 319.231C726.625 306.982 722.392 294.763 718.448 282.453C714.489 270.091 709.317 258.25 703.59 246.644C699.631 238.611 694.023 231.907 686.091 227.422C680.754 224.404 675.514 224.282 670.392 228.076C667.539 230.19 665.071 232.653 662.734 235.299C659.717 238.706 657.83 238.326 656.536 233.933C654.992 228.689 653.081 223.654 650.01 219.089C644.209 210.453 634.04 209.928 627.467 218.036C624.826 221.285 622.977 225.02 621.463 228.906C619.141 234.873 616.332 240.608 613.342 246.26C612.821 247.248 612.332 248.29 611.625 249.135C610.233 250.804 608.567 250.756 607.189 249.057C606.057 247.661 605.648 245.906 605.097 244.248C602.217 235.617 599.361 226.975 596.523 218.326C595.107 214.018 592.892 210.155 589.997 206.687C586.876 202.95 584.482 202.738 580.535 205.661C577.28 208.074 574.743 211.111 572.394 214.381C566.011 223.27 561.167 232.956 556.874 242.962C556.117 244.721 555.222 246.42 554.355 248.128C553.738 249.349 552.823 250.242 551.329 249.974C549.779 249.694 549.502 248.468 549.311 247.12C545.492 220.113 545.066 193.005 547.573 165.902C548.87 151.915 551.809 138.136 555.631 124.574C558.317 115.042 563.659 106.965 568.918 98.7128C576.281 87.151 587.32 83.5828 599.936 82.812C611.521 82.1008 622.584 84.8446 633.128 89.2164C651.003 96.6206 668.794 104.254 685.223 114.646C686.499 115.45 687.689 116.518 689.799 116.822Z" fill="#100F0D"/>
<path fill-rule="evenodd" clip-rule="evenodd" d="M602.602 221.902C601.102 219.412 600.708 216.516 599.653 213.863C597.798 209.185 595.168 205.054 591.426 201.679C587.385 198.041 582.229 197.808 577.84 201.045C567.755 208.481 561.698 218.918 556.42 229.903C555.332 232.167 554.55 234.582 553.104 236.668C551.27 235.924 551.708 234.481 551.688 233.327C551.592 228.066 551.637 222.801 551.527 217.537C551.389 211.016 551.148 204.493 550.817 197.966C549.943 180.695 552.308 163.677 555.728 146.779C556.867 141.171 557.732 135.509 559.295 129.987C559.766 128.318 559.986 126.554 561.114 125.126C564.099 119.021 569.672 115.772 575.284 112.746C588.33 105.709 602.044 102.936 616.913 105.837C637.068 109.771 656.666 115.275 675.36 123.867C683.05 127.399 690.92 130.547 698.998 133.108C701.38 133.864 703.915 134.897 706.184 132.698C705.221 128.815 702.126 126.31 699.979 123.204C695.905 117.307 691.176 111.904 687.616 105.596C682.832 97.1256 680.14 88.0541 678.44 78.5957C676.818 69.5658 676.851 60.5419 678.407 51.4941C679.248 46.579 680.751 41.89 682.996 37.4688C684.07 35.3623 683.846 34.196 681.819 32.7589C677.271 29.5219 674.223 24.934 672.336 19.7809C667.589 6.83552 664.484 -6.45797 664.92 -20.3792C665.057 -24.6993 665.406 -25.0831 669.267 -23.7799C678.512 -20.6529 687.729 -17.3385 695.133 -10.6828C702.442 -4.11344 708.412 3.52402 712.083 12.7562C713.085 15.2733 713.967 17.838 714.937 20.37C716.472 24.3657 717.567 25.0203 721.825 24.3925C723.086 24.208 724.321 23.8629 725.564 23.5773C733.04 21.8576 740.439 22.3306 747.87 24.0325C754.078 25.4576 754.982 24.1307 756.744 19.1293C758.283 14.7973 759.848 10.4713 762.156 6.38327C770.333 -8.10326 782.488 -17.4723 798.185 -22.5392C799.861 -23.0807 801.498 -23.7382 803.183 -24.2232C805.157 -24.7915 806.269 -24.0893 806.227 -21.9055C806.117 -16.3388 806.561 -10.775 805.347 -5.22619C803.684 2.39344 802.455 10.0964 799.732 17.4661C797.475 23.5892 794.386 29.0815 789.042 32.988C787.432 34.1692 787.083 35.151 787.951 36.9451C794.94 51.3662 794.934 66.3674 792.14 81.7882C789.286 97.5511 781.465 110.63 771.532 122.746C769.313 125.459 767.1 128.184 764.882 130.907C763.874 134.325 766.576 133.733 768.195 133.659C771.946 133.474 775.283 131.784 778.575 130.124C794.013 122.341 809.507 114.668 825.726 108.619C837.622 104.183 849.931 101.312 862.554 99.8569C876.387 98.2562 887.698 104.739 898.913 111.335C903.079 113.787 906.708 116.932 909.013 121.32C911.942 128.11 913.376 135.316 914.658 142.516C916.152 150.975 918.105 159.359 919.003 167.925C920.237 179.826 920.941 191.697 920.014 203.696C919.298 212.91 919.695 222.208 919.519 231.467C919.492 233.146 920.026 234.99 918.484 236.757C916.596 235.297 915.997 233.104 915.284 231.158C912.123 222.461 906.473 215.29 901.105 207.966C898.821 204.854 895.618 202.602 892.472 200.423C888.775 197.874 883.502 198.365 880.013 201.444C875.985 205.008 873.095 209.367 871.36 214.464C868.941 221.563 866.544 228.661 864.114 235.749C863.619 237.195 863.574 238.903 861.716 239.926C858.528 235.451 856.742 230.351 854.702 225.41C852.6 220.314 849.642 215.868 845.756 211.979C838.632 204.845 828.249 205.485 821.638 211.724C817.213 215.898 814.642 221.185 812.173 226.562C811.789 227.403 811.917 228.516 810.554 229.153C808.616 227.594 806.49 226.008 804.498 224.271C797.451 218.12 789.862 218.885 782.186 222.652C776.485 225.451 772.104 229.869 768.389 234.978C759.034 247.825 753.756 262.549 748.806 277.402C745.532 287.23 742.621 297.178 739.454 307.039C738.294 310.663 737.668 314.48 735.372 318.488C732.939 310.939 730.661 303.9 728.391 296.854C723.704 282.291 719.723 267.479 713.335 253.505C709.134 244.314 704.365 235.505 696.94 228.391C694.367 225.927 691.525 223.797 688.361 222.333C679.502 218.239 672.342 218.671 664.195 226.115C663.032 227.18 661.875 228.251 660.426 229.587C656.212 220.649 652.729 211.504 642.865 207.57C640.968 206.778 639.06 206.082 637.244 205.05C628.176 199.903 618.096 202.004 611.629 210.253C609.562 212.896 607.764 215.702 606.145 218.641C605.363 220.06 604.955 222.099 602.602 221.902Z" fill="#3F3E40"/>
<path fill-rule="evenodd" clip-rule="evenodd" d="M706.622 132.893C707.253 134.253 708.075 135.721 705.52 135.876C703.76 135.98 702.072 135.778 700.345 135.211C691.239 132.213 682.275 128.837 673.693 124.586C663.182 119.381 651.929 116.363 640.822 112.917C633.223 110.561 625.433 108.986 617.598 107.519C597.299 103.716 579.87 109.261 564.722 122.922C563.778 123.769 563.024 124.858 561.756 125.302C562.378 119.611 564.886 114.567 567.765 109.839C570.624 105.144 573.518 100.536 577.964 96.7746C584.464 91.2773 591.659 89.1804 599.824 88.727C614.436 87.9187 627.782 92.4913 640.813 98.2361C649.844 102.215 658.998 105.971 667.723 110.639C675.73 114.919 683.77 119.152 691.28 124.303C694.705 126.65 698.293 128.756 702.244 130.066C704.01 130.65 704.984 132.237 706.622 132.893Z" fill="#2D2C2C"/>
<path fill-rule="evenodd" clip-rule="evenodd" d="M909.317 121.577C906.919 120.204 905.42 117.824 903.252 116.183C895.535 110.365 887.018 106.123 877.895 102.935C871.946 100.856 866.016 101.24 859.95 101.964C851.054 103.03 842.468 105.381 833.859 107.734C825.333 110.061 817.407 113.802 809.356 117.255C798.486 121.923 787.962 127.345 777.405 132.677C774.676 134.056 771.77 134.998 768.849 135.733C765.699 136.526 764.083 134.452 764.976 131.176C765.105 131.759 765.179 132.692 766.015 132.281C774.01 128.319 781.592 123.627 789.204 118.98C800.263 112.223 811.936 106.638 823.84 101.526C827.805 99.8221 831.783 98.1629 835.725 96.4172C843.654 92.908 851.935 90.2895 860.473 89.2677C869.178 88.2191 878.042 88.1178 886.43 91.7611C891.381 93.9089 895.64 97.3526 898.731 101.401C903.327 107.424 907.654 113.889 909.317 121.577Z" fill="#2D2C2C"/>
<path fill-rule="evenodd" clip-rule="evenodd" d="M602.537 221.78C605.518 217.691 607.472 213.006 610.779 209.053C618.78 199.49 631.317 198.265 640.345 205.136C641.357 205.908 642.326 206.728 643.317 207.526C640.892 207.518 638.463 207.441 636.038 207.5C629.557 207.666 625.385 211.477 621.882 216.261C617.125 222.771 614.881 230.488 611.241 237.537C610.737 238.519 610.498 239.625 609.335 240.634C607.025 237.877 606.681 234.379 605.515 231.272C604.349 228.171 603.512 224.948 602.537 221.78Z" fill="#2D2C2C"/>
<path fill-rule="evenodd" clip-rule="evenodd" d="M759.171 107.403C756.873 117.687 743.826 120.828 738.814 116.224C737.129 114.678 735.855 114.083 733.546 115.788C726.26 121.169 715.758 117.29 712.829 108.175C714.927 107.746 715.996 109.44 717.296 110.299C720.296 112.285 723.356 113.799 727.1 113.523C728.757 113.399 730.228 112.898 731.481 111.841C733.537 110.091 733.552 108.874 731.525 107C728.305 104.033 726.632 100.432 726.719 96.0169C726.763 94.0211 727.418 92.801 729.54 92.2532C733.983 91.1132 738.344 91.1221 742.757 92.3628C744.4 92.8247 745.099 93.8049 745.192 95.4276C745.477 100.014 743.882 103.811 740.513 106.929C738.355 108.922 738.361 110.387 740.763 112.046C744.144 114.376 747.778 113.958 751.224 112.244C753.745 110.988 756.061 109.315 759.171 107.403Z" fill="#11100E"/>
<path fill-rule="evenodd" clip-rule="evenodd" d="M696.747 56.2047C709.478 55.9622 716.57 60.3032 721.697 68.0181C722.837 69.7391 723.64 71.67 724.656 73.4768C727.23 78.0425 725.205 79.4944 721.294 80.8901C708.574 85.4292 696.331 76.972 692.92 66.649C692.772 66.1995 692.735 65.7146 692.611 65.2562C690.476 57.1805 691.247 56.2106 696.747 56.2047Z" fill="#11100E"/>
<path fill-rule="evenodd" clip-rule="evenodd" d="M757.501 82.1063C754.785 82.3338 751.716 81.5773 748.819 80.1527C746.979 79.2513 745.526 77.8771 746.516 75.631C748.94 70.1132 751.606 64.8319 756.666 60.981C762.701 56.3794 769.485 55.874 776.596 56.3292C778.8 56.4651 779.567 57.8158 779.561 59.8461C779.531 65.4614 777.74 70.5329 773.898 74.5729C769.666 79.0208 764.642 82.3161 757.501 82.1063Z" fill="#110F0E"/>
<path fill-rule="evenodd" clip-rule="evenodd" d="M800.878 -10.2266C800.22 3.06287 796.306 14.2669 789.02 24.2017C787.513 26.2541 785.728 28.1534 783.453 29.4227C780.968 30.8209 779.863 30.4819 778.422 28.0334C776.53 24.8138 776.536 24.8349 772.825 25.9601C771.916 26.2331 770.951 26.2991 770.013 26.4611C764.633 27.3613 763.987 26.4491 765.336 20.9521C768.035 9.95813 774.79 1.84467 783.22 -5.09559C786.67 -7.93711 790.307 -10.5476 793.896 -13.2241C794.653 -13.7912 795.508 -14.2803 796.38 -14.6403C798.912 -15.6905 799.672 -15.2735 800.372 -12.555C800.658 -11.4778 800.848 -10.3706 800.878 -10.2266Z" fill="#110F0E"/>
<path fill-rule="evenodd" clip-rule="evenodd" d="M707.268 23.7088C707.262 26.3319 706.361 27.1483 703.967 26.8992C702.867 26.7821 701.689 26.7281 700.698 26.2839C697.147 24.6902 694.25 24.3211 692.849 29.0871C692.415 30.5547 690.771 30.3746 689.521 29.9094C687.683 29.2311 686.271 27.8956 685.007 26.44C677.333 17.6043 672.988 7.27407 671.759 -4.37372C671.468 -7.18588 670.591 -9.95301 671.581 -12.9212C672.256 -14.9531 673.163 -15.5713 675.01 -14.926C675.905 -14.6169 676.819 -14.2118 677.562 -13.6355C683.859 -8.74951 690.461 -4.25067 695.972 1.63175C701.466 7.50516 704.996 14.375 706.977 22.1302C707.132 22.7544 707.209 23.3907 707.268 23.7088Z" fill="#110F0E"/>
<path fill-rule="evenodd" clip-rule="evenodd" d="M703.941 73.8049C698.101 70.4842 697.346 64.9245 696.146 59.3734C699.452 58.3353 702.316 59.5857 705.22 60.2138C706.01 60.3883 706.662 61.0454 706.172 61.9149C704.163 65.5002 704.038 69.4839 703.941 73.8049Z" fill="#F2C724"/>
<path fill-rule="evenodd" clip-rule="evenodd" d="M712.439 64.5366C716.746 66.8604 718.949 70.583 720.937 74.5013C721.518 75.6448 720.946 76.2832 719.983 76.5244C717.298 77.1883 714.581 77.7643 711.786 77.3983C710.685 77.2507 709.607 76.9102 710.234 75.3667C711.601 71.9846 711.59 68.3159 712.439 64.5366Z" fill="#F5CA24"/>
<path fill-rule="evenodd" clip-rule="evenodd" d="M775.854 59.1396C774.931 64.9419 773.749 70.2263 768.079 73.8049C767.883 69.5819 767.972 65.7473 765.994 62.3557C765.201 61.0008 765.905 60.342 767.15 60.0687C769.829 59.4819 772.475 58.6103 775.854 59.1396Z" fill="#F2C724"/>
<path fill-rule="evenodd" clip-rule="evenodd" d="M749.902 75.9082C752.073 70.2994 753.922 68.0246 759.286 64.5366C760.342 68.407 760.42 72.3117 761.853 75.9367C762.341 77.1755 760.894 77.3953 759.998 77.4467C756.515 77.6465 753.073 77.4581 749.902 75.9082Z" fill="#F5CA24"/>
<path fill-rule="evenodd" clip-rule="evenodd" d="M767.512 22.6905C772.07 6.90102 784.31 -1.88194 797.003 -10.5365C798.543 -9.19767 798.069 -7.36287 797.871 -5.84022C796.321 5.92678 791.201 16.1682 783.43 25.2137C781.872 27.0222 780.58 27.0222 779.875 24.9307C778.851 21.8446 776.638 22.0634 774.169 21.9759C772.076 21.9 770.206 23.2768 767.512 22.6905Z" fill="#282726"/>
<path fill-rule="evenodd" clip-rule="evenodd" d="M674.695 -11.4634C687.732 -2.57812 699.963 6.52202 704.488 22.5465C701.821 23.4151 699.801 21.7228 697.543 21.8839C695.234 22.0511 693.232 21.8839 692.194 24.7552C691.339 27.113 690.096 27.0683 688.356 24.988C680.815 15.9654 675.854 5.74305 674.117 -5.90001C673.87 -7.57439 673.62 -9.37413 674.695 -11.4634Z" fill="#282726"/>
</g>
<defs>
<filter id="filter0_f_6_193" x="-461" y="-518" width="1468" height="1468" filterUnits="userSpaceOnUse" color-interpolation-filters="sRGB">
<feFlood flood-opacity="0" result="BackgroundImageFix"/>
<feBlend mode="normal" in="SourceGraphic" in2="BackgroundImageFix" result="shape"/>
<feGaussianBlur stdDeviation="150" result="effect1_foregroundBlur_6_193"/>
</filter>
<filter id="filter1_f_6_193" x="521.553" y="-473.958" width="1900.5" height="1223.29" filterUnits="userSpaceOnUse" color-interpolation-filters="sRGB">
<feFlood flood-opacity="0" result="BackgroundImageFix"/>
<feBlend mode="normal" in="SourceGraphic" in2="BackgroundImageFix" result="shape"/>
<feGaussianBlur stdDeviation="150" result="effect1_foregroundBlur_6_193"/>
</filter>
<clipPath id="clip0_6_193">
<rect width="1920" height="1080" fill="white"/>
</clipPath>
</defs>
</svg>
