<svg width="1920" height="1080" viewBox="0 0 1920 1080" fill="none" xmlns="http://www.w3.org/2000/svg">
<g clip-path="url(#clip0_8_13)">
<rect width="1920" height="1080" fill="#525765"/>
<g filter="url(#filter0_f_8_13)">
<ellipse cx="662.741" cy="190.727" rx="662.741" ry="190.727" transform="matrix(0.999361 -0.0357333 0.0153623 0.999882 -341 682.364)" fill="#B8BBC3"/>
</g>
<g filter="url(#filter1_f_8_13)">
<ellipse cx="662.741" cy="190.727" rx="662.741" ry="190.727" transform="matrix(0.999361 -0.0357333 0.0153623 0.999882 777 729.655)" fill="#B8BBC3"/>
</g>
<path fill-rule="evenodd" clip-rule="evenodd" d="M387.659 230.172C380.541 226.555 371.852 229.395 368.24 236.494L361.719 249.349C358.116 256.453 360.97 265.141 368.085 268.733L372.092 270.777L-33.8503 1070.97C-37.4667 1078.08 -34.6155 1086.74 -27.4878 1090.36L28.227 1118.58C35.3442 1122.19 44.0401 1119.37 47.6356 1112.25L453.599 312.068L457.6 314.097C464.725 317.693 473.41 314.863 477.019 307.774L483.544 294.909C487.132 287.812 484.288 279.128 477.182 275.515L387.659 230.172Z" fill="#080808"/>
<path fill-rule="evenodd" clip-rule="evenodd" d="M98.2175 345.276C91.1055 341.657 82.4129 344.518 78.7909 351.644L33.3725 441.313C29.7467 448.45 32.5864 457.137 39.7089 460.759L52.5803 467.277C59.7029 470.899 68.3955 468.039 72.0069 460.909L75.8087 453.42L479.948 658.416L476.152 665.92C472.534 673.036 475.366 681.744 482.493 685.356L495.371 691.888C502.487 695.496 511.186 692.649 514.783 685.526L560.226 595.855C563.838 588.724 560.995 580.013 553.886 576.419L541.001 569.873C533.896 566.268 525.197 569.114 521.592 576.259L517.794 583.737L113.651 378.751L117.446 371.248C121.054 364.128 118.211 355.416 111.106 351.812L98.2175 345.276Z" fill="#080808"/>
<path fill-rule="evenodd" clip-rule="evenodd" d="M293.432 209.632C291.969 208.873 269.999 191.454 255.755 192.781C241.531 194.116 227.989 203.092 227.989 203.092L234.183 202.44C234.183 202.44 243.378 212.808 249.916 218.225C256.464 223.645 272.717 230.8 282.579 229.348C292.447 227.909 294.885 210.389 293.432 209.632Z" fill="#FC9F07"/>
<path fill-rule="evenodd" clip-rule="evenodd" d="M228.149 202.65C228.149 202.65 239.717 199.497 248.543 202.121C257.365 204.756 282.244 213.835 282.244 213.835L277.488 215.115C277.488 215.115 252.841 205.949 248.272 204.373C243.706 202.788 236.172 201.311 228.149 202.65Z" fill="#12130F"/>
<path fill-rule="evenodd" clip-rule="evenodd" d="M275.497 223.35C275.497 223.35 270.414 224.485 261.978 222.765C253.553 221.048 246.048 214.559 246.048 214.559C246.048 214.559 263.397 231.182 273.843 229.873C284.306 228.583 275.497 223.35 275.497 223.35Z" fill="#12130F"/>
<path fill-rule="evenodd" clip-rule="evenodd" d="M-9.54982 195.787L20.5756 203.412L8.37223 195.437L19.3227 197.046L82.937 221.572C82.937 221.572 132.429 214.459 179.398 222.83C226.353 231.207 273.55 233.822 273.55 233.822L275.21 225.93L274.334 215.931L285.085 212.503L272.061 206.675C272.061 206.675 284.66 207.467 283.415 204.484C282.174 201.49 267.079 194.717 267.079 194.717L292.382 204.647C292.382 204.647 314.732 189.332 334.601 223.99C354.484 258.641 339.424 280.399 339.424 280.399L338.617 267.518L334.687 292.049L328.191 304.854L325.351 296.762L317.76 311.235L305.328 321.247L309.277 310.231C309.277 310.231 281.03 333.429 270.756 338.828C260.493 344.23 230.736 344.492 221.778 344.533C212.802 344.59 208.711 348.723 204.55 352.239C203.065 353.517 198.094 361.749 195.412 364.068C190.649 368.192 187.792 366.771 186.595 367.812C184.71 369.44 202.494 412.958 202.494 412.958L222.147 425.613L228.489 427.42C228.489 427.42 231.959 426.121 236.18 428.028C240.4 429.934 239.886 442.085 239.886 442.085C239.886 442.085 237.388 436.175 234.187 434.818C230.983 433.471 227.347 433.858 225.754 433.714C224.17 433.573 217.288 429.289 217.288 429.289C217.288 429.289 218.502 431.351 218.286 433.435C218.064 435.505 216.727 438.031 216.727 438.031C216.727 438.031 217.199 431.123 212.249 429.625C207.31 428.13 204.967 427.995 202.38 427.099C199.801 426.181 197.915 424.24 197.915 424.24C197.915 424.24 195.457 414.94 193.182 409.879C190.906 404.817 179.562 375.528 177.066 371.981C175.969 370.411 175.346 366.697 173.629 365.526C171.477 364.056 168.304 365.285 168.304 365.285L176.229 348.404L162.287 367.132L167.27 391.098L174.853 406.641C174.853 406.641 191.962 414.161 191.608 417.826C191.261 421.505 190.869 427.838 190.869 427.838C190.869 427.838 190.423 421.884 184.673 418.297C178.922 414.709 170.444 412.525 165.107 410.66C159.752 408.813 157.378 406.812 153.542 406.192C149.704 405.607 140.329 399.68 140.329 399.68C140.329 399.68 139.341 396.058 136.132 396.931C132.926 397.83 129.26 401.349 129.26 401.349C129.26 401.349 130.604 390.624 137.158 389.576C140.82 388.986 144.352 395.7 144.352 395.7L156.377 400.076L161.897 397.351L151.425 358.334L145.112 358.689L158.414 335.451L141.452 331.163L162.001 327.34L104.002 310.406L93.5406 295.739L125.444 297.938L95.5826 282.774L70.3896 262.448C70.3896 262.448 96.1594 264.347 92.2113 264.194C88.2708 264.021 -38.5449 242.633 -39.767 241.561C-41.0005 240.484 -6.44273 232.614 -6.44273 232.614L44.3817 247.568L19.5659 232.342L-37.5944 212.937L-51.8551 191.601L-29.7845 200.092L35.4086 222.11L-16.97 196.164L-9.54982 195.787Z" fill="#080808"/>
<path fill-rule="evenodd" clip-rule="evenodd" d="M297.971 222.386C299.488 219.178 303.305 217.791 306.536 219.305C309.744 220.821 311.121 224.635 309.61 227.856C308.104 231.067 304.27 232.437 301.056 230.94C297.848 229.424 296.475 225.6 297.971 222.386Z" fill="#FC9F07"/>
<path fill-rule="evenodd" clip-rule="evenodd" d="M296.405 221.972C297.543 219.56 300.409 218.527 302.823 219.653C305.221 220.786 306.262 223.658 305.135 226.074C304.001 228.475 301.131 229.519 298.733 228.386C296.312 227.244 295.282 224.377 296.405 221.972Z" fill="#12130F"/>
<path fill-rule="evenodd" clip-rule="evenodd" d="M303.297 226.492C303.68 225.695 304.638 225.344 305.439 225.729C306.239 226.093 306.581 227.062 306.207 227.863C305.821 228.669 304.867 229.01 304.071 228.637C303.275 228.264 302.929 227.304 303.297 226.492Z" fill="#FBFBFB"/>
<path fill-rule="evenodd" clip-rule="evenodd" d="M254.136 313.021C254.136 313.021 204.618 318.511 193.355 317.229C182.106 315.94 149.098 299.76 149.098 299.76L174.707 291.861C174.707 291.861 144.372 289.527 137.255 288.344C130.139 287.161 111.055 270.49 111.055 270.49L137.612 264.639L91.8424 263.587L70.8996 263.147L125.265 298.505L93.2327 297.313L129.932 314.061L163.772 325.559L145.495 331.616L191.16 341.557L248.013 325.97L224.094 340.082C224.094 340.082 262.646 340.585 268.651 337.408C274.682 334.228 292.851 306.681 292.851 306.681C292.851 306.681 249.341 318.174 247.64 318.583C245.944 319.007 254.136 313.021 254.136 313.021Z" fill="#12130F"/>
<path fill-rule="evenodd" clip-rule="evenodd" d="M286.478 253.023L285.355 265.163L298.777 266.998L283.986 280.514L247.144 286.579L282.381 270.704L254.319 275.42C254.319 275.42 274.949 265.227 278.457 263.468C281.951 261.716 286.478 253.023 286.478 253.023Z" fill="#12130F"/>
<path fill-rule="evenodd" clip-rule="evenodd" d="M170.67 364.852L185.371 360.278L182.744 367.226L197.758 360.955C197.758 360.955 191.276 368.354 189.958 369.499C188.626 370.65 184.488 371.845 184.488 371.845L186.181 368.237L180.224 368.733L178.376 372.704L170.67 364.852Z" fill="#12130F"/>
<path fill-rule="evenodd" clip-rule="evenodd" d="M143.501 359.594L158.956 354.752L156.173 362.085L177.864 345.139C177.864 345.139 164.473 365.212 163.071 366.429C161.68 367.65 159.582 368.22 159.582 368.22L159.779 363.155L153.536 363.672L153.35 368.704L143.501 359.594Z" fill="#12130F"/>
<path fill-rule="evenodd" clip-rule="evenodd" d="M1912.76 1160.09C1868.84 1179.96 1836.21 1194.8 1803.49 1209.46C1795.85 1212.89 1787.71 1215.28 1780.17 1218.91C1774.22 1221.77 1770.76 1220.51 1766.71 1215.47C1718.67 1155.62 1670.35 1095.97 1622.21 1036.18C1536.43 929.645 1450.9 822.9 1364.77 716.656C1353.61 702.889 1347.71 689.438 1348.91 671.179C1350.97 639.937 1351.06 608.532 1354.22 577.34C1361.49 505.718 1366.82 433.946 1372.63 362.209C1372.85 359.566 1373.8 356.803 1373.3 354.321C1369.68 336.42 1380.36 328.602 1394.43 321.586C1420.98 308.326 1448.04 296.217 1475.01 283.916C1513.25 266.47 1551.76 249.596 1590.27 232.718C1598.75 228.98 1607.89 226.748 1616.31 222.894C1622.2 220.211 1626.18 221.849 1630.74 225.348C1651.75 241.469 1672.77 257.598 1694.06 273.358C1740.55 307.774 1787.15 342.028 1833.81 376.228C1858.76 394.518 1882.15 414.707 1905.95 434.422C1910.97 438.571 1913.69 443.334 1914.92 449.892C1930.63 534.042 1944.66 618.48 1959.18 702.828C1979.37 820.251 1999.48 937.67 2019.67 1055.07C2022.07 1068.98 2024.49 1082.89 2027.47 1096.68C2028.93 1103.45 2027.21 1106.74 2020.79 1110.08C1981.88 1130.32 1941.07 1146.39 1912.76 1160.09Z" fill="#100F0D"/>
<path fill-rule="evenodd" clip-rule="evenodd" d="M1504.5 284.817C1539.18 269.125 1573.98 253.659 1608.49 237.57C1616.79 233.696 1622.21 234.388 1629.67 240.366C1655.51 261.094 1682.16 280.848 1708.73 300.671C1756.2 336.091 1803.84 371.29 1851.41 406.611C1864.9 416.615 1878.24 426.839 1891.87 436.65C1897.57 440.763 1900.92 445.543 1902.12 452.732C1910.9 504.936 1919.93 557.106 1929.09 609.255C1951.1 734.419 1973.24 859.557 1995.26 984.734C2001.38 1019.48 2007.28 1054.28 2013.21 1089.08C2015.07 1100 2015.17 1100.46 2001.63 1105.66C1938.75 1129.76 1878.67 1160.15 1817.04 1187.07C1806.84 1191.52 1797.91 1198.14 1787.77 1202.57C1777.8 1206.93 1778 1206.82 1771.44 1198.63C1724.54 1140.09 1677.59 1081.61 1630.6 1023.13C1597.73 982.199 1564.81 941.285 1531.84 900.407C1479.77 835.84 1427.63 771.313 1375.54 706.747C1372.78 703.322 1370.38 699.589 1367.54 696.215C1362.74 690.491 1360.86 684.208 1361.52 676.623C1365.79 626.844 1369.81 577.051 1373.88 527.261C1376.56 494.661 1379.33 462.063 1381.81 429.445C1383.92 401.668 1386.03 373.883 1387.34 346.072C1387.71 338.072 1392.15 335.591 1398 332.957C1433.52 316.966 1469 300.876 1504.5 284.817Z" fill="#3F3E40"/>
<path fill-rule="evenodd" clip-rule="evenodd" d="M1853.93 1129.89C1824.14 1143.37 1802.06 1153.45 1779.9 1163.35C1769.27 1168.11 1768.82 1167.64 1761.68 1157.93C1736.88 1124.2 1712.2 1090.38 1686.98 1056.97C1658.57 1019.3 1630.19 981.606 1600.79 944.715C1554.32 886.408 1506.97 828.816 1460.12 770.822C1438.5 744.048 1417.28 716.945 1395.56 690.263C1391.9 685.771 1390.57 681.981 1391.22 676.038C1396.76 625.081 1400.28 573.954 1403.52 522.797C1405.89 485.356 1410.22 448.017 1413.57 410.635C1415.03 394.361 1416.22 378.059 1417.47 361.761C1418.29 351.061 1418.26 351.128 1428.92 347.434C1432.67 346.147 1436.27 344.402 1439.89 342.781C1495 317.902 1550.23 293.303 1605.08 267.868C1615.11 263.225 1621.65 264.4 1629.75 271.439C1664.11 301.329 1698.51 331.166 1734.06 359.629C1781 397.189 1829.14 433.123 1878.35 467.628C1883.07 470.935 1885.63 474.292 1886.59 480.159C1896.97 543.731 1907.88 607.21 1918.25 670.774C1925.5 715.197 1932.32 759.684 1939.01 804.19C1944.14 838.227 1948.94 872.302 1953.57 906.41C1959.88 952.768 1967.36 998.949 1975.35 1045.03C1979.66 1069.94 1979.96 1069.95 1957.1 1080.25C1919.75 1097.1 1884.65 1118.66 1853.93 1129.89Z" fill="#646668"/>
<path fill-rule="evenodd" clip-rule="evenodd" d="M1676.92 560.906C1676.13 565.886 1679.32 569.378 1681.53 572.995C1698.61 601.001 1712.43 630.652 1726.19 660.349C1735.68 680.807 1744.64 701.536 1756.04 721.078C1762.55 732.228 1765.48 744.889 1770.56 756.662C1772.59 761.398 1771.27 765.104 1766.69 767.885C1743.5 781.99 1719.03 793.324 1693.04 801.18C1685.73 803.384 1683.23 801.929 1679 793.024C1672.18 778.644 1664.77 764.391 1659.51 749.421C1650.83 724.72 1639.4 701.255 1629.06 677.294C1618.9 653.727 1608.64 630.265 1601.75 605.462C1600.83 602.165 1600.17 598.517 1596.74 595.626C1582.54 609.616 1568.41 623.523 1554.31 637.47C1552.74 639.022 1551.47 640.888 1549.9 642.44C1542.54 649.744 1539.05 649.512 1533.3 640.937C1525.18 628.843 1516.74 616.913 1509.4 604.362C1500.7 589.516 1491.26 575.034 1484.39 559.133C1478.48 545.419 1478.61 545.496 1492.21 540.516C1511.39 533.498 1531.37 529.389 1550.78 523.26C1554.07 522.214 1557.79 521.996 1561.05 518.087C1548.71 494.78 1536.54 470.89 1523.46 447.5C1518.26 438.213 1513.67 428.667 1508.78 419.26C1504.04 410.162 1505.51 406.24 1514.97 401.139C1521.58 397.559 1528.62 394.779 1535.49 391.664C1550.01 385.047 1564.48 378.303 1579.1 371.896C1594.08 365.355 1597.47 366.618 1603.06 381.421C1614.46 411.622 1625.53 441.939 1636.73 472.206C1637.34 473.858 1638.04 475.505 1638.54 477.192C1640.1 482.549 1643.29 482.941 1647.53 480.211C1659.07 472.798 1670.93 465.813 1682.02 457.77C1690.35 451.73 1699.9 447.988 1708.24 442.106C1713.49 438.411 1717.53 440.123 1719.9 445.655C1723.9 454.996 1728.3 464.241 1731.35 473.912C1738.13 495.372 1744.09 517.085 1750.53 538.643C1754.77 552.774 1752.57 555.459 1737.48 556.052C1718.48 556.802 1699.49 558.154 1680.5 559.348C1679.28 559.42 1678.12 560.361 1676.92 560.906Z" fill="#100F0D"/>
<path fill-rule="evenodd" clip-rule="evenodd" d="M1492.2 550.943C1512.91 545.894 1533.05 541.007 1553.17 536.08C1577.67 530.098 1579.37 527.205 1568.32 505.175C1554.06 476.738 1538.5 448.977 1522.22 421.646C1517.21 413.229 1517.31 411.267 1525.61 407.422C1544.14 398.812 1562.77 390.386 1581.47 382.149C1589.56 378.581 1591.07 379.185 1592.66 387.09C1595.14 399.339 1600.64 410.541 1604.7 422.17C1612.57 444.689 1621.18 466.966 1629.23 489.444C1631.98 497.152 1637.23 499.354 1645.04 495.991C1658.17 490.33 1669.24 481.245 1680.79 473.091C1690.19 466.464 1699.44 459.695 1709.88 453.189C1715.3 457.605 1716.87 464.255 1718.86 470.197C1725.73 490.704 1732.2 511.355 1738.34 532.105C1741.56 543.014 1740.61 543.765 1729.11 544.971C1713.61 546.598 1698.09 545.884 1682.58 545.832C1679.47 545.825 1676.3 545.417 1673.27 545.868C1665.34 547.042 1660.72 554.083 1663.88 561.341C1670.1 575.547 1676.52 589.723 1683.97 603.299C1687.58 609.878 1691.32 616.397 1694.7 623.102C1713.91 661.055 1732.64 699.235 1749.88 738.105C1752.22 743.37 1754.39 748.71 1756.7 753.992C1758.43 757.995 1757.26 760.871 1753.37 762.649C1734.75 771.083 1716.13 779.496 1697.5 787.892C1693.54 789.675 1690.65 788.581 1688.85 784.61C1687.94 782.594 1686.89 780.642 1685.98 778.613C1671.33 745.833 1655.52 713.498 1642.39 680.117C1631.87 653.378 1620.19 627.065 1611.01 599.788C1610.31 597.694 1609.31 595.702 1608.4 593.686C1601.49 578.376 1594.19 577.329 1583.02 589.46C1571.31 602.173 1561.27 616.395 1548.09 627.784C1541.44 633.514 1541.29 633.319 1535.66 627.285C1528.55 619.681 1524.78 610.066 1519.68 601.357C1510.14 585.111 1499.24 569.506 1492.2 550.943Z" fill="#3F3E40"/>
<path fill-rule="evenodd" clip-rule="evenodd" d="M955.635 327.242C955.635 327.242 890.267 350.562 893.171 359.855C896.074 369.148 963.81 348.202 966.494 339.912C969.177 331.608 955.635 327.242 955.635 327.242Z" fill="#FEFBDC"/>
<path fill-rule="evenodd" clip-rule="evenodd" d="M969.14 344.75C966.264 343.832 926.103 360.755 930.265 369.589C934.424 378.426 973.875 359.114 976.09 357.191C978.307 355.283 972.018 345.683 969.14 344.75Z" fill="#FEFBDC"/>
<path fill-rule="evenodd" clip-rule="evenodd" d="M976.905 360.281C974.029 359.348 933.868 376.278 938.03 385.119C942.19 393.959 981.64 374.639 983.855 372.728C986.07 370.82 979.783 361.215 976.905 360.281Z" fill="#FEFBDC"/>
<path fill-rule="evenodd" clip-rule="evenodd" d="M984.691 375.8C981.657 374.988 937.851 394.005 941.871 402.793C945.893 411.566 989.056 390.157 991.522 388.114C993.986 386.057 987.726 376.612 984.691 375.8Z" fill="#FEFBDC"/>
<path fill-rule="evenodd" clip-rule="evenodd" d="M992.021 389.398C989.153 388.463 950.973 406.858 955.585 416.055C960.199 425.268 995.349 405.44 997.395 403.389C999.441 401.354 994.891 390.332 992.021 389.398Z" fill="#FEFBDC"/>
<path fill-rule="evenodd" clip-rule="evenodd" d="M936.967 364.827C939.962 369.837 933.935 375.485 921.814 381.929C904.328 391.228 877.577 400.333 875.704 396.031C873.948 391.996 895.95 377.893 912.509 369.35C925.88 362.461 933.908 359.711 936.967 364.827Z" fill="#FEFBDC"/>
<path fill-rule="evenodd" clip-rule="evenodd" d="M946.629 382.367C949.762 387.449 943.567 393.114 931.074 399.544C913.05 408.822 885.444 417.83 883.477 413.467C881.633 409.392 904.296 395.288 921.363 386.773C935.148 379.895 943.432 377.166 946.629 382.367Z" fill="#FEFBDC"/>
<path fill-rule="evenodd" clip-rule="evenodd" d="M944.625 402.155C947.606 407.41 942.731 412.603 932.578 418.135C917.929 426.132 895.152 433.205 893.204 428.751C891.378 424.576 909.638 412.11 923.528 404.82C934.746 398.919 941.579 396.777 944.625 402.155Z" fill="#FEFBDC"/>
<path fill-rule="evenodd" clip-rule="evenodd" d="M962.293 411.069C964.795 415.245 960.161 419.713 950.718 424.655C937.093 431.798 916.12 438.528 914.523 434.975C913.028 431.631 930.11 420.678 943.019 414.129C953.442 408.85 959.736 406.817 962.293 411.069Z" fill="#FEFBDC"/>
<path fill-rule="evenodd" clip-rule="evenodd" d="M1070.1 425.905C1072.34 428.349 1085.23 417.019 1083.08 414.891C1080.94 412.764 1067.35 422.9 1070.1 425.905Z" fill="#12130F"/>
<path fill-rule="evenodd" clip-rule="evenodd" d="M1084.08 412.388C1086.9 414.527 1098.32 403.357 1096.77 401.295C1095.22 399.216 1079.77 409.133 1084.08 412.388Z" fill="#12130F"/>
<path fill-rule="evenodd" clip-rule="evenodd" d="M1070.1 427.843C1072.34 430.3 1085.23 418.96 1083.08 416.833C1080.94 414.706 1067.35 424.839 1070.1 427.843Z" fill="#FEFBDC"/>
<path fill-rule="evenodd" clip-rule="evenodd" d="M1084.08 414.333C1086.9 416.454 1098.32 405.312 1096.77 403.236C1095.22 401.16 1079.77 411.066 1084.08 414.333Z" fill="#FEFBDC"/>
<path fill-rule="evenodd" clip-rule="evenodd" d="M862.815 397.129C862.815 397.129 850.487 412.35 855.186 421.002C859.885 429.654 876.716 427.643 885.618 422.166C894.521 416.705 896.96 413.515 896.96 413.515L896.533 422.867C896.533 422.867 878.646 435.659 863.157 431.083C849.261 426.959 848.153 419.56 852.928 407.514C856.008 399.751 862.815 397.129 862.815 397.129Z" fill="#12130F"/>
<path fill-rule="evenodd" clip-rule="evenodd" d="M938.87 397.129C938.87 397.129 951.198 412.35 946.499 421.002C941.8 429.654 924.969 427.643 916.066 422.166C907.162 416.705 904.725 413.515 904.725 413.515L905.151 422.867C905.151 422.867 923.039 435.659 938.527 431.083C952.422 426.959 953.533 419.56 948.756 407.514C945.675 399.751 938.87 397.129 938.87 397.129Z" fill="#12130F"/>
<path fill-rule="evenodd" clip-rule="evenodd" d="M853.76 414.6C853.76 414.6 838.865 432.371 844.543 442.466C850.22 452.562 870.559 450.206 881.315 443.829C892.073 437.438 895.019 433.72 895.019 433.72L894.504 444.636C894.504 444.636 872.891 459.548 854.174 454.215C837.385 449.426 836.043 440.786 841.813 426.731C845.537 417.666 853.76 414.6 853.76 414.6Z" fill="#12130F"/>
<path fill-rule="evenodd" clip-rule="evenodd" d="M947.925 414.6C947.925 414.6 962.822 432.371 957.145 442.466C951.466 452.562 931.129 450.206 920.37 443.829C909.613 437.438 906.667 433.72 906.667 433.72L907.181 444.636C907.181 444.636 928.796 459.548 947.511 454.215C964.301 449.426 965.643 440.786 959.873 426.731C956.151 417.666 947.925 414.6 947.925 414.6Z" fill="#12130F"/>
<path fill-rule="evenodd" clip-rule="evenodd" d="M853.766 435.954C853.766 435.954 847.629 439.77 843.824 445.061C838.639 452.246 835.707 462.205 839.319 469.133C845.584 481.149 868.026 478.334 879.897 470.743C891.766 463.139 895.019 458.714 895.019 458.714L894.45 471.717C894.45 471.717 870.601 489.471 849.948 483.111C831.422 477.401 829.942 467.103 836.31 450.392C840.416 439.608 853.766 435.954 853.766 435.954Z" fill="#12130F"/>
<path fill-rule="evenodd" clip-rule="evenodd" d="M949.209 435.954C949.209 435.954 955.538 439.77 959.46 445.061C964.809 452.246 967.833 462.205 964.107 469.133C957.645 481.149 934.502 478.334 922.262 470.743C910.02 463.139 906.667 458.714 906.667 458.714L907.252 471.717C907.252 471.717 931.849 489.471 953.146 483.111C972.252 477.401 973.776 467.103 967.212 450.392C962.977 439.608 949.209 435.954 949.209 435.954Z" fill="#12130F"/>
<path fill-rule="evenodd" clip-rule="evenodd" d="M850.096 465.074C850.096 465.074 843.342 468.754 840.115 475.308C836.397 482.848 836.447 493.753 841.848 499.691C851.935 510.76 875.701 501.483 886.622 490.045C897.543 478.606 899.902 472.955 899.902 472.955L902.784 486.993C902.784 486.993 881.515 512.635 857.232 511.636C835.45 510.733 831.056 500.156 833.504 480.508C835.083 467.851 850.096 465.074 850.096 465.074Z" fill="#12130F"/>
<path fill-rule="evenodd" clip-rule="evenodd" d="M951.588 465.074C951.588 465.074 958.344 468.754 961.57 475.308C965.29 482.848 965.24 493.753 959.838 499.691C949.751 510.76 925.984 501.483 915.063 490.045C904.141 478.606 901.785 472.955 901.785 472.955L898.901 486.993C898.901 486.993 920.171 512.635 944.454 511.636C966.236 510.733 970.629 500.156 968.181 480.508C966.603 467.851 951.588 465.074 951.588 465.074Z" fill="#12130F"/>
<path fill-rule="evenodd" clip-rule="evenodd" d="M848.731 497.28C848.731 497.28 834.751 517.084 849.375 525.34C861.751 532.352 882.797 517.981 890.412 505.068C898.026 492.155 898.973 486.428 898.973 486.428L904.725 498.698C904.725 498.698 890.898 527.414 868.53 533.422C853.293 537.504 843.566 533.663 839.313 519.479C835.849 507.931 848.731 497.28 848.731 497.28Z" fill="#12130F"/>
<path fill-rule="evenodd" clip-rule="evenodd" d="M952.956 497.28C952.956 497.28 966.935 517.084 952.31 525.34C939.934 532.352 918.888 517.981 911.275 505.068C903.659 492.155 902.713 486.428 902.713 486.428L896.96 498.698C896.96 498.698 910.787 527.414 933.157 533.422C948.393 537.504 958.121 533.663 962.372 519.479C965.836 507.931 952.956 497.28 952.956 497.28Z" fill="#12130F"/>
<path fill-rule="evenodd" clip-rule="evenodd" d="M848.623 224.354C848.623 224.354 835.975 240.46 842.563 269.174C847.638 291.3 850.289 296.605 854.169 297.757C858.051 298.908 863.452 297.8 864.362 302.013C865.272 306.21 866.635 326.938 869.955 333.175C873.276 339.429 875.939 343.262 893.706 342.722C911.471 342.198 921.487 340.552 920.133 321.092C918.78 301.633 848.623 224.354 848.623 224.354Z" fill="#12130F"/>
<path fill-rule="evenodd" clip-rule="evenodd" d="M925.583 296.23C925.583 296.23 940.451 296.805 939.634 271.39C938.818 245.992 946.917 203.356 895.724 203.003C841.558 202.621 843.854 236.828 842.723 250.28C841.591 263.729 848.78 295.743 856.159 295.566C865.975 295.317 866.21 300.901 866.55 310.888C866.891 320.862 868.391 337.613 876.886 339.469C885.381 341.341 913.482 342.269 916.789 335.522C920.095 328.773 919.282 296.966 925.583 296.23Z" fill="#FEFBDC"/>
<path fill-rule="evenodd" clip-rule="evenodd" d="M885.102 253.939C884.232 250.65 864.953 250.445 863.236 255.125C861.518 259.805 860.262 270.611 869.297 270.938C878.33 271.266 886.76 260.201 885.102 253.939Z" fill="#12130F"/>
<path fill-rule="evenodd" clip-rule="evenodd" d="M904.935 254.172C905.803 250.555 925.084 250.345 926.801 255.492C928.519 260.637 929.774 272.518 920.74 272.879C911.706 273.225 903.275 261.058 904.935 254.172Z" fill="#12130F"/>
<path fill-rule="evenodd" clip-rule="evenodd" d="M895.362 274.827C895.362 274.827 899.815 292.342 893.856 292.299C887.901 292.256 893.278 276.692 895.362 274.827Z" fill="#12130F"/>
<path fill-rule="evenodd" clip-rule="evenodd" d="M899.967 272.886C899.967 272.886 896.998 292.346 900.97 292.299C904.941 292.251 901.358 274.956 899.967 272.886Z" fill="#12130F"/>
<path fill-rule="evenodd" clip-rule="evenodd" d="M875.605 308.281C875.605 308.281 886.482 309.358 888.127 308.077C889.77 306.795 890.401 301.463 890.401 301.463C890.401 301.463 889.406 307.843 890.754 308.048C892.101 308.252 892.973 308.484 893.788 308.091C894.603 307.697 895.007 300.559 895.007 300.559C895.007 300.559 894.646 308.048 895.556 308.135C896.465 308.223 898.491 308.077 898.491 308.077C898.491 308.077 899.587 304.391 899.622 302.147C899.653 299.904 899.074 307.421 900.138 307.742C901.198 308.077 902.392 308.398 903.178 308.121C903.963 307.858 904.279 301.609 904.279 301.609C904.279 301.609 903.721 307.626 904.644 308.018C905.569 308.398 908.162 308.164 909.029 307.916C909.894 307.655 909.648 302.876 909.648 302.876C909.648 302.876 909.685 306.766 910.238 307.1C910.791 307.451 914.399 306.708 913.995 303.809C913.591 300.909 913.881 300.064 913.881 300.064C913.881 300.064 914.516 303.05 914.806 303.954C915.096 304.857 915.145 304.827 916.13 304.435C917.113 304.042 914.869 305.804 913.721 306.883C912.575 307.945 912.339 310.859 912.339 310.859C912.339 310.859 912.353 307.639 911.484 307.742C910.616 307.83 908.806 307.772 908.668 308.703C908.53 309.636 908.113 313.307 908.113 313.307C908.113 313.307 907.844 309.141 906.854 309.039C905.863 308.922 904.449 308.47 904.322 309.359C904.191 310.247 903.846 314.851 903.846 314.851C903.846 314.851 903.18 309.17 902.26 309.126C901.341 309.083 900.049 308.82 899.708 309.534C899.368 310.247 899.427 314.559 899.427 314.559C899.427 314.559 898.956 309.315 897.718 309.359C896.481 309.402 895.238 309.112 894.95 310.131C894.663 311.151 893.962 315.288 893.962 315.288C893.962 315.288 894.302 310.189 892.609 309.824C890.918 309.475 890.024 310.014 890.024 310.014C890.024 310.014 889.101 312.971 889.122 313.948C889.144 314.91 889.191 315.594 889.191 315.594C889.191 315.594 889.502 309.723 887.635 309.912C885.77 310.102 883.459 309.475 881.3 309.315C879.142 309.156 875.605 308.281 875.605 308.281Z" fill="#12130F"/>
<path fill-rule="evenodd" clip-rule="evenodd" d="M862.017 247.532C862.017 247.532 880.309 241.345 884.928 243.812C888.637 245.785 889.194 249.591 889.194 249.591C889.194 249.591 889.314 243.812 885.538 242.092C881.76 240.373 862.017 247.532 862.017 247.532Z" fill="#12130F"/>
<path fill-rule="evenodd" clip-rule="evenodd" d="M892.489 346.655H909.196C912.088 346.655 914.432 348.825 914.432 351.508C914.432 354.192 912.088 356.362 909.196 356.362H892.489C889.597 356.362 887.254 354.192 887.254 351.508C887.254 348.825 889.597 346.655 892.489 346.655Z" fill="#FEFBDC"/>
<path fill-rule="evenodd" clip-rule="evenodd" d="M892.489 360.244H909.196C912.088 360.244 914.432 362.429 914.432 365.097C914.432 367.781 912.088 369.951 909.196 369.951H892.489C889.597 369.951 887.254 367.781 887.254 365.097C887.254 362.429 889.597 360.244 892.489 360.244Z" fill="#FEFBDC"/>
<path fill-rule="evenodd" clip-rule="evenodd" d="M892.489 373.833H909.196C912.088 373.833 914.432 376.018 914.432 378.687C914.432 381.37 912.088 383.54 909.196 383.54H892.489C889.597 383.54 887.254 381.37 887.254 378.687C887.254 376.018 889.597 373.833 892.489 373.833Z" fill="#FEFBDC"/>
<path fill-rule="evenodd" clip-rule="evenodd" d="M901.914 414.576C908.433 415.321 917.89 398.516 916.167 392.905C914.441 387.294 903.339 386.956 901.464 387.729C899.589 388.503 887.791 385.662 884.043 390.316C880.293 394.986 893.065 413.577 901.914 414.576Z" fill="#FEFBDC"/>
<path fill-rule="evenodd" clip-rule="evenodd" d="M878.592 384.306C874.144 383.134 855.439 385.168 845.463 384.406C835.489 383.643 814.866 382.061 813.582 386.921C812.298 391.782 823.937 395.936 839.398 395.073C854.857 394.211 875.475 390.722 879.014 388.093C882.552 385.465 882.029 385.225 878.592 384.306Z" fill="#FEFBDC"/>
<path fill-rule="evenodd" clip-rule="evenodd" d="M919.211 384.306C923.66 383.134 942.367 385.168 952.342 384.406C962.315 383.643 982.936 382.061 984.221 386.921C985.507 391.782 973.865 395.936 958.406 395.073C942.947 394.211 922.329 390.722 918.791 388.093C915.252 385.465 915.774 385.225 919.211 384.306Z" fill="#FEFBDC"/>
<path fill-rule="evenodd" clip-rule="evenodd" d="M793.297 534.697C792.626 519.273 784.223 413.25 800.059 405.543C815.897 397.838 823.187 408.916 817.258 417.939C811.331 426.963 805.198 443.69 804.447 463.546C803.694 483.388 801.593 527.706 807.62 537.634C813.646 547.575 819.124 563.834 812.986 565.073C806.848 566.299 803.33 563.591 795.928 565.612C788.525 567.659 787.03 561.719 789.097 554.431C791.164 547.144 793.969 550.134 793.297 534.697Z" fill="#FEFBDC"/>
<path fill-rule="evenodd" clip-rule="evenodd" d="M1004.51 534.697C1005.18 519.273 1013.58 413.25 997.745 405.543C981.908 397.838 974.616 408.916 980.543 417.939C986.472 426.963 992.604 443.69 993.356 463.546C994.107 483.388 996.209 527.706 990.183 537.634C984.157 547.575 978.681 563.834 984.817 565.073C990.955 566.299 994.473 563.591 1001.87 565.612C1009.28 567.659 1010.77 561.719 1008.71 554.431C1006.64 547.144 1003.83 550.134 1004.51 534.697Z" fill="#FEFBDC"/>
<path fill-rule="evenodd" clip-rule="evenodd" d="M901.822 410.721C906.738 410.545 913.731 418.523 912.301 441.302C910.871 464.071 911.134 503.197 902.207 499.811C893.279 496.412 893.806 451.94 893.251 442.275C892.697 432.623 892.971 411.042 901.822 410.721Z" fill="#FEFBDC"/>
<path fill-rule="evenodd" clip-rule="evenodd" d="M784.319 684.239C784.319 684.239 795.459 656.756 798.291 641.382C801.124 626.035 797.725 581.291 796.78 577.117C795.837 572.942 799.235 559.294 805.467 560.244C811.697 561.194 816.795 564.793 815.095 572.567C813.396 580.341 802.445 643.108 801.124 660.355C799.801 677.602 794.326 703.011 788.66 701.874C782.998 700.737 780.354 691.25 784.319 684.239Z" fill="#FEFBDC"/>
<path fill-rule="evenodd" clip-rule="evenodd" d="M1049.47 456.149C1049.47 456.149 1030.38 478.933 1023 492.672C1015.63 506.412 1005.45 549.878 1005.1 554.121C1004.77 558.351 997.353 570.308 991.59 567.555C985.827 564.815 981.963 559.881 985.955 552.991C989.946 546.128 1019.48 489.813 1025.96 473.839C1032.44 457.865 1045.41 435.373 1050.57 438.127C1055.72 440.893 1055.43 450.669 1049.47 456.149Z" fill="#FEFBDC"/>
<path fill-rule="evenodd" clip-rule="evenodd" d="M786.794 690.189C786.794 690.189 786.985 699.622 781.271 701.555C775.558 703.488 768.704 697.118 771.37 692.68C774.035 688.256 778.987 686.895 778.796 676.672C778.606 666.449 778.035 629.601 782.224 611.864C786.413 594.113 787.555 586.981 786.794 580.038C786.032 573.082 783.366 568.087 788.317 565.963C793.269 563.84 801.837 558.436 801.837 566.154C801.837 573.872 797.648 570.591 792.887 594.508C788.126 618.425 783.779 652.156 785.112 664.503C786.446 676.849 786.413 685.738 786.794 690.189Z" fill="#FEFBDC"/>
<path fill-rule="evenodd" clip-rule="evenodd" d="M1049 450.837C1049 450.837 1051.59 441.887 1057.61 441.78C1063.63 441.659 1068.3 449.671 1064.45 453.061C1060.61 456.423 1055.49 456.236 1052.67 465.896C1049.85 475.555 1039.58 510.349 1030.37 525.77C1021.17 541.204 1017.98 547.581 1016.67 554.334C1015.36 561.086 1016.43 566.579 1011.09 567.115C1005.74 567.624 995.977 570.17 998.243 562.922C1000.51 555.673 1003.54 559.988 1015.1 538.926C1026.67 517.865 1040.72 487.453 1043.07 475.448C1045.42 463.457 1048.06 455.124 1049 450.837Z" fill="#FEFBDC"/>
<path fill-rule="evenodd" clip-rule="evenodd" d="M775.143 702.1C775.143 702.1 768.34 712.48 771.717 715.865C773.819 717.963 784.97 720.775 791.889 718.593C796.094 717.278 797.528 711.543 797.902 710.13C798.898 706.367 785.476 700.814 775.143 702.1Z" fill="#FEFBDC"/>
<path fill-rule="evenodd" clip-rule="evenodd" d="M1064.12 441.778C1064.12 441.778 1073.58 434.518 1071.33 430.552C1069.93 428.098 1060.11 422.423 1052.9 422.366C1048.51 422.338 1045.5 427.001 1044.74 428.155C1042.71 431.193 1053.9 439.96 1064.12 441.778Z" fill="#FEFBDC"/>
<path fill-rule="evenodd" clip-rule="evenodd" d="M773.937 719.529C771.205 717.718 762.877 733.286 765.433 734.802C767.991 736.318 777.294 721.775 773.937 719.529Z" fill="#12130F"/>
<path fill-rule="evenodd" clip-rule="evenodd" d="M765.488 736.921C761.775 735.805 753.311 748.921 755.647 750.337C757.985 751.752 771.161 738.623 765.488 736.921Z" fill="#12130F"/>
<path fill-rule="evenodd" clip-rule="evenodd" d="M780.573 717.565C774.423 715.131 772.689 749.434 777.186 750.421C781.683 751.408 784.466 719.093 780.573 717.565Z" fill="#12130F"/>
<path fill-rule="evenodd" clip-rule="evenodd" d="M777.318 750.448C772.306 750.652 770.945 773.898 775.471 773.738C779.187 773.592 779.706 767.624 779.801 762.544C779.919 756.241 782.329 750.244 777.318 750.448Z" fill="#12130F"/>
<path fill-rule="evenodd" clip-rule="evenodd" d="M776.063 775.692C770.898 775.177 772.81 790.894 774.572 791.206C776.336 791.504 781.626 776.234 776.063 775.692Z" fill="#12130F"/>
<path fill-rule="evenodd" clip-rule="evenodd" d="M1066.55 425.944C1072.19 429.708 1082.76 397.289 1078.43 395.283C1074.09 393.276 1062.97 423.54 1066.55 425.944Z" fill="#12130F"/>
<path fill-rule="evenodd" clip-rule="evenodd" d="M1076.24 393.211C1081.47 394.173 1088.42 374.797 1083.7 373.905C1079.82 373.179 1077.87 378.104 1076.56 382.4C1074.94 387.702 1071.01 392.234 1076.24 393.211Z" fill="#12130F"/>
<path fill-rule="evenodd" clip-rule="evenodd" d="M1083.2 371.736C1088.44 373.655 1090.25 357.189 1088.5 356.394C1086.74 355.599 1077.55 369.663 1083.2 371.736Z" fill="#12130F"/>
<path fill-rule="evenodd" clip-rule="evenodd" d="M787.682 719.477C781.09 717.36 780.982 751.602 785.764 752.371C790.544 753.139 791.857 720.825 787.682 719.477Z" fill="#12130F"/>
<path fill-rule="evenodd" clip-rule="evenodd" d="M786.656 752.409C781.363 752.873 780.995 776.081 785.777 775.674C789.705 775.341 789.978 769.379 789.844 764.317C789.676 758.051 791.951 751.945 786.656 752.409Z" fill="#12130F"/>
<path fill-rule="evenodd" clip-rule="evenodd" d="M786.566 777.624C779.537 777.38 783.063 792.919 785.471 793.149C787.876 793.365 794.133 777.894 786.566 777.624Z" fill="#12130F"/>
<path fill-rule="evenodd" clip-rule="evenodd" d="M1060.92 422.136C1066.23 425.488 1072.46 391.063 1068.47 389.425C1064.48 387.772 1057.56 420.013 1060.92 422.136Z" fill="#12130F"/>
<path fill-rule="evenodd" clip-rule="evenodd" d="M794.122 719.439C787.502 717.803 790.245 751.978 794.984 752.38C799.72 752.796 798.315 720.472 794.122 719.439Z" fill="#12130F"/>
<path fill-rule="evenodd" clip-rule="evenodd" d="M795.474 752.46C790.201 753.264 791.658 774.433 796.424 773.721C800.336 773.128 800.143 767.684 799.609 763.071C798.947 757.39 800.746 751.656 795.474 752.46Z" fill="#12130F"/>
<path fill-rule="evenodd" clip-rule="evenodd" d="M796.772 777.623C791.464 777.811 795.304 793.084 797.132 793.151C798.96 793.218 802.487 777.435 796.772 777.623Z" fill="#12130F"/>
<path fill-rule="evenodd" clip-rule="evenodd" d="M798.574 709.688C792.051 708.962 799.516 742.923 804.074 742.677C808.635 742.444 802.702 710.153 798.574 709.688Z" fill="#12130F"/>
<path fill-rule="evenodd" clip-rule="evenodd" d="M1047.23 428.168C1054.32 429.153 1047.68 395.141 1042.69 395.188C1037.69 395.246 1042.73 427.54 1047.23 428.168Z" fill="#12130F"/>
<path fill-rule="evenodd" clip-rule="evenodd" d="M803.795 742.772C800.5 743.572 801.337 761.021 806.521 760.116C810.778 759.381 809.554 755.393 809.031 750.827C808.564 746.747 807.09 741.945 803.795 742.772Z" fill="#12130F"/>
<path fill-rule="evenodd" clip-rule="evenodd" d="M808.2 762.101C802.948 762.547 807.391 777.635 809.205 777.621C811.02 777.608 813.854 761.64 808.2 762.101Z" fill="#12130F"/>
<path fill-rule="evenodd" clip-rule="evenodd" d="M865.45 661.219C866.328 661.125 867.243 661.206 868.16 661.408C875.488 663.095 871.421 676.633 867.969 677.753C864.518 678.86 860.528 681.789 857.362 675.162C854.592 669.358 859.315 661.854 865.45 661.219ZM856.827 591.264C853.58 591.183 850.174 591.911 846.563 593.666C817.68 607.649 830.972 636.56 840.61 643.498C850.252 650.476 855.527 655.362 854.538 659.127C853.55 662.879 843.021 678.023 850.418 684.596C857.813 691.183 868.919 694.355 875.142 680.885C881.365 667.415 881.988 649.652 886.095 646.912C890.2 644.172 893.077 631.283 893.077 631.283C893.077 631.283 879.557 591.763 856.827 591.264Z" fill="#FEFBDC"/>
<path fill-rule="evenodd" clip-rule="evenodd" d="M942.058 661.219C941.18 661.125 940.264 661.206 939.348 661.408C932.02 663.095 936.087 676.633 939.539 677.753C942.991 678.86 946.98 681.789 950.146 675.162C952.916 669.358 948.193 661.854 942.058 661.219ZM950.681 591.264C953.928 591.183 957.335 591.911 960.945 593.666C989.829 607.649 976.538 636.56 966.896 643.498C957.257 650.476 951.983 655.362 952.97 659.127C953.958 662.879 964.487 678.023 957.091 684.596C949.695 691.183 938.588 694.355 932.365 680.885C926.144 667.415 925.519 649.652 921.414 646.912C917.308 644.172 914.432 631.283 914.432 631.283C914.432 631.283 927.951 591.763 950.681 591.264Z" fill="#FEFBDC"/>
<path fill-rule="evenodd" clip-rule="evenodd" d="M897.277 521.371H906.352C910.814 521.371 914.432 524.847 914.432 529.136C914.432 533.426 910.814 536.901 906.352 536.901H897.277C892.812 536.901 889.195 533.426 889.195 529.136C889.195 524.847 892.812 521.371 897.277 521.371Z" fill="#FEFBDC"/>
<path fill-rule="evenodd" clip-rule="evenodd" d="M897.277 544.667H906.352C910.814 544.667 914.432 548.569 914.432 553.402C914.432 558.222 910.814 562.138 906.352 562.138H897.277C892.812 562.138 889.195 558.222 889.195 553.402C889.195 548.569 892.812 544.667 897.277 544.667Z" fill="#FEFBDC"/>
<path fill-rule="evenodd" clip-rule="evenodd" d="M897.277 567.962H906.352C910.814 567.962 914.432 571.875 914.432 576.691C914.432 581.52 910.814 585.434 906.352 585.434H897.277C892.812 585.434 889.195 581.52 889.195 576.691C889.195 571.875 892.812 567.962 897.277 567.962Z" fill="#FEFBDC"/>
<path fill-rule="evenodd" clip-rule="evenodd" d="M897.277 591.258H906.352C910.814 591.258 914.432 595.174 914.432 599.993C914.432 604.827 910.814 608.729 906.352 608.729H897.277C892.812 608.729 889.195 604.827 889.195 599.993C889.195 595.174 892.812 591.258 897.277 591.258Z" fill="#FEFBDC"/>
<path fill-rule="evenodd" clip-rule="evenodd" d="M897.276 616.494H906.352C910.814 616.494 914.432 619.973 914.432 624.253C914.432 628.546 910.814 632.025 906.352 632.025H897.276C892.812 632.025 889.195 628.546 889.195 624.253C889.195 619.973 892.812 616.494 897.276 616.494Z" fill="#FEFBDC"/>
<path fill-rule="evenodd" clip-rule="evenodd" d="M879.341 260.642C878.221 256.914 871.724 262.12 871.724 262.12C871.724 262.12 880.744 265.301 879.341 260.642Z" fill="#FEFBDC"/>
<path fill-rule="evenodd" clip-rule="evenodd" d="M920.108 260.642C918.987 256.914 912.491 262.12 912.491 262.12C912.491 262.12 921.511 265.301 920.108 260.642Z" fill="#FEFBDC"/>
<path fill-rule="evenodd" clip-rule="evenodd" d="M862.296 395.187C862.296 395.187 850.482 410.414 854.984 419.069C859.487 427.725 875.618 425.713 884.15 420.234C892.682 414.771 895.019 411.58 895.019 411.58L894.61 420.935C894.61 420.935 877.467 433.726 862.624 429.137C849.309 425.03 848.244 417.628 852.823 405.576C855.774 397.809 862.296 395.187 862.296 395.187Z" fill="#FEFBDC"/>
<path fill-rule="evenodd" clip-rule="evenodd" d="M939.389 395.187C939.389 395.187 951.204 410.414 946.7 419.069C942.197 427.725 926.067 425.713 917.535 420.234C909.005 414.771 906.667 411.58 906.667 411.58L907.074 420.935C907.074 420.935 924.218 433.726 939.06 429.137C952.377 425.03 953.441 417.628 948.865 405.576C945.913 397.809 939.389 395.187 939.389 395.187Z" fill="#FEFBDC"/>
<path fill-rule="evenodd" clip-rule="evenodd" d="M853.242 412.659C853.242 412.659 838.859 431.271 844.34 441.841C849.824 452.429 869.459 449.962 879.847 443.283C890.233 436.589 893.078 432.681 893.078 432.681L892.58 444.114C892.58 444.114 871.712 459.747 853.64 454.162C837.431 449.131 836.136 440.081 841.706 425.366C845.3 415.871 853.242 412.659 853.242 412.659Z" fill="#FEFBDC"/>
<path fill-rule="evenodd" clip-rule="evenodd" d="M948.444 412.659C948.444 412.659 962.827 431.271 957.345 441.841C951.863 452.429 932.225 449.962 921.841 443.283C911.453 436.589 908.608 432.681 908.608 432.681L909.106 444.114C909.106 444.114 929.974 459.747 948.045 454.162C964.256 449.131 965.55 440.081 959.979 425.366C956.385 415.871 948.444 412.659 948.444 412.659Z" fill="#FEFBDC"/>
<path fill-rule="evenodd" clip-rule="evenodd" d="M852.478 434.013C852.478 434.013 846.149 437.828 842.225 443.118C836.878 450.316 833.853 460.273 837.58 467.186C844.041 479.213 867.185 476.399 879.424 468.81C891.667 461.206 895.02 456.769 895.02 456.769L894.435 469.77C894.435 469.77 869.838 487.52 848.54 481.175C829.434 475.466 827.91 465.17 834.475 448.462C838.71 437.666 852.478 434.013 852.478 434.013Z" fill="#FEFBDC"/>
<path fill-rule="evenodd" clip-rule="evenodd" d="M949.208 434.013C949.208 434.013 955.538 437.828 959.462 443.118C964.809 450.316 967.833 460.273 964.106 467.186C957.646 479.213 934.502 476.399 922.261 468.81C910.02 461.206 906.667 456.769 906.667 456.769L907.253 469.77C907.253 469.77 931.848 487.52 953.145 481.175C972.252 475.466 973.777 465.17 967.211 448.462C962.976 437.666 949.208 434.013 949.208 434.013Z" fill="#FEFBDC"/>
<path fill-rule="evenodd" clip-rule="evenodd" d="M850.097 463.132C850.097 463.132 843.341 466.813 840.115 473.367C836.395 480.906 836.444 491.811 841.846 497.749C851.934 508.819 875.701 499.555 886.623 488.103C897.544 476.678 899.9 471.027 899.9 471.027L902.784 485.052C902.784 485.052 881.514 510.707 857.231 509.694C835.449 508.791 831.056 498.215 833.504 478.58C835.082 465.91 850.097 463.132 850.097 463.132Z" fill="#FEFBDC"/>
<path fill-rule="evenodd" clip-rule="evenodd" d="M952.067 463.132C952.067 463.132 958.634 466.813 961.771 473.367C965.386 480.906 965.338 491.811 960.087 497.749C950.279 508.819 927.174 499.555 916.556 488.103C905.938 476.678 903.646 471.027 903.646 471.027L900.843 485.052C900.843 485.052 921.522 510.707 945.129 509.694C966.308 508.791 970.578 498.215 968.198 478.58C966.664 465.91 952.067 463.132 952.067 463.132Z" fill="#FEFBDC"/>
<path fill-rule="evenodd" clip-rule="evenodd" d="M848.729 495.759C848.729 495.759 834.751 516.37 849.375 524.957C861.752 532.236 882.798 517.289 890.411 503.859C898.025 490.429 898.971 484.487 898.971 484.487L904.725 497.235C904.725 497.235 890.899 527.1 868.528 533.363C853.293 537.608 843.565 533.6 839.313 518.848C835.85 506.837 848.729 495.759 848.729 495.759Z" fill="#FEFBDC"/>
<path fill-rule="evenodd" clip-rule="evenodd" d="M952.956 495.759C952.956 495.759 966.937 516.37 952.311 524.957C939.935 532.236 918.887 517.289 911.273 503.859C903.659 490.429 902.713 484.487 902.713 484.487L896.96 497.235C896.96 497.235 910.787 527.1 933.156 533.363C948.393 537.608 958.122 533.6 962.372 518.848C965.837 506.837 952.956 495.759 952.956 495.759Z" fill="#FEFBDC"/>
<path fill-rule="evenodd" clip-rule="evenodd" d="M847.842 755.702C846.809 736.464 829.241 664.554 843.709 671.294C858.175 678.049 867.131 691.894 867.819 703.38C868.508 714.853 852.662 774.266 855.418 820.197C858.175 866.115 868.851 920.122 859.209 924.18C849.565 928.238 826.486 932.62 829.241 903.257C831.998 873.881 844.742 803.656 846.463 791.509C848.187 779.349 848.876 774.954 847.842 755.702Z" fill="#FEFBDC"/>
<path fill-rule="evenodd" clip-rule="evenodd" d="M955.785 761.526C956.818 742.288 974.385 670.378 959.919 677.118C945.453 683.873 936.497 697.732 935.808 709.204C935.119 720.677 950.964 780.103 948.208 826.021C945.453 871.939 934.774 925.946 944.418 930.004C954.062 934.062 977.141 938.444 974.385 909.081C971.629 879.705 958.886 809.48 957.163 797.319C955.441 785.172 954.752 780.777 955.785 761.526Z" fill="#FEFBDC"/>
<path fill-rule="evenodd" clip-rule="evenodd" d="M829.036 1157.69C829.036 1157.69 822.629 1146.38 826.232 1113.24C829.837 1080.1 831.839 1012.23 832.639 987.169C833.441 962.125 823.429 910.821 833.842 918.092C844.253 925.364 848.657 924.945 855.866 927.783C863.072 930.621 851.059 956.462 848.256 989.196C845.454 1021.93 836.244 1133.85 839.447 1143.95C842.651 1154.06 837.845 1164.96 829.036 1157.69Z" fill="#FEFBDC"/>
<path fill-rule="evenodd" clip-rule="evenodd" d="M974.591 1161.59C974.591 1161.59 980.999 1150.37 977.393 1117.5C973.79 1084.64 971.789 1017.31 970.988 992.435C970.187 967.591 980.198 916.698 969.785 923.911C959.374 931.124 954.97 930.722 947.762 933.524C940.554 936.339 952.568 961.974 955.372 994.459C958.174 1026.92 967.384 1137.94 964.181 1147.96C960.976 1157.99 965.782 1168.81 974.591 1161.59Z" fill="#FEFBDC"/>
<path fill-rule="evenodd" clip-rule="evenodd" d="M839.012 1136.31C838.743 1135.75 841.174 1063.14 849.554 1026.29C857.934 989.442 865.501 955.624 864.961 948.195C864.421 940.765 850.636 935.547 856.852 929.493C863.069 923.439 872.529 919.326 873.611 928.953C874.692 938.567 859.284 1003.2 853.879 1052.98C848.473 1102.75 846.311 1148.13 839.823 1148.4C833.335 1148.69 839.282 1136.85 839.012 1136.31Z" fill="#FEFBDC"/>
<path fill-rule="evenodd" clip-rule="evenodd" d="M964.617 1142.13C964.887 1141.58 962.454 1068.97 954.075 1032.12C945.695 995.267 938.127 961.45 938.667 954.021C939.208 946.605 952.994 941.373 946.777 935.319C940.558 929.265 931.098 925.153 930.017 934.766C928.936 944.394 944.343 1009.02 949.749 1058.8C955.157 1108.57 957.318 1153.96 963.805 1154.23C970.291 1154.51 964.346 1142.67 964.617 1142.13Z" fill="#FEFBDC"/>
<path fill-rule="evenodd" clip-rule="evenodd" d="M831.308 892.157C831.308 892.157 825.086 917.073 833.139 922.868C838.313 926.606 850.975 928.3 857.127 926.162C863.278 924.024 861.88 921.187 861.88 921.187C861.88 921.187 861.773 924.535 854.039 925.692C846.3 926.835 834.335 926.001 831.292 918.431C828.854 912.367 831.308 892.157 831.308 892.157Z" fill="#12130F"/>
<path fill-rule="evenodd" clip-rule="evenodd" d="M972.318 896.04C972.318 896.04 978.541 920.952 970.488 926.747C965.314 930.484 952.652 932.178 946.502 930.054C940.349 927.916 941.747 925.066 941.747 925.066C941.747 925.066 941.854 928.414 949.589 929.57C957.327 930.726 969.291 929.879 972.335 922.31C974.774 916.233 972.318 896.04 972.318 896.04Z" fill="#12130F"/>
<path fill-rule="evenodd" clip-rule="evenodd" d="M834.839 924.094C834.839 924.094 831.287 924.489 830.421 925.895C829.555 927.315 829.107 930.983 829.107 930.983C829.107 930.983 828.593 926.631 829.99 925.212C831.389 923.792 832.921 923.042 833.637 923.253C834.353 923.463 834.839 924.094 834.839 924.094Z" fill="#12130F"/>
<path fill-rule="evenodd" clip-rule="evenodd" d="M966.847 927.99C966.847 927.99 971.583 928.371 972.736 929.778C973.889 931.198 974.489 934.865 974.489 934.865C974.489 934.865 975.174 930.514 973.31 929.094C971.449 927.674 969.403 926.925 968.448 927.135C967.493 927.346 966.847 927.99 966.847 927.99Z" fill="#12130F"/>
<path fill-rule="evenodd" clip-rule="evenodd" d="M838.722 925.173C838.722 925.173 843.725 922.373 846.526 923.474C847.837 923.975 850.084 925.215 852.054 925.716C854.296 926.287 856.193 926.064 856.193 926.064C856.193 926.064 846.958 927.513 845.244 926.984C843.529 926.454 838.722 925.173 838.722 925.173Z" fill="#12130F"/>
<path fill-rule="evenodd" clip-rule="evenodd" d="M964.905 929.055C964.905 929.055 959.902 926.256 957.101 927.357C955.788 927.858 953.544 929.111 951.573 929.598C949.331 930.169 947.434 929.961 947.434 929.961C947.434 929.961 956.669 931.395 958.384 930.866C960.097 930.337 964.905 929.055 964.905 929.055Z" fill="#12130F"/>
<path fill-rule="evenodd" clip-rule="evenodd" d="M773.937 717.59C771.205 715.765 762.875 731.333 765.434 732.863C767.989 734.365 777.294 719.822 773.937 717.59Z" fill="#FEFBDC"/>
<path fill-rule="evenodd" clip-rule="evenodd" d="M763.781 734.982C760.689 733.852 753.634 746.967 755.581 748.395C757.529 749.811 768.509 736.696 763.781 734.982Z" fill="#FEFBDC"/>
<path fill-rule="evenodd" clip-rule="evenodd" d="M780.572 715.622C774.423 713.203 772.689 747.507 777.186 748.48C781.683 749.466 784.466 717.163 780.572 715.622Z" fill="#FEFBDC"/>
<path fill-rule="evenodd" clip-rule="evenodd" d="M777.318 750.448C772.306 750.649 770.945 771.957 775.47 771.796C779.188 771.676 779.708 766.202 779.802 761.53C779.919 755.775 782.329 750.248 777.318 750.448Z" fill="#FEFBDC"/>
<path fill-rule="evenodd" clip-rule="evenodd" d="M776.063 773.751C770.898 773.248 772.81 788.952 774.573 789.264C776.336 789.576 781.626 774.307 776.063 773.751Z" fill="#FEFBDC"/>
<path fill-rule="evenodd" clip-rule="evenodd" d="M1066.45 427.883C1071.29 431.667 1080.34 399.231 1076.63 397.224C1072.92 395.218 1063.39 425.495 1066.45 427.883Z" fill="#FEFBDC"/>
<path fill-rule="evenodd" clip-rule="evenodd" d="M1076.24 395.152C1081.47 396.128 1088.41 376.74 1083.7 375.846C1079.83 375.12 1077.87 380.048 1076.56 384.333C1074.94 389.638 1071.01 394.188 1076.24 395.152Z" fill="#FEFBDC"/>
<path fill-rule="evenodd" clip-rule="evenodd" d="M1083.2 373.678C1088.44 375.595 1090.25 359.13 1088.5 358.335C1086.74 357.541 1077.55 371.607 1083.2 373.678Z" fill="#FEFBDC"/>
<path fill-rule="evenodd" clip-rule="evenodd" d="M787.682 717.537C781.09 715.407 780.982 749.661 785.764 750.43C790.545 751.198 791.856 718.885 787.682 717.537Z" fill="#FEFBDC"/>
<path fill-rule="evenodd" clip-rule="evenodd" d="M786.656 750.468C781.362 750.947 780.996 774.139 785.777 773.733C789.703 773.414 789.978 767.467 789.844 762.376C789.677 756.125 791.95 750.004 786.656 750.468Z" fill="#FEFBDC"/>
<path fill-rule="evenodd" clip-rule="evenodd" d="M785.529 775.683C780.259 775.426 782.904 790.991 784.71 791.208C786.515 791.424 791.205 775.94 785.529 775.683Z" fill="#FEFBDC"/>
<path fill-rule="evenodd" clip-rule="evenodd" d="M1060.92 424.077C1066.23 427.428 1072.46 393.017 1068.47 391.365C1064.48 389.728 1057.56 421.955 1060.92 424.077Z" fill="#FEFBDC"/>
<path fill-rule="evenodd" clip-rule="evenodd" d="M794.123 717.498C787.501 715.862 790.245 750.024 794.984 750.439C799.72 750.842 798.315 718.53 794.123 717.498Z" fill="#FEFBDC"/>
<path fill-rule="evenodd" clip-rule="evenodd" d="M795.475 750.521C790.2 751.325 791.658 772.492 796.424 771.78C800.336 771.2 800.143 765.744 799.609 761.131C798.948 755.437 800.748 749.704 795.475 750.521Z" fill="#FEFBDC"/>
<path fill-rule="evenodd" clip-rule="evenodd" d="M796.773 775.682C791.464 775.857 795.304 791.129 797.131 791.21C798.959 791.277 802.488 775.467 796.773 775.682Z" fill="#FEFBDC"/>
<path fill-rule="evenodd" clip-rule="evenodd" d="M1052.25 420.305C1058.47 422.694 1060.01 388.402 1055.46 387.442C1050.92 386.499 1048.31 418.8 1052.25 420.305Z" fill="#12130F"/>
<path fill-rule="evenodd" clip-rule="evenodd" d="M1052.25 422.248C1058.47 424.621 1060.01 390.329 1055.46 389.385C1050.92 388.425 1048.31 420.727 1052.25 422.248Z" fill="#FEFBDC"/>
<path fill-rule="evenodd" clip-rule="evenodd" d="M798.573 707.746C792.052 707.034 799.515 740.968 804.076 740.735C808.634 740.489 802.703 708.197 798.573 707.746Z" fill="#FEFBDC"/>
<path fill-rule="evenodd" clip-rule="evenodd" d="M1047.23 430.11C1054.32 431.098 1047.68 397.069 1042.69 397.129C1037.69 397.174 1042.73 429.482 1047.23 430.11Z" fill="#FEFBDC"/>
<path fill-rule="evenodd" clip-rule="evenodd" d="M803.796 740.83C800.499 741.643 801.338 759.066 806.523 758.175C810.776 757.441 809.555 753.455 809.031 748.893C808.562 744.802 807.091 740.004 803.796 740.83Z" fill="#FEFBDC"/>
<path fill-rule="evenodd" clip-rule="evenodd" d="M807.086 760.159C800.082 760.593 806.007 775.693 808.425 775.68C810.844 775.666 814.625 759.699 807.086 760.159Z" fill="#FEFBDC"/>
<path fill-rule="evenodd" clip-rule="evenodd" d="M993.052 567.962C993.052 567.962 981.618 565.229 984.915 556.744C988.214 548.273 1005.67 517.489 1005.67 517.489C1005.67 517.489 983.924 555.811 985.559 560.669C987.195 565.526 993.052 567.962 993.052 567.962Z" fill="#12130F"/>
<path fill-rule="evenodd" clip-rule="evenodd" d="M1043.46 396.99C1045.69 395.99 1044.13 378.512 1040.6 379.717C1037.7 380.702 1038.77 384.633 1039.39 389.187C1039.94 393.262 1041.23 398.005 1043.46 396.99Z" fill="#12130F"/>
<path fill-rule="evenodd" clip-rule="evenodd" d="M1039.69 377.681C1046.45 376.876 1039.45 362.037 1037.1 362.187C1034.76 362.336 1032.42 378.563 1039.69 377.681Z" fill="#12130F"/>
<path fill-rule="evenodd" clip-rule="evenodd" d="M1045.06 398.931C1048.03 397.93 1045.95 380.468 1041.24 381.656C1037.38 382.643 1038.8 386.574 1039.62 391.127C1040.36 395.218 1042.08 399.945 1045.06 398.931Z" fill="#FEFBDC"/>
<path fill-rule="evenodd" clip-rule="evenodd" d="M1040.41 379.622C1045.47 378.815 1040.22 363.994 1038.47 364.128C1036.71 364.277 1034.96 380.504 1040.41 379.622Z" fill="#FEFBDC"/>
<path fill-rule="evenodd" clip-rule="evenodd" d="M850.43 927.117C849.587 926.943 857.73 928.081 858.116 932.179C858.501 936.264 852.756 960.102 852.756 960.102C852.756 960.102 858.525 937.496 856.573 932.568C854.622 927.613 851.744 927.412 850.43 927.117Z" fill="#12130F"/>
</g>
<defs>
<filter id="filter0_f_8_13" x="-638.077" y="357.197" width="1924.65" height="984.378" filterUnits="userSpaceOnUse" color-interpolation-filters="sRGB">
<feFlood flood-opacity="0" result="BackgroundImageFix"/>
<feBlend mode="normal" in="SourceGraphic" in2="BackgroundImageFix" result="shape"/>
<feGaussianBlur stdDeviation="150" result="effect1_foregroundBlur_8_13"/>
</filter>
<filter id="filter1_f_8_13" x="479.924" y="404.489" width="1924.65" height="984.378" filterUnits="userSpaceOnUse" color-interpolation-filters="sRGB">
<feFlood flood-opacity="0" result="BackgroundImageFix"/>
<feBlend mode="normal" in="SourceGraphic" in2="BackgroundImageFix" result="shape"/>
<feGaussianBlur stdDeviation="150" result="effect1_foregroundBlur_8_13"/>
</filter>
<clipPath id="clip0_8_13">
<rect width="1920" height="1080" fill="white"/>
</clipPath>
</defs>
</svg>
