<svg width="115" height="134" viewBox="0 0 115 134" fill="none" xmlns="http://www.w3.org/2000/svg">
<path d="M1.30713 67.1542L18.9689 59.4271V39.5576L38.8384 50.5962L56.5002 42.8692L18.9689 20.792L1.30713 29.6229V67.1542Z" fill="white"/>
<path d="M115.001 29.6203L99.5467 21.8933L79.6772 32.9319L92.9236 39.5551L0.199219 82.6057V104.683L14.5494 111.306L35.5228 102.475L22.2764 94.7482L115.001 52.8014V29.6203Z" fill="white"/>
<path d="M114.999 102.478V67.1543L98.4408 73.7775V93.647L77.4674 83.7122L59.8057 93.647L98.4408 112.413L114.999 102.478Z" fill="white"/>
<path d="M58.7072 113.517L48.7725 109.102L30.0068 117.933L58.7072 133.387L87.4076 117.933L70.8497 109.102L58.7072 113.517Z" fill="white"/>
<path d="M58.7072 0.921631L30.0068 15.2718L47.6686 26.3104L58.7072 20.7911L67.5381 26.3104L87.4076 17.4795L58.7072 0.921631Z" fill="white"/>
</svg>
