<svg width="335" height="728" viewBox="0 0 335 728" fill="none" xmlns="http://www.w3.org/2000/svg">
<path fill-rule="evenodd" clip-rule="evenodd" d="M207.304 688.005C206.25 694.072 205.247 700.149 204.129 706.202C203.194 711.283 202.195 716.351 201.099 721.4C200.119 725.928 199.447 726.66 194.977 726.869C188.268 727.184 181.542 727.239 174.82 727.29C171.443 727.316 169.637 725.35 168.445 722.264C165.324 714.212 163.303 705.827 160.604 697.65C160.128 696.195 159.65 694.74 159.036 692.894C156.086 702.159 153.271 711.013 150.44 719.865C150.071 721.008 149.588 722.119 149.187 723.253C148.194 726.098 146.006 727.303 143.194 727.29C136.645 727.255 130.09 727.203 123.551 726.917C118.515 726.693 118.001 726.073 116.838 720.851C114.849 711.938 113.239 702.949 111.828 693.924C111.516 691.946 111.128 689.984 110.575 686.891C108.512 691.936 107.67 696.14 106.648 700.274C104.874 707.465 103.261 714.697 101.497 721.888C100.373 726.497 99.9387 727.03 95.3115 727.251C86.8732 727.666 78.4188 727.952 69.974 728C64.9998 728.025 63.9554 726.375 64.6238 721.544C68.2164 695.611 73.0396 669.85 75.7452 643.791C76.314 638.319 77.4933 632.907 78.422 627.476C79.28 622.469 79.1964 622.453 74.5627 620.966C60.1797 616.332 47.9079 608.059 36.7768 598.128C25.1026 587.716 15.4818 575.657 8.74012 561.365C3.26133 549.752 1.06658 537.477 0.292162 524.839C-1.59087 494.117 5.62634 465.614 22.0049 439.622C30.9798 425.385 42.233 413.017 55.8417 402.923C59.717 400.052 63.4348 396.953 67.3905 394.191C83.1713 383.185 100.9 376.707 119.38 371.909C137.632 367.175 156.186 366.057 174.826 367.734C191.012 369.192 206.77 373.193 221.902 379.196C250.704 390.619 274.065 409.147 292.313 434.108C302.934 448.637 309.711 464.882 314.016 482.327C318.033 498.61 318.824 514.967 317.23 531.593C315.713 547.398 310.553 561.799 301.671 574.896C289.203 593.276 272.834 607.224 253.107 617.327C249.862 618.985 246.449 620.134 242.953 621.127C239.055 622.235 238.811 622.53 239.495 626.503C240.787 633.973 242.175 641.431 242.934 648.978C244.836 668.023 248.464 686.82 251.105 705.759C251.87 711.216 252.423 716.692 253.49 722.113C254.306 726.23 252.918 728 248.557 727.974C239.765 727.919 230.97 727.608 222.191 727.184C218.207 726.991 217.667 726.378 216.668 722.344C214.855 714.986 213.21 707.587 211.41 700.222C210.398 696.089 209.213 692.004 208.114 687.893C207.837 687.932 207.574 687.97 207.304 688.005Z" fill="#110F0D"/>
<path fill-rule="evenodd" clip-rule="evenodd" d="M72.2665 707.956C73.7918 696.228 75.272 684.498 76.8553 672.781C78.8085 658.345 80.8519 643.922 82.8502 629.49C83.732 624.089 83.7127 618.601 84.0827 613.168C84.3788 608.709 81.6789 605.075 78.4513 601.978C73.1353 596.885 66.3937 594.733 59.5427 592.972C44.1384 589.017 31.0188 581.341 20.2838 569.617C13.9605 560.553 10.2535 550.433 8.30339 539.641C3.17721 511.306 6.614 483.893 18.5461 457.798C27.6593 437.868 41.4128 421.37 59.06 408.21C62.796 405.424 66.3937 402.436 70.2617 399.85C90.5315 386.317 112.774 378.009 136.944 374.593C162.958 370.914 188.273 373.652 212.942 382.336C227.986 387.634 241.82 395.22 254.672 404.84C265.974 413.293 276.075 422.758 284.805 433.791C295.569 447.401 302.623 462.765 307.228 479.405C313.094 500.626 313.432 521.989 308.901 543.403C305.487 559.484 297.449 573.2 285.948 584.917C276.226 593.084 264.439 596.879 252.606 600.557C250.476 601.219 248.314 601.778 246.183 602.459C239.181 604.692 235.304 609.248 235.075 616.779C234.943 621.024 234.139 625.265 235.185 629.499C238.608 654.271 242.035 679.043 245.44 703.821C245.63 705.18 245.665 706.548 245.768 707.917C246.415 714.237 245.936 714.687 239.867 714.969C233.373 715.275 228.868 713.353 226.271 706.667C221.991 695.657 216.543 685.134 210.319 675.052C206.567 671.849 205.084 672.144 203.546 676.479C202.986 678.047 202.551 679.659 202.056 681.253C199.729 689.52 196.888 697.6 193.708 705.578C192.434 708.768 191.124 711.882 187.047 711.634C182.327 711.358 176.985 711.997 174.501 706.478C170.755 698.143 165.999 690.349 161.819 682.252C161.416 681.545 161.008 680.845 160.599 680.148C157.388 678.904 155.843 680.485 154.842 683.348C152.464 690.175 148.953 696.553 146.607 703.393C145.053 707.927 142.115 710.121 137.279 709.777C135.737 709.668 134.173 709.691 132.629 709.768C127.972 710.002 125.192 707.959 124.03 703.38C121.742 694.375 118.087 685.828 114.927 677.115C114.759 676.813 114.586 676.52 114.422 676.215C112.185 671.974 111.522 671.859 107.699 675.046C103.374 682.291 99.8764 689.944 96.43 697.626C95.7961 699.04 95.175 700.457 94.496 701.848C90.3224 710.41 83.333 713.356 74.2004 710.378C73.0742 710.012 71.7838 709.655 72.2665 707.956Z" fill="#F0F0EF"/>
<path fill-rule="evenodd" clip-rule="evenodd" d="M20 570C22.8833 572.141 25.8346 574.199 28.637 576.446C34.0606 580.786 40.2997 583.8 46.2185 587.325C50.1309 589.657 54.5901 590.449 58.9167 591.637C65.0782 593.33 71.2655 595.008 76.5662 598.814C79.3945 600.845 82.0739 603.086 83.7049 606.171C85.9442 610.405 86.9571 614.864 84.831 619.536C84.035 621.297 84.0123 623.206 83.9444 625.106C83.8861 626.783 84.3391 628.596 82.9185 630C82.9444 627.601 82.6823 625.148 83.0674 622.804C83.5334 619.996 82.1645 618.625 79.964 617.617C78.5563 616.976 77.0839 616.467 75.6406 615.885C53.218 606.905 35.0897 592.577 21.4465 572.692C20.8737 571.858 20.4789 570.898 20 570Z" fill="#B9B8B7"/>
<path fill-rule="evenodd" clip-rule="evenodd" d="M115 677C120.399 684.346 122.536 693.088 125.193 701.604C125.349 702.091 125.346 702.63 125.479 703.13C126.823 708.041 127.001 708.27 132.115 708.202C135.485 708.157 139.331 709.427 142.102 707.58C144.883 705.722 145 701.553 146.382 698.441C148.744 693.091 150.986 687.696 153.37 682.356C154.978 678.745 156.179 678.38 160 680.044C157.536 679.428 156.303 680.334 155.653 682.924C153.789 690.289 151.56 697.557 149.699 704.919C148.389 710.121 146.769 715.212 145.228 720.336C144.711 722.039 143.979 722.994 142.039 722.79C137.108 722.287 132.181 722.855 127.248 722.977C123.221 723.074 123.117 723.045 122.346 718.86C120.564 709.169 118.884 699.46 117.178 689.757C116.436 685.507 115.726 681.253 115 677Z" fill="#B9B8B7"/>
<path fill-rule="evenodd" clip-rule="evenodd" d="M162 682.006C168.252 688.643 171.954 696.852 175.538 705.07C176.709 707.756 177.826 709.626 180.999 709.374C181.64 709.322 182.313 709.717 182.987 709.833C189.469 710.966 190.148 710.5 192.373 704.41C194.987 697.266 197.747 690.17 200.447 683.064C200.757 682.262 201.101 681.453 201.906 681C202.324 683.828 201.245 686.472 200.789 689.18C199.167 698.9 197.422 708.604 195.66 718.295C194.773 723.119 194.712 723.126 189.65 722.948C185.218 722.789 180.775 722.252 176.349 722.779C174.022 723.061 173.081 722.11 172.353 719.955C169.375 711.102 167.528 701.932 164.923 692.975C163.864 689.342 162.973 685.663 162 682.006Z" fill="#B9B8B7"/>
<path fill-rule="evenodd" clip-rule="evenodd" d="M71.8672 708.057C73.3143 709.868 75.3718 709.274 77.2226 709.29C89.3413 709.38 89.4463 709.406 94.362 698.404C96.7542 693.053 99.3598 687.819 102.087 682.645C103.59 679.793 104.922 676.714 108 675C103.478 688.816 100.183 702.939 97.1873 717.132C96.1307 722.112 96.1274 722.086 90.7884 721.97C84.291 721.828 77.7936 721.738 71.2995 721.602C70.9812 721.596 70.6694 721.344 70 721.05C70.5611 716.784 70.7908 712.375 71.8672 708.057Z" fill="#B8B7B6"/>
<path fill-rule="evenodd" clip-rule="evenodd" d="M234.575 630C233.108 624.49 232.58 618.912 233.359 613.243C234.18 607.215 238.056 603.783 243.461 601.821C246.561 600.699 249.779 599.892 252.941 598.932C262.799 595.952 272.406 592.397 281.276 587.059C282.727 586.184 284.161 585.071 286 585C279.272 593.604 270.763 600.174 261.505 605.804C254.516 610.062 247.334 613.98 239.526 616.704C234.643 618.406 234.421 619.071 234.568 624.276C234.617 626.18 234.575 628.087 234.575 630Z" fill="#B9B8B7"/>
<path fill-rule="evenodd" clip-rule="evenodd" d="M210 675C213.933 677.815 215.93 682.082 218.177 686.087C222.286 693.453 225.699 701.173 228.826 708.993C229.885 711.635 231.561 712.847 234.11 713.17C235.994 713.408 237.903 713.408 239.806 713.437C245.23 713.515 245.23 713.499 245.775 707.987C247.334 712.247 246.643 716.775 248 721.522C239.361 721.69 231.402 721.848 223.435 721.999C221.818 722.032 221.565 720.929 221.305 719.648C220.448 715.595 219.402 711.576 218.59 707.516C216.388 696.503 213.374 685.707 210 675Z" fill="#B8B7B6"/>
<path fill-rule="evenodd" clip-rule="evenodd" d="M135.983 506.091C136.119 513.236 135.509 521.697 131.564 529.471C126.351 539.725 119.267 548.931 108.752 553.564C91.8972 560.976 68.4042 560.834 55.8239 539.535C44.5274 520.41 42.1758 500.275 48.2886 479.062C53.8594 459.728 72.7041 446.492 93.1616 447.015C111.113 447.476 123.68 457.021 131.348 472.976C133.838 478.153 133.409 484.149 134.735 489.694C135.915 494.617 135.673 499.675 135.983 506.091Z" fill="#100F0D"/>
<path fill-rule="evenodd" clip-rule="evenodd" d="M272.98 502.067C273.331 515.526 269.037 527.656 262.457 539.108C254.458 553.032 242.255 558.703 226.445 557.931C212.472 557.252 202.019 550.929 193.298 540.226C185.167 530.254 182.056 519.077 182.001 506.526C181.943 496.208 183.707 486.13 185.677 476.125C187.163 468.561 192.276 462.822 197.889 457.82C209.202 447.728 222.334 444.833 236.99 448.562C257.772 453.852 270.794 470.105 272.57 493.756C272.777 496.519 272.848 499.298 272.98 502.067Z" fill="#100F0D"/>
<path fill-rule="evenodd" clip-rule="evenodd" d="M185.724 611.002C185.782 611.683 185.82 612.356 185.881 613.033C186.49 619.563 184.85 622.147 178.823 624.184C173.655 625.93 169.756 624.544 166.584 619.578C164.754 616.714 163.332 613.59 161.483 610.726C159.25 607.255 157.863 607.29 155.585 610.84C153.928 613.421 152.615 616.206 151.019 618.825C146.838 625.666 141.122 626.81 134.528 622.322C132.026 620.624 130.716 618.421 131.052 615.433C131.414 612.226 131.949 609.041 132.407 605.843C134.73 591.752 140.635 578.843 145.989 565.773C148.267 560.216 152.858 557.956 158.731 558.001C164.396 558.048 168.83 560.273 171.05 565.614C176.551 578.84 182.184 592.029 185.744 605.961C186.182 607.681 185.337 609.321 185.724 611.002Z" fill="#110F0E"/>
<path fill-rule="evenodd" clip-rule="evenodd" d="M185.838 611C182.349 595.507 175.763 581.103 170.378 566.279C168.47 561.016 164.384 558.708 158.748 558.923C152.842 559.148 149.33 561.116 147.346 566.629C142.802 579.239 137.299 591.491 133.714 604.451C133.587 604.93 133.241 605.338 133 605.782C133.152 598.555 134.134 591.414 136.039 584.476C137.899 577.702 139.274 570.77 142.116 564.276C143.592 560.919 145.352 557.901 148.041 555.37C153.264 550.455 160.116 549.654 166.305 553.13C174.424 557.695 177.907 565.565 180.437 573.828C183.651 584.322 185.543 595.156 186.937 606.062C187.159 607.843 186.794 609.486 185.838 611Z" fill="#B9B8B7"/>
<path fill-rule="evenodd" clip-rule="evenodd" d="M129.901 503.002C129.891 507.642 130.331 512.304 129.431 516.912C126.729 530.754 119.066 540.995 107.147 548.177C102.424 551.027 96.9991 550.943 91.842 551.971C91.1112 552.116 90.1571 551.685 89.4486 551.274C81.1865 546.438 75.5732 539.305 73.6489 529.983C69.7141 510.919 72.6468 493.105 84.3363 477.039C88.1211 471.83 92.3399 467.245 97.3565 463.28C100.241 460.995 103.592 459.739 106.901 458.373C109.004 457.506 110.779 458.245 112.579 459.617C123.802 468.193 129.613 479.507 129.894 493.693C129.952 496.794 129.901 499.898 129.901 503.002Z" fill="#3F3E40"/>
<path fill-rule="evenodd" clip-rule="evenodd" d="M78.3474 550C73.0921 549.298 68.912 546.721 65.5113 542.908C57.2516 533.649 52.7596 522.657 51.4571 510.478C50.46 501.119 51.0738 491.776 53.5 482.595C59.0217 461.707 80.6146 449.884 100.402 453.716C101.074 453.842 101.714 454.146 103 454.586C96.3026 457.377 91.0245 461.326 86.5195 466.244C71.8255 482.288 64.2413 500.67 67.1158 522.812C68.4248 532.925 71.728 541.938 78.3474 550Z" fill="#F57732"/>
<path fill-rule="evenodd" clip-rule="evenodd" d="M187.065 502.576C186.866 495.156 187.116 487.762 189.212 480.589C191.943 471.252 198.164 464.484 205.713 458.783C207.412 457.504 209.239 458.028 211.104 458.69C219.175 461.558 225.178 467.115 230.442 473.59C234.592 478.694 237.724 484.463 240.404 490.418C243.096 496.396 245.16 502.595 244.99 509.315C244.878 513.789 245.141 518.289 244.779 522.744C243.82 534.526 239.099 544.226 228.701 550.609C227.506 551.344 226.422 552.125 224.935 551.983C214.066 550.939 204.912 546.87 197.863 538.059C192.693 531.584 188.856 524.687 187.504 516.49C186.744 511.881 187.071 507.214 187.065 502.576Z" fill="#3F3E40"/>
<path fill-rule="evenodd" clip-rule="evenodd" d="M239.268 549.741C239.3 549.429 239.207 548.984 239.379 548.817C253.563 535.056 253.659 500.065 243.604 483.856C237.919 474.698 232.228 465.876 223.531 459.349C221.034 457.478 218.245 456.309 215 454.614C221.655 452.63 227.823 452.482 233.975 454.131C252.135 458.992 262.33 471.013 265.034 489.757C267.127 504.301 266.084 518.383 259.267 531.635C255.335 539.279 250.5 546.092 242.134 549.371C241.498 549.616 240.852 549.857 240.194 549.989C239.914 550.05 239.58 549.835 239.268 549.741Z" fill="#F57732"/>
<path fill-rule="evenodd" clip-rule="evenodd" d="M180.886 613.446C181.346 616.039 180.431 617.909 177.847 618.626C175.379 619.311 173.021 619.257 171.477 616.709C170.237 614.653 168.906 612.639 167.778 610.523C166.631 608.356 165.136 606.492 163.28 604.933C160.496 602.602 156.578 602.564 153.798 604.863C151.935 606.403 150.421 608.26 149.268 610.427C148.146 612.543 146.799 614.551 145.578 616.619C144.074 619.174 141.754 619.312 139.253 618.658C136.656 617.976 135.864 616.164 136.018 613.574C136.163 611.151 136.573 608.82 137.33 606.528C140.768 596.11 144.309 585.72 148.559 575.587C149.683 572.908 150.453 570.071 151.649 567.423C153.047 564.311 155.544 562.771 159.101 563.027C162.781 563.29 164.933 564.647 166.022 568.166C169.924 580.78 175.656 592.751 179.307 605.449C180.067 608.09 181.092 610.654 180.886 613.446Z" fill="#3F3E40"/>
<path fill-rule="evenodd" clip-rule="evenodd" d="M184.509 318C184.509 318 270.518 304.076 274.781 293.815C279.045 283.546 271.111 272.89 266.489 273.001C261.867 273.105 164 304.776 164 304.776L184.509 318Z" fill="#15030B"/>
<path fill-rule="evenodd" clip-rule="evenodd" d="M37.9931 312.068L208.565 285.072C211.798 284.568 214.83 286.762 215.349 289.983L217.924 306.178C218.444 309.399 216.235 312.42 213.009 312.937L42.4325 339.926C39.2017 340.437 36.1689 338.237 35.6525 335.022L33.0752 318.821C32.5581 315.6 34.7623 312.572 37.9931 312.068Z" fill="#15030B"/>
<path fill-rule="evenodd" clip-rule="evenodd" d="M278.998 312.068L108.44 285.072C105.209 284.568 102.169 286.762 101.659 289.983L99.0752 306.178C98.5581 309.399 100.762 312.42 103.993 312.937L274.56 339.926C277.793 340.437 280.825 338.237 281.344 335.022L283.926 318.821C284.438 315.6 282.23 312.572 278.998 312.068Z" fill="#15030B"/>
<path fill-rule="evenodd" clip-rule="evenodd" d="M69.6032 291C69.6032 291 31.3231 278.549 25.9803 251.742C20.6396 224.936 27.914 191.901 26.8269 188.157C25.7313 184.412 70.7532 248.96 71.7936 259.48C72.834 269.987 69.6032 291 69.6032 291Z" fill="#DA504A"/>
<path fill-rule="evenodd" clip-rule="evenodd" d="M233.127 289.928C233.127 289.928 271.305 302.265 279.078 277.494C286.851 252.729 290.526 202.105 306.308 198.297C331.686 192.167 335 152 335 152C335 152 327.574 183.685 295.969 186.723C272.366 188.991 195.691 277.917 233.127 289.928Z" fill="#DA504A"/>
<path fill-rule="evenodd" clip-rule="evenodd" d="M6 161.997C6 87.9939 75.8447 28 162.001 28C248.159 28 318 87.9939 318 161.997C318 236.006 248.159 296 162.001 296C75.8447 296 6 236.006 6 161.997Z" fill="#3E5163"/>
<path fill-rule="evenodd" clip-rule="evenodd" d="M211.333 35C143.115 41.0346 52 71.4905 52 71.4905C52 71.4905 89.4109 102.285 142.667 116.37C176.39 125.291 222.011 122.004 250.85 117.489C274.172 113.843 289.619 105.889 298 96.2778C279.19 67.6033 248.351 45.5156 211.333 35Z" fill="#2A3540"/>
<path fill-rule="evenodd" clip-rule="evenodd" d="M118.564 256.189C118.564 256.189 135.378 197.864 131.889 178.991C128.408 160.125 132.519 135 132.519 135C132.519 135 134.915 164.747 143.985 178.107C153.055 191.48 170.71 204.561 166.099 219.947C161.488 235.325 158.44 262.295 158.44 262.295C158.44 262.295 191.256 214.53 199.371 202.438C207.479 190.345 218.668 182.2 220.153 165.966C221.631 149.745 223.578 138.578 223.578 138.578C223.578 138.578 232.129 157.779 229.338 169.231C226.548 180.69 220.85 224.353 223.634 231.343C226.41 238.325 249.927 233.25 256.419 224.36C262.911 215.463 272.255 204.547 283.112 197.6C293.976 190.659 306 169.112 306 169.112C306 169.112 305.703 192.643 297.153 207.095C288.596 221.534 281.13 254.63 250.203 272.751C241.666 277.75 224.117 295.523 204.682 297.291C153.662 301.928 82.952 282.504 78.0533 277.248C71.2808 269.994 59.0101 230.159 68.4215 215.999C77.833 201.853 73.6242 181.483 94.358 166.042C88.5787 187.616 91.1576 197.836 95.086 215.199C99.0144 232.547 117.837 228.363 117.837 228.363L118.564 256.189Z" fill="#2A3540"/>
<path fill-rule="evenodd" clip-rule="evenodd" d="M161.86 -2.09162e-06C98.1851 -2.09162e-06 45.6032 14.4715 36.2656 33.3453C34.35 36.013 33 41.4173 33 47.7201C33 52.6683 33.847 57.0153 35.1212 59.9801C40.5456 80.1601 95.1869 96 161.86 96C226.098 96 279.07 81.2866 287.713 62.164C289.659 59.5171 291 54.092 291 47.7408C291 40.7193 289.36 34.8036 287.081 32.5644C276.687 14.0707 224.652 -2.09162e-06 161.86 -2.09162e-06Z" fill="#3E5163"/>
<path fill-rule="evenodd" clip-rule="evenodd" d="M67 34.4931C67 24.8291 109.532 17 162.003 17C214.463 17 257 24.8291 257 34.4931C257 44.1571 214.463 52 162.003 52C109.532 52 67 44.1571 67 34.4931Z" fill="#2A3540"/>
<path fill-rule="evenodd" clip-rule="evenodd" d="M165.204 28C120.995 28 84.6379 34.7159 80 43.3273C96.3813 48.5023 126.951 52 162.051 52C200.998 52 234.421 47.7046 249 41.575C240.719 33.8227 206.367 28 165.204 28Z" fill="#DA504A"/>
<path fill-rule="evenodd" clip-rule="evenodd" d="M148 38C148 36.8904 154.043 36 161.497 36C168.958 36 175 36.8904 175 38C175 39.1025 168.958 40 161.497 40C154.043 40 148 39.1025 148 38Z" fill="#9C332F"/>
<path fill-rule="evenodd" clip-rule="evenodd" d="M149 37.0901C149 33.1698 152.582 30 157 30C161.418 30 165 33.1698 165 37.0901C165 37.968 160.743 39 156.326 39C151.908 39 149 37.968 149 37.0901Z" fill="#F07168"/>
<path fill-rule="evenodd" clip-rule="evenodd" d="M156 30C156 30 154.042 30.3864 152.788 31.4621C151.836 32.2803 151 33.5833 151 33.5833L152.339 34C152.339 34 152.649 32.9091 153.686 31.7046C154.8 30.4091 156 30 156 30Z" fill="#E0C1BF"/>
<path fill-rule="evenodd" clip-rule="evenodd" d="M173 47.0027C173 46.4499 176.813 46 181.503 46C186.201 46 190 46.4499 190 47.0027C190 47.5556 186.201 48 181.503 48C176.813 48 173 47.5556 173 47.0027Z" fill="#9C332F"/>
<path fill-rule="evenodd" clip-rule="evenodd" d="M173 46.7314C173 44.1189 175.458 42 178.5 42C181.528 42 184 44.1189 184 46.7314C184 47.3143 181.063 48 178.035 48C175 48 173 47.3143 173 46.7314Z" fill="#F07168"/>
<path fill-rule="evenodd" clip-rule="evenodd" d="M178 42C178 42 176.834 42.1919 176.076 42.7384C175.505 43.1395 175 43.7965 175 43.7965L175.81 44C175.81 44 175.991 43.4593 176.62 42.8488C177.281 42.2093 178 42 178 42Z" fill="#E0C1BF"/>
<path fill-rule="evenodd" clip-rule="evenodd" d="M215.051 314.878C215.051 314.878 256.627 318.159 260.674 290.74C264.722 263.335 229.583 225.866 235.442 201.867C241.315 177.861 254.14 167 254.14 167C254.14 167 220.345 187.933 214.48 211.939C208.607 235.938 216.152 275.65 207.221 286.525C198.276 297.392 194.437 316.276 215.051 314.878Z" fill="#FF6F59"/>
<path fill-rule="evenodd" clip-rule="evenodd" d="M205 39C205 38.4456 208.808 38 213.5 38C218.199 38 222 38.4456 222 39C222 39.5543 218.199 40 213.5 40C208.808 40 205 39.5543 205 39Z" fill="#9C332F"/>
<path fill-rule="evenodd" clip-rule="evenodd" d="M205 38.7314C205 36.1189 207.465 34 210.5 34C213.542 34 216 36.1189 216 38.7314C216 39.3211 213.077 40 210.035 40C207 40 205 39.3211 205 38.7314Z" fill="#F07168"/>
<path fill-rule="evenodd" clip-rule="evenodd" d="M210 34C210 34 208.825 34.1924 208.065 34.7347C207.5 35.1429 207 35.7959 207 35.7959L207.805 36C207.805 36 207.981 35.4577 208.61 34.8571C209.279 34.2041 210 34 210 34Z" fill="#E0C1BF"/>
<path fill-rule="evenodd" clip-rule="evenodd" d="M114 45.4919C114 44.673 118.033 44 123 44C127.967 44 132 44.673 132 45.4919C132 46.3189 127.967 47 123 47C118.033 47 114 46.3189 114 45.4919Z" fill="#9C332F"/>
<path fill-rule="evenodd" clip-rule="evenodd" d="M115 44.726C115 42.1164 117.466 40 120.504 40C123.534 40 126 42.1164 126 44.726C126 45.3151 123.071 46 120.032 46C117.002 46 115 45.3151 115 44.726Z" fill="#F07168"/>
<path fill-rule="evenodd" clip-rule="evenodd" d="M120 40C120 40 118.432 40.2957 117.435 41.0957C116.675 41.7044 116 42.6782 116 42.6782L117.074 43C117.074 43 117.321 42.1826 118.157 41.2782C119.04 40.313 120 40 120 40Z" fill="#E0C1BF"/>
<path fill-rule="evenodd" clip-rule="evenodd" d="M228 299.02C228 299.02 243.316 298.062 246.667 286.438C250.004 274.806 246.03 253 246.03 253C246.03 253 263.739 280.559 256.077 295.321C248.416 310.083 228 299.02 228 299.02Z" fill="#FC9F07"/>
<path fill-rule="evenodd" clip-rule="evenodd" d="M97 36.504C97 35.6748 100.803 35 105.503 35C110.197 35 114 35.6748 114 36.504C114 37.3333 110.197 38 105.503 38C100.803 38 97 37.3333 97 36.504Z" fill="#9C332F"/>
<path fill-rule="evenodd" clip-rule="evenodd" d="M97 36.73C97 34.1213 99.4594 32 102.5 32C105.54 32 108 34.1213 108 36.73C108 37.3135 105.076 38 102.036 38C98.9959 38 97 37.3135 97 36.73Z" fill="#F07168"/>
<path fill-rule="evenodd" clip-rule="evenodd" d="M102 32C102 32 100.824 32.1918 100.069 32.7325C99.499 33.1395 99 33.7965 99 33.7965L99.8053 34C99.8053 34 99.9838 33.4593 100.61 32.8546C101.28 32.2093 102 32 102 32Z" fill="#E0C1BF"/>
<path fill-rule="evenodd" clip-rule="evenodd" d="M202.031 301.578C202.031 301.578 212.581 300.168 219.679 287.646C226.776 275.124 228.209 257.625 225.704 244.719C223.2 231.813 228.502 218 228.502 218C228.502 218 225.356 234.382 228.264 243.868C231.184 253.339 238.425 286.941 230.188 299.414C221.944 311.887 201.083 321.436 202.031 301.578Z" fill="#DA504A"/>
<path fill-rule="evenodd" clip-rule="evenodd" d="M134.807 322.792C134.807 322.792 83.0154 325.044 79.2262 290.55C75.43 256.069 120.765 210.77 114.56 180.473C108.362 150.169 92.9181 136 92.9181 136C92.9181 136 133.954 163.712 140.158 194.016C146.363 224.313 135.203 273.657 145.815 287.666C156.426 301.675 160.345 325.468 134.807 322.792Z" fill="#FF6F59"/>
<path fill-rule="evenodd" clip-rule="evenodd" d="M195.063 328.565C195.063 328.565 143.112 328.185 141.064 293.756C139.016 259.327 186.686 216.635 182.01 186.24C177.334 155.845 162.602 141 162.602 141C162.602 141 202.272 170.587 206.948 200.982C211.616 231.377 197.944 279.795 207.866 294.24C217.781 308.684 220.502 332.51 195.063 328.565Z" fill="#FF6F59"/>
<path fill-rule="evenodd" clip-rule="evenodd" d="M96.7715 313.935C94.039 312.256 56.1749 305.794 51.1541 279.116C46.1333 252.431 53.2815 239.583 56.5423 218.199C59.619 198.018 50.1127 176.344 48.138 174.147C46.1716 171.956 65.7962 194.749 70.3653 213.866C74.9421 232.99 76.1975 253.613 89.1479 268.887C102.106 284.175 99.4962 315.615 96.7715 313.935Z" fill="#FF6F59"/>
<path fill-rule="evenodd" clip-rule="evenodd" d="M189.478 178C189.478 178 202.689 200.06 199.338 227.967C195.981 255.874 183.125 289.961 190.545 304.605C197.971 319.257 201 319 201 319C201 319 177.176 312.264 181.532 284.649C185.895 257.034 196.87 233.168 196.145 216.718C195.42 200.269 189.478 178 189.478 178Z" fill="#FC9F07"/>
<path fill-rule="evenodd" clip-rule="evenodd" d="M144.127 317.675C144.127 317.675 123 292.746 123 270.033C123 243.691 147.473 196 147.473 196C147.473 196 128.734 247.375 146.637 276.272C157.05 293.085 164.502 321.345 144.127 317.675Z" fill="#DA504A"/>
</svg>
