<svg width="136" height="113" viewBox="0 0 136 113" fill="none" xmlns="http://www.w3.org/2000/svg">
<path d="M62.0902 55.5C64.8902 55.1 65.5902 49.3333 65.5902 46.5C72.0901 43 65.0902 57 64.0902 58C63.0902 59 61.5902 57 61.0902 60C60.5902 63 57.0902 70.5 48.0902 75.5C39.0902 80.5 22.0902 76 17.5902 72C13.0902 68 13.5902 66 12.0902 63.5C10.5902 61 -8.90983 81.5 7.59017 91.5C20.7902 99.5 40.0902 99.5 48.0902 98.5C46.0902 101 49.0902 109 53.0902 110C57.0902 111 56.0902 108 57.0902 106C57.8902 104.4 59.4235 105 60.0902 105.5C59.5902 110.5 63.0902 112.5 66.5902 112.5C70.0902 112.5 69.5902 105.5 71.5902 107C73.5902 108.5 70.0902 111 76.5902 111.5C83.0902 112 76.5902 108 79.5902 107C82.5902 106 81.0902 107 83.5902 110C86.0902 113 88.0902 110 89.5902 108.5C91.0902 107 89.0902 100.5 92.0902 101C95.0902 101.5 103.09 107 114.09 103C125.09 99 132.09 82.5 134.09 75C136.09 67.5 132.59 56.5 132.09 54.5C131.59 52.5 129.59 46.5 128.09 47.5C126.59 48.5 129.09 59.5 128.09 63.5C127.09 67.5 120.59 89 104.09 83C87.5902 77 90.5902 60.5 88.5902 59C86.5902 57.5 86.0902 55 85.5902 52C85.0902 49 86.5902 47.5 88.0902 49C89.5902 50.5 86.5902 57.5 92.0902 57C97.5902 56.5 123.59 46 126.09 44.5C128.59 43 128.09 42.5 119.09 25C110.09 7.5 94.0902 1 85.5902 1C77.0902 1 54.0902 14.5 48.0902 18.5C42.0902 22.5 30.0902 36 29.0902 38C28.0902 40 58.5902 56 62.0902 55.5Z" fill="white" stroke="#333645"/>
<path opacity="0.35" d="M68.5902 19C62.5902 22.2 45.7569 37.3333 38.0902 44.5L29.0902 38.5L29.5902 37L35.5902 30L42.5902 23L49.5902 17.5L57.5902 13L65.5902 8.5L79.0902 2L85.5902 1L94.0902 2.5L102.09 6.5L110.09 12.5L114.59 18L121.59 29.5L126.59 40L127.09 42.5V44L125.09 45L121.59 46C116.257 36.5 104.09 16.9 98.0902 14.5C90.5902 11.5 76.0902 15 68.5902 19Z" fill="#333645"/>
<path d="M66.0902 85.4999C65.2902 87.4999 66.7569 88.3333 67.5902 88.4999C73.0903 89.9999 71.5902 85.4999 74.5902 86C77.5902 86.5 75.5902 89 78.5902 89.5C81.5902 90 80.0902 85.4999 79.5902 83C79.0902 80.5 77.0902 75.9999 75.5902 75.4999C74.0902 74.9999 72.0902 77.4999 71.5902 77.9999C71.0902 78.4999 67.0902 82.9999 66.0902 85.4999Z" fill="#333645"/>
</svg>
