<svg width="732" height="409" viewBox="0 0 732 409" fill="none" xmlns="http://www.w3.org/2000/svg">
<ellipse cx="366" cy="214.765" rx="366" ry="193.765" fill="white"/>
<path d="M728 193.765C728 245.06 688.658 292.445 622.93 327.242C557.38 361.944 466.549 383.529 366 383.529C265.451 383.529 174.62 361.944 109.07 327.242C43.3424 292.445 4 245.06 4 193.765C4 142.47 43.3424 95.0848 109.07 60.2875C174.62 25.585 265.451 4 366 4C466.549 4 557.38 25.585 622.93 60.2875C688.658 95.0848 728 142.47 728 193.765Z" fill="#3B404D" stroke="white" stroke-width="8"/>
<path d="M216.156 126.025C217.585 126.56 219.193 127.319 220.979 128.301C218.3 118.659 216.245 110.445 214.816 103.659C211.333 110.623 206.734 119.105 201.018 129.105C200.571 130.087 199.812 131.471 198.74 133.256C202.313 127.721 206.377 124.953 210.931 124.953C212.718 124.953 214.459 125.31 216.156 126.025ZM237.591 107.007C241.252 119.418 245.584 130.98 250.585 141.694L252.059 144.64C253.309 146.783 254.247 148.613 254.872 150.131C255.497 151.559 255.81 153.033 255.81 154.55C255.81 156.872 254.828 159.282 252.863 161.782C250.898 164.193 248.754 165.979 246.432 167.139C245.003 167.943 243.485 168.345 241.878 168.345C239.198 168.345 236.519 167.541 233.84 165.934C231.25 164.238 228.124 161.827 224.462 158.702C221.872 156.559 219.907 155.041 218.567 154.149C217.674 153.524 215.799 152.542 212.941 151.202C207.939 148.702 204.054 146.47 201.286 144.506C198.607 142.542 197.267 140.221 197.267 137.542C197.267 136.828 197.579 135.756 198.205 134.328C196.508 137.363 194.141 142.006 191.104 148.256C187.353 155.845 185.21 160.086 184.674 160.979C183.602 162.943 181.861 165.13 179.449 167.541C177.038 169.862 174.805 171.023 172.751 171.023C171.679 171.023 170.742 170.621 169.938 169.818C169.313 169.193 169 168.211 169 166.871C169 163.122 171.858 156.47 177.574 146.917C177.931 146.202 178.512 145.176 179.315 143.836L182.263 138.212C188.336 126.783 192.757 118.168 195.525 112.364C197.133 108.972 199.455 103.882 202.492 97.097L207.314 86.2491C209.279 82.0528 211.244 78.5708 213.209 75.803C215.174 72.946 217.63 70.7586 220.577 69.2408C222.095 68.4372 223.524 68.0354 224.864 68.0354C226.65 68.0354 227.945 68.8836 228.749 70.58C229.553 72.1871 230.267 74.5977 230.892 77.8119C232.5 87.008 234.733 96.7398 237.591 107.007Z" fill="white"/>
<path d="M332.4 121.069C333.293 118.927 333.74 116.918 333.74 115.043C333.74 109.239 329.319 106.338 320.477 106.338C316.369 106.338 311.903 106.963 307.08 108.213C302.347 109.373 298.596 110.668 295.827 112.096C291.004 114.507 287.432 116.873 285.11 119.194C282.877 121.427 281.716 124.596 281.627 128.703C281.537 134.953 281.359 140.444 281.091 145.176C280.823 149.818 280.332 154.416 279.617 158.97C290.424 154.952 300.427 149.863 309.626 143.703C315.699 139.685 320.611 136.024 324.362 132.721C328.113 129.328 330.792 125.444 332.4 121.069ZM283.234 92.0079C283.234 93.3471 283.145 95.5345 282.966 98.5701C282.788 100.356 282.698 101.784 282.698 102.856L288.459 95.356C291.674 91.1597 294.13 87.9009 295.827 85.5795C297.524 83.1689 299.087 80.5797 300.516 77.8119C297.39 78.5262 294.621 79.3297 292.21 80.2225C289.799 81.0261 287.611 82.0975 285.646 83.4367C284.574 84.2403 283.815 84.9099 283.368 85.4456C283.011 85.9813 282.832 86.5616 282.832 87.1866C282.832 87.7223 282.877 88.4366 282.966 89.3294C283.145 90.2222 283.234 91.115 283.234 92.0079ZM334.008 88.3919C338.83 89.1955 342.358 91.0704 344.591 94.0167C346.913 96.9631 348.074 100.624 348.074 104.998C348.074 108.213 347.404 111.963 346.064 116.248C342.581 127.23 334.633 138.167 322.218 149.06C312.484 157.363 301.677 164.55 289.799 170.621C285.958 172.675 281.582 174.728 276.67 176.782C271.758 178.835 267.56 179.862 264.077 179.862C261.398 179.862 259.612 179.059 258.719 177.451C258.361 176.826 258.183 176.112 258.183 175.309C258.183 174.237 258.451 173.255 258.986 172.362C259.522 171.38 260.371 170.041 261.532 168.345C262.872 166.559 263.72 165.22 264.077 164.327C264.881 162.006 265.283 158.791 265.283 154.684V151.47C265.283 150.756 265.238 149.908 265.149 148.926C265.149 147.943 265.194 146.872 265.283 145.711C265.997 136.069 266.489 128.837 266.757 124.016C266.757 122.766 266.801 121.694 266.89 120.802C266.98 119.819 267.069 118.971 267.158 118.257C267.248 117.364 267.337 116.248 267.426 114.909C267.516 113.57 267.56 112.007 267.56 110.222C267.56 108.347 267.426 106.561 267.158 104.865C266.801 102.543 266.265 100.802 265.551 99.6415C265.462 99.3737 265.015 98.8826 264.211 98.1684C263.497 97.3648 263.095 96.7845 263.005 96.4274C262.916 96.0702 262.872 95.5792 262.872 94.9542C262.872 92.0079 264.568 87.8562 267.962 82.4993C268.945 80.9814 269.927 79.6868 270.909 78.6155C271.892 77.5441 272.964 76.7852 274.125 76.3387C274.482 76.1602 275.062 76.0709 275.866 76.0709C276.134 76.0709 276.491 76.0709 276.938 76.0709C277.474 76.0709 277.876 76.0262 278.144 75.937C279.126 75.5798 280.108 74.9102 281.091 73.9281C282.163 72.946 282.788 72.3657 282.966 72.1871C283.949 71.205 284.887 70.4014 285.78 69.7765C288.638 67.723 292.389 65.5802 297.033 63.3481C301.677 61.116 305.651 60 308.956 60C312.171 60 314.225 61.2946 315.118 63.8838C315.476 64.8659 315.654 65.9373 315.654 67.098C315.654 70.4907 314.493 74.196 312.171 78.2137C309.849 82.1421 306.812 86.5616 303.061 91.4722C302.525 92.2757 301.632 93.5257 300.382 95.222C310.028 90.3115 319.137 87.8562 327.711 87.8562C330.033 87.8562 332.132 88.0348 334.008 88.3919Z" fill="white"/>
<path d="M386.802 64.5534C389.213 64.0177 391.446 63.7499 393.5 63.7499C401.27 63.7499 407.075 67.098 410.916 73.7942C414.756 80.4011 416.676 89.0169 416.676 99.6415C416.676 110.713 414.711 122.141 410.782 133.926C406.941 145.622 401.627 155.354 394.84 163.122C388.141 170.889 380.684 174.773 372.467 174.773C368.627 174.773 364.876 173.88 361.214 172.094C356.749 169.862 353.399 166.068 351.167 160.711C349.023 155.354 347.951 148.926 347.951 141.426C347.951 131.248 349.738 120.444 353.31 109.016C356.972 97.4988 361.795 87.5884 367.778 79.2851C373.762 70.9818 380.103 66.0712 386.802 64.5534ZM384.39 86.2491C379.746 86.3384 375.504 88.749 371.663 93.481C367.912 98.1237 364.921 103.972 362.688 111.025C360.544 117.989 359.473 124.819 359.473 131.515C359.473 138.301 360.678 143.836 363.09 148.122C365.501 152.318 369.118 154.416 373.941 154.416C375.906 154.416 377.871 154.104 379.835 153.479C383.944 152.14 387.739 149.104 391.223 144.372C394.795 139.64 397.608 134.105 399.662 127.766C401.717 121.337 402.744 115.132 402.744 109.15C402.744 102.186 401.225 96.6059 398.189 92.4096C395.242 88.1241 390.642 86.0706 384.39 86.2491Z" fill="white"/>
<path d="M479.359 87.0527C479.537 88.5705 479.894 90.9365 480.43 94.1506C481.413 100.936 482.127 106.382 482.574 110.489C483.02 114.507 483.244 118.614 483.244 122.81C483.244 128.257 482.708 133.658 481.636 139.015C479.671 147.408 476.143 153.702 471.053 157.899C468.999 159.595 466.721 160.889 464.22 161.782C461.72 162.675 458.505 163.568 454.575 164.461C452.878 164.818 451.494 165.13 450.422 165.398C449.261 165.666 448.234 165.979 447.341 166.336C446.448 166.604 445.644 166.827 444.929 167.005C440.375 168.255 436.847 169.148 434.346 169.684C431.935 170.22 429.523 170.487 427.112 170.487C424.433 170.487 422.512 169.996 421.351 169.014C420.28 168.032 419.744 166.648 419.744 164.863C419.744 163.166 420.19 160.979 421.083 158.3C421.53 156.872 422.557 153.702 424.165 148.792C427.023 140.131 429.255 132.721 430.863 126.56C432.56 120.31 433.721 114.016 434.346 107.677C432.47 109.463 430.774 110.355 429.255 110.355C428.005 110.355 426.933 109.775 426.04 108.614C425.147 107.364 424.477 105.757 424.031 103.793C423.763 102.454 423.629 101.115 423.629 99.7755C423.629 96.1149 424.611 91.74 426.576 86.6509C427.916 83.1689 430.014 79.4636 432.872 75.5352C435.82 71.5175 438.633 69.5086 441.312 69.5086C443.366 69.5086 445.153 70.8032 446.671 73.3924C448.725 76.8744 449.752 81.785 449.752 88.1241C449.752 91.7847 449.484 95.356 448.948 98.838C448.502 102.32 447.743 106.963 446.671 112.766C444.527 124.194 440.821 137.497 435.552 152.675C437.874 152.586 440.196 152.318 442.518 151.872C444.929 151.336 447.966 150.533 451.628 149.461L454.977 148.524C455.602 148.345 456.808 148.077 458.594 147.72C461.095 147.274 463.193 146.783 464.89 146.247C466.587 145.711 467.748 145.042 468.373 144.238C469.088 143.256 469.445 141.426 469.445 138.747C469.445 137.319 469.222 134.596 468.775 130.578C468.507 129.239 468.373 128.123 468.373 127.23C468.105 122.944 467.346 116.828 466.096 108.882C466.007 108.079 465.649 106.293 465.024 103.525C463.774 97.8112 463.149 93.3917 463.149 90.2668C463.149 85.4456 464.354 81.6064 466.766 78.7494C469.088 75.8923 471.187 74.4638 473.062 74.4638C476.188 74.4638 478.287 78.6601 479.359 87.0527Z" fill="white"/>
<path d="M559.053 67.098C561.018 67.1873 562 68.1694 562 70.0443C562 71.5621 561.509 73.3031 560.526 75.2673C559.544 77.2316 558.562 78.794 557.579 79.9547C555.704 82.276 553.56 83.8385 551.149 84.642C548.737 85.4456 545.969 85.8474 542.843 85.8474C541.771 85.8474 540.074 85.7581 537.752 85.5795C534.894 85.4009 532.751 85.3563 531.322 85.4456C530.607 85.4456 529.759 85.4456 528.776 85.4456C527.883 85.4456 527.258 85.6241 526.901 85.9813C526.633 86.3384 526.276 87.1419 525.829 88.3919C525.561 89.2847 525.383 90.4454 525.293 91.8739C525.293 93.3025 525.293 94.3292 525.293 94.9542L524.356 109.82C524.088 114.998 523.909 119.552 523.82 123.48C523.73 127.319 523.641 130.533 523.552 133.123C523.552 136.605 523.507 139.194 523.418 140.89C524.132 140.712 524.623 140.622 524.891 140.622C526.856 140.622 527.839 142.14 527.839 145.176C527.839 147.319 527.481 149.595 526.767 152.006C526.142 154.416 525.338 157.095 524.356 160.041C523.82 161.559 522.659 163.613 520.872 166.202C519.176 168.702 517.255 170.889 515.112 172.764C512.968 174.639 511.093 175.576 509.485 175.576C507.431 175.576 506.047 173.969 505.332 170.755C504.618 167.63 504.261 163.88 504.261 159.506C504.261 154.595 504.752 148.39 505.734 140.89L506.672 131.248C508.012 113.837 509.664 99.6415 511.629 88.6598C511.093 88.8383 509.619 89.3294 507.208 90.1329C504.886 90.8472 502.742 91.6954 500.777 92.6775C498.813 93.6596 497.294 94.6863 496.223 95.7577C495.062 97.0077 494.035 98.6148 493.141 100.579C491.98 102.543 490.953 104.061 490.06 105.132C489.256 106.204 488.051 107.052 486.443 107.677C485.461 108.123 484.478 108.347 483.496 108.347C481.62 108.347 480.683 107.186 480.683 104.865C480.683 103.347 481.04 101.561 481.754 99.5076C482.469 97.4541 483.228 95.8024 484.032 94.5524C490.016 84.7313 499.215 77.678 511.629 73.3924C524.043 69.0176 537.172 66.8301 551.015 66.8301C552.98 66.8301 555.659 66.9194 559.053 67.098Z" fill="white"/>
<path d="M285.435 263.118C286.686 263.386 287.802 263.966 288.785 264.859C289.767 265.752 290.169 266.823 289.99 268.073C289.812 269.056 289.41 272.404 288.785 278.118C288.249 284.1 287.623 288.921 286.909 292.581C286.284 296.242 285.123 299.501 283.426 302.358C280.3 307.804 273.646 310.527 263.465 310.527C263.465 314.277 263.42 317.09 263.331 318.965C263.242 321.018 261.723 322.848 258.776 324.455C255.829 326.152 252.882 327 249.934 327C246.183 327 244.352 325.661 244.442 322.982C244.442 319.411 244.531 313.965 244.71 306.644C239.53 304.501 234.796 301.554 230.509 297.805C226.222 293.965 222.65 289.546 219.792 284.546C219.435 283.921 219.256 283.296 219.256 282.671C219.256 280.618 220.685 278.787 223.543 277.18C226.401 275.484 229.304 274.636 232.251 274.636C235.287 274.636 237.386 275.618 238.547 277.582C240.066 280.082 242.209 282.76 244.978 285.617C245.067 281.6 245.112 275.573 245.112 267.538C238.503 264.859 233.233 261.69 229.304 258.029C225.463 254.279 223.543 249.726 223.543 244.369C223.543 241.601 224.079 238.699 225.151 235.664C228.366 226.825 234.26 222.405 242.834 222.405L244.978 222.539V216.914C244.888 215.129 246.362 213.477 249.398 211.959C252.435 210.352 255.382 209.549 258.24 209.549C261.366 209.549 262.929 210.575 262.929 212.629C263.108 219.593 263.197 224.816 263.197 228.298C270.253 231.869 277.397 236.423 284.632 241.958C285.257 242.494 285.569 243.074 285.569 243.699C285.569 244.771 284.766 245.976 283.158 247.315C281.55 248.565 279.63 249.637 277.397 250.529C275.165 251.333 273.111 251.735 271.235 251.735C269.627 251.735 268.466 251.422 267.752 250.797L263.465 247.583C263.554 250.172 263.599 254.011 263.599 259.1C267.082 259.904 271.548 260.752 276.996 261.645C278.157 261.824 279.452 262.047 280.881 262.315C282.309 262.493 283.828 262.761 285.435 263.118ZM244.174 245.976C244.352 246.333 244.71 246.869 245.246 247.583L245.112 236.333C243.861 235.798 242.923 235.351 242.298 234.994C241.941 235.798 241.762 236.735 241.762 237.807C241.762 240.396 242.566 243.119 244.174 245.976ZM263.599 296.465C265.207 296.644 266.368 296.733 267.082 296.733C267.439 295.394 267.707 293.073 267.886 289.769L268.288 286.019C269.092 281.555 269.717 277.894 270.163 275.037L263.733 273.296C263.733 283.564 263.688 291.287 263.599 296.465Z" fill="white"/>
<path d="M299.316 202.986C300.477 202.361 301.727 202.049 303.067 202.049C304.942 202.049 306.684 202.585 308.291 203.656C308.916 204.102 309.497 204.549 310.033 204.995C310.569 205.442 311.06 205.843 311.506 206.2C312.042 206.558 312.757 206.915 313.65 207.272C314.543 207.629 315.302 207.986 315.927 208.343C318.607 209.772 322.536 212.004 327.716 215.039L339.639 221.87C346.516 225.798 352.545 229.191 357.725 232.048L366.299 236.601C371.389 239.19 375.676 241.512 379.159 243.565C382.732 245.619 386.036 247.94 389.073 250.529C391.306 252.583 393.047 254.592 394.297 256.556C395.548 258.52 396.173 260.663 396.173 262.984L396.039 264.457C395.146 269.636 392.422 274.591 387.867 279.323C384.384 283.073 380.276 286.287 375.542 288.966C370.898 291.644 365.539 294.189 359.466 296.599C349.106 300.528 337.228 304.054 323.831 307.179C322.402 307.536 321.375 307.76 320.75 307.849L315.257 309.188L307.487 310.661C305.076 311.108 302.129 311.554 298.646 312C298.288 312.09 297.619 312.268 296.636 312.536C295.743 312.715 294.939 312.804 294.225 312.804C293.868 312.804 293.332 312.715 292.617 312.536C290.742 312.179 289.804 311.063 289.804 309.188C289.804 307.938 290.25 306.51 291.144 304.903C291.947 303.206 292.796 301.867 293.689 300.885C296.368 297.76 300.298 295.617 305.478 294.456C306.55 294.189 307.175 293.921 307.353 293.653C307.621 293.296 307.8 292.537 307.889 291.376C307.889 289.769 307.979 287.358 308.157 284.144C308.872 275.662 309.318 269.189 309.497 264.725C309.854 260.44 310.077 257.226 310.167 255.083C310.256 254.636 310.345 254.056 310.435 253.342C310.524 252.538 310.569 251.601 310.569 250.529C310.569 249.369 310.39 248.297 310.033 247.315C308.157 242.762 305.165 237.137 301.057 230.441C301.057 230.53 301.102 230.664 301.191 230.842C301.37 230.932 301.504 231.155 301.593 231.512C300.432 229.459 298.512 226.468 295.832 222.539C295.475 222.093 295.073 221.512 294.627 220.798C294.18 220.084 293.778 219.504 293.421 219.057C293.153 218.789 292.796 218.432 292.349 217.986C291.903 217.45 291.545 217.004 291.278 216.647C290.831 215.754 290.608 214.95 290.608 214.236C290.608 212.272 291.59 210.218 293.555 208.075C295.43 205.933 297.351 204.236 299.316 202.986ZM330.53 289.233C338.657 287.448 347.454 285.082 356.921 282.135C362.012 280.528 366.165 279.055 369.38 277.716C372.595 276.377 375.632 274.636 378.489 272.493C375.899 269.368 372.952 266.689 369.648 264.457C366.433 262.136 361.833 259.19 355.849 255.618L345.802 249.592L329.592 239.548C332.896 248.922 334.549 257.717 334.549 265.931C334.549 271.913 333.7 277.85 332.003 283.743L330.53 289.233Z" fill="white"/>
<path d="M405.771 218.388C404.253 217.316 403.494 215.62 403.494 213.298C403.494 212.852 403.583 212.093 403.762 211.022C404.387 208.343 405.593 205.843 407.379 203.522C409.255 201.111 411.398 199.192 413.809 197.763C415.685 196.692 417.56 196.156 419.436 196.156C421.401 196.156 422.919 196.826 423.991 198.165C424.795 199.236 425.197 200.531 425.197 202.049C425.197 203.388 424.795 205.084 423.991 207.138C423.098 209.638 421.713 211.915 419.838 213.968C418.052 216.022 415.998 217.584 413.675 218.655C411.8 219.548 410.148 219.861 408.719 219.593C407.379 219.414 406.397 219.013 405.771 218.388ZM417.159 295.662C417.159 296.287 417.025 297.001 416.757 297.805C416.578 298.608 416.444 299.188 416.355 299.546L416.087 300.349C415.194 303.653 413.586 306.777 411.264 309.724C408.942 312.67 406.039 314.143 402.556 314.143C402.199 314.143 401.931 314.099 401.752 314.009C400.324 313.831 399.162 313.295 398.269 312.402C396.93 310.795 396.26 308.295 396.26 304.903C396.26 303.653 396.349 302.224 396.528 300.617C396.438 300.349 396.438 300.081 396.528 299.813C396.528 299.456 396.528 299.233 396.528 299.144C396.796 292.805 397.734 284.189 399.341 273.296L399.877 269.145C400.77 263.074 401.351 258.52 401.619 255.485L402.154 249.458C402.154 248.833 402.199 248.342 402.288 247.985C402.467 246.735 402.512 245.931 402.422 245.574C402.333 245.485 402.288 245.396 402.288 245.306C402.288 245.128 402.244 244.994 402.154 244.905C401.619 244.19 401.351 243.253 401.351 242.092C401.351 240.664 401.485 239.235 401.752 237.807C401.842 237.539 401.886 237.092 401.886 236.467C402.512 232.36 404.253 228.834 407.111 225.887C410.058 222.941 412.827 221.468 415.417 221.468C416.399 221.468 417.337 221.691 418.23 222.137C420.463 223.298 421.579 225.753 421.579 229.503C421.401 232.003 421.312 233.878 421.312 235.128L421.178 238.61L420.776 245.976C420.686 250.619 420.418 255.351 419.972 260.172C419.883 261.958 419.347 267.85 418.364 277.85L417.962 282.001L417.694 284.68L416.891 292.046C416.801 292.403 416.757 292.715 416.757 292.983C416.846 293.162 416.891 293.385 416.891 293.653C417.069 294.099 417.114 294.456 417.025 294.724L417.159 295.662Z" fill="white"/>
<path d="M492.403 289.635C495.796 290.082 497.493 291.867 497.493 294.992C497.493 296.153 497.225 297.447 496.689 298.876C496.243 300.215 495.618 301.465 494.814 302.626C493.117 305.126 491.152 306.822 488.919 307.715C486.776 308.608 483.963 309.143 480.48 309.322C473.424 309.59 468.378 309.724 465.341 309.724C456.589 309.992 450.516 310.215 447.122 310.393C440.156 310.661 434.038 311.554 428.769 313.072C426.625 313.608 425.152 313.875 424.348 313.875C423.365 313.875 422.606 313.563 422.07 312.938C421.534 312.313 421.267 311.197 421.267 309.59C421.267 307.893 421.579 306.152 422.204 304.367C422.919 302.492 423.991 299.992 425.419 296.867C426.67 294.456 427.652 292.224 428.367 290.171C428.545 289.546 428.947 288.296 429.572 286.421C430.287 284.546 430.778 282.85 431.046 281.332C431.135 280.885 431.18 280.35 431.18 279.725C431.18 279.189 431.091 278.564 430.912 277.85C430.733 277.046 430.599 276.287 430.51 275.573C430.421 274.145 430.599 272.761 431.046 271.421C431.582 269.993 432.341 268.386 433.323 266.6C434.842 263.475 435.735 261.243 436.003 259.904C437.61 252.226 438.503 246.422 438.682 242.494L438.816 238.342C438.816 235.664 438.548 233.7 438.012 232.45C437.566 231.378 436.762 230.307 435.601 229.235C434.529 228.164 433.815 227.271 433.457 226.557C433.011 225.753 432.788 224.682 432.788 223.343C432.788 221.825 433.145 220.218 433.859 218.521C434.663 216.736 435.646 215.129 436.807 213.7C438.861 211.022 441.317 209.682 444.175 209.682C446.318 209.682 448.462 210.307 450.605 211.557C452.838 212.807 455.517 214.638 458.643 217.048C460.965 218.834 462.707 220.084 463.868 220.798C468.065 223.298 471.593 225.218 474.451 226.557C477.309 227.896 480.346 228.878 483.561 229.503C485.079 229.771 486.508 229.905 487.848 229.905C489.277 229.905 490.706 229.771 492.135 229.503C492.67 229.414 493.519 229.146 494.68 228.7C495.93 228.164 496.868 227.896 497.493 227.896C498.118 227.896 498.654 228.075 499.101 228.432C499.994 229.057 500.44 230.084 500.44 231.512C500.44 232.941 499.994 234.548 499.101 236.333C498.297 238.03 497.449 239.458 496.555 240.619C493.787 244.012 489.857 246.065 484.766 246.779C483.159 247.047 481.507 247.181 479.81 247.181C475.255 247.181 470.789 246.422 466.413 244.905C462.037 243.297 457.035 241.065 451.409 238.208C450.873 245.083 449.846 252.226 448.328 259.636L452.883 258.565C457.616 257.404 461.456 256.556 464.404 256.02C467.44 255.395 470.387 255.083 473.245 255.083C474.496 255.083 475.434 255.127 476.059 255.217C479.185 255.485 480.747 257.047 480.747 259.904C480.747 261.243 480.39 262.716 479.676 264.324C479.051 265.931 478.247 267.404 477.264 268.743C475.478 271.154 473.29 272.716 470.7 273.43C468.11 274.145 464.761 274.546 460.653 274.636L456.098 274.904C452.883 275.261 450.426 275.573 448.73 275.841C447.033 276.02 445.961 276.243 445.514 276.511C445.157 276.689 444.8 277.091 444.443 277.716C444.175 278.341 443.862 278.921 443.505 279.457C442.88 280.528 442.299 281.912 441.763 283.609C441.227 285.305 440.781 287.001 440.424 288.698C439.888 291.198 439.441 292.983 439.084 294.055C444.085 292.894 451.364 291.823 460.92 290.84C470.566 289.769 478.693 289.233 485.302 289.233C488.16 289.233 490.527 289.367 492.403 289.635Z" fill="white"/>
</svg>
